<?xml version="1.0" encoding="UTF-8"?>
<svg id="Capa_2" data-name="Capa 2" xmlns="http://www.w3.org/2000/svg" viewBox="0 0 81.43 114.6">
  <defs>
    <style>
      .cls-1 {
        fill: #fad224;
      }

      .cls-2 {
        fill: #e95461;
      }

      .cls-3 {
        fill: #e63a26;
      }

      .cls-4 {
        fill: #fff;
      }

      .cls-5 {
        fill: #ffd625;
      }

      .cls-6 {
        fill: #fed525;
      }

      .cls-7 {
        fill: #c13a18;
      }

      .cls-8 {
        fill: #a91f29;
      }

      .cls-9 {
        fill: #e09821;
      }

      .cls-10 {
        fill: #1e1c19;
      }

      .cls-11 {
        fill: #40361f;
      }

      .cls-12 {
        fill: #100f04;
      }

      .cls-13 {
        fill: #6e1610;
      }

      .cls-14 {
        fill: #5c4f1c;
      }

      .cls-15 {
        fill: #4f391f;
      }

      .cls-16 {
        fill: #514833;
      }
    </style>
  </defs>
  <g id="Capa_1-2" data-name="Capa 1">
    <g>
      <path class="cls-6" d="M53.87,103.07c-.04,.06-.09,.11-.13,.17-.23,.09-.27,.33-.37,.52-.42,.79-.9,1.56-1.47,2.25-.08,.1-.18,.36-.32,.22-.35-.34-.71-.05-1.06-.1-.06-.92-.31-1.06-1.17-.66-.17,.08-.33,.25-.52,0-.58-.74-.59-.75-1.4-.18-.24,.17-.38,.19-.58-.07-.5-.67-.59-.66-1.2-.08-.22,.21-.45,.41-.54,.73,0,0,0,0,0,0,.31-.1,.49-.36,.7-.57,.35-.38,.63-.42,.88,.09,.19,.38,.45,.43,.78,.16,.1-.08,.23-.13,.33-.22,.37-.3,.66-.32,.82,.2,.1,.31,.28,.42,.59,.25,.58-.32,1.04-.32,1.17,.48,.07,.04,.15,.11,.23,.11,.79,.02,.83,.09,.48,.79-.13,.26-.29,.49-.5,.69-1.09,1.1-2.35,1.93-3.9,2.16-2.87,.44-4.53,.04-5.79-3.13-.33-.84-.47-1.73-.7-2.6-.02-.09-.04-.19-.06-.28,0-.07,0-.14,0-.2,.19-.32,.54-.34,.85-.44,5.72-1.95,10.19-5.49,13.4-10.61,.29-.46,.72-.9,.7-1.52,.05-.12,.11-.24,.16-.35,1.08-1.45,1.69-3.01,1.21-4.85-.2-.76-.4-1.53-.55-2.3-.38-1.93-.24-3.9-.35-5.85-.11-2.06-.09-4.13-.59-6.15-.18-1.14-.56-2.23-.94-3.31-.3-.84-.16-1.06,.81-1.2,1.05,.45,1.89,.05,2.13-1.03,.02-.11,0-.23,.12-.29,.79-.41,1.45-1.06,2.38-1.18,.54-.07,1.08-.21,1.33-.72,.22-.47,.59-.74,.98-1.01,.34-.23,.67-.49,1-.74,.46-.3,.95-.56,1.36-.92,.51-.45,.78-.29,1.11,.22,1.05,1.58,1.85,3.28,2.53,5.04,.45,1.46,.74,2.96,.9,4.48,.03,1.45,.08,2.9-.13,4.34-.44,.57-.87,1.15-1.31,1.71-1.56,2-3.37,3.69-5.73,4.7-1.19,.51-2.45,.82-3.77,.46-.15-.96,0-1.98-.47-2.89,.28,4.45,.49,8.88-.3,13.3-.19,.81-.38,1.62-.56,2.43-.58,2.74-1.63,5.33-2.56,7.96Zm-11.14,3.66c-.26-.17-.52-.41-.71-.17-.19,.24-.12,.58,.09,.99,.08-.46,0-.9,.63-.82Z"/>
      <path class="cls-10" d="M67.78,66.58c-.68-1.76-1.48-3.46-2.53-5.04-.34-.5-.6-.66-1.11-.22-.41,.36-.9,.62-1.36,.92-.05-.05-.1-.1-.16-.15,.88-.66,1.77-1.29,2.63-1.97,.63-.5,1.36-.9,1.81-1.6,2.6-4.07,4.18-8.52,5.01-13.25,.19-1.11,.11-1.17-.96-.77-4.57,1.72-8.72,4.2-12.58,7.16-2.53,1.94-4.85,4.11-7.1,6.36-.05-.05-.1-.1-.15-.15,.21-.39,.66-.6,.8-1.04,.05-.06,.09-.12,.14-.18,.77-.4,1.23-1.15,1.88-1.68,.35-.28,.54-.59,.43-1.05,.19,.04,.32,.38,.55,.14,.3-.3,.72-.48,.91-.89,.01-.06,.02-.12,.03-.18,.38,.13,.56-.21,.77-.38,2.42-2,4.98-3.8,7.7-5.38,4.27-2.48,8.81-4.18,13.75-4.74,.85-.1,1.7-.11,2.55-.19,.56-.05,.72,.18,.58,.7-.31,1.21-.95,2.26-1.66,3.26-2.28,3.22-5.05,6-7.87,8.73-2.02,1.95-4.18,3.74-6.43,5.43-.36,.27-.37,.42-.11,.8,1.16,1.65,2.2,3.38,2.7,5.37-.08,0-.15,0-.23,0Z"/>
      <path class="cls-10" d="M6.07,58.54c-1.54-2.72-2.7-5.6-3.67-8.56C1.02,45.83,.27,41.58,.08,37.22c-.05-1.21-.06-2.41-.08-3.62,0-.59,.17-.7,.72-.44,.56,.27,1.03,.66,1.51,1.05,3.04,2.52,5.43,5.6,7.7,8.79,2.76,3.86,5.15,7.94,6.97,12.34,.7,1.7,1.3,3.44,1.83,5.25,.4-.56,.76-1.07,1.13-1.58,.02,.02,.03,.03,.05,.05,0,.17,0,.35,0,.52-.07,.06-.14,.11-.2,.17-.62,.64-1.02,1.33-.59,2.26,.13,.29,.25,.37,.52,.21,.04,.04,.08,.07,.12,.11l-.95,.67c-.09,0-.19,0-.23-.11,.37-.2,.39-.47,.27-.87-1.46-4.97-3.45-9.71-6.11-14.16-1.74-2.91-3.69-5.67-5.83-8.29-.28-.35-.42-.36-.62,.05-.23,.47-.47,.94-.65,1.44-.68,1.92-.95,3.93-1.1,5.94-.28,3.89-.51,7.79,1.64,11.33l-.12,.21Z"/>
      <path class="cls-11" d="M56.98,92.68c.79-4.42,.58-8.85,.3-13.3,.47,.91,.32,1.93,.47,2.89,0,.85,0,1.71,.01,2.56,.02,1.94,.2,2.08,2.14,1.75,.02,0,.04,0,.06-.01,3.14-.68,5.54-2.36,6.98-5.26,.92-1.85,1.55-3.81,1.61-5.91,.21-1.44,.16-2.89,.13-4.34,.08-.3-.12-.64,.13-.92,.41,3.32,.26,6.6-.87,9.78-.13,.38-.1,.6,.18,.91,1.94,2.16,3.55,4.55,4.94,7.11,.65,1.2,.68,2.46,.64,3.75,0,.07-.08,.14-.13,.21-.05-.05-.1-.1-.15-.16,.09-.9-.5-1.57-.79-2.33l.13-.15c.2,.33,.4,.66,.61,.99,.05-.03,.1-.05,.14-.08-.65-2.53-2.13-4.62-3.64-6.7-.54-.85-1.16-1.63-1.84-2.38-.26-.28-.41-.31-.58,.1-.54,1.35-1.49,2.4-2.53,3.38-.16,.15-.45,.24-.3,.57-.05,.05-.09,.1-.14,.15-.2-.25-.38-.08-.56,.03-1.76,1.1-3.62,1.86-5.76,1.56-.4-.05-.36,.19-.36,.44,0,1.58-.16,3.14-.46,4.69-.12,.09-.12,.22-.08,.35,0,.1-.02,.21-.03,.31-.08,0-.17,0-.25,0Z"/>
      <path class="cls-16" d="M34.15,101.52c.58,3.19,.33,6.36-.24,9.53-.32,1.77-2.34,3.41-4,3.5-1.35,.08-2.74,.17-3.93-.69-.49-.35-1.11-.64-1.02-1.44,.01-.11-.17-.24-.27-.36-2.89-3.25-5.31-6.81-7.3-10.67-1.22-2.36-2.12-4.85-2.65-7.46-.09-.44-.26-.8-.58-1.14-.95-1.01-1.81-2.09-2.29-3.41,.1-.04,.12-.12,.13-.22,.42,.96,1.02,1.82,1.63,2.67,.78,1.1,1.27,1.44,2.98,.86,0,.05,0,.09,.01,.14-.48,.41-1.12,.26-1.72,.43,.48,.45,.9,.85,1.32,1.25-.01,.07-.02,.14-.03,.21-.17-.11-.34-.21-.51-.32,0,0,0,0,0,0-.07-.07-.15-.14-.22-.21-.14-.12-.19-.36-.47-.3,.02,.15,.03,.31,.07,.45,.63,2.34,1.44,4.6,2.53,6.77,2.05,4.06,4.69,7.71,7.61,11.18v.31c-.07,.22,.11,.31,.23,.43,1.42,1.48,3.19,1.56,5.01,1.09,1.82-.46,3.03-1.57,3.34-3.54,.32-2.05,.43-4.1,.36-6.17,.03-.98-.01-1.94-.27-2.89,.1,0,.2,0,.3-.01Z"/>
      <path class="cls-16" d="M63.67,20.95c-1.79,.31-3.58,.61-5.36,.94-3.31,.61-6.6,1.31-9.84,2.18-.69,.19-1.37,.4-1.86,.54,1.24,1.32,2.5,2.69,3.78,4.03,1.01,1.07,2.06,2.1,3.07,3.17,.76,.81,.74,.85-.29,1.16-1.62,.48-3.24,.93-4.86,1.42-2.61,.8-5.17,1.76-7.81,2.8,1.32,.83,2.72,1.28,3.97,2.03-.02,.04-.05,.08-.07,.12-.38-.17-.75-.36-1.14-.5-.67-.25-1.24-.74-1.98-.83-.03-.21-.19-.2-.34-.2h.01c-.2-.31-.65-.26-.86-.6,.06-.05,.11-.13,.19-.16,.32-.15,.64-.3,.96-.42,3.51-1.37,7.09-2.53,10.7-3.6,2.01-.59,2.13-.35,.51-2.01-1.96-2.01-4.03-3.91-6.04-5.87-.54-.52-.53-.61,.2-.81,2.09-.56,4.19-1.13,6.3-1.63,3.52-.84,7.06-1.53,10.65-2.02,.04,.08,.09,.16,.13,.24Z"/>
      <path class="cls-11" d="M34.15,101.52c-.1,0-.2,0-.3,.01-.96-.09-1.92-.16-2.87-.28-3.92-.51-7.52-1.9-10.94-3.84,.05-.04,.1-.09,.15-.13,.18,.08,.36,.15,.54,.24,4.79,2.4,9.75,4.01,15.23,3.49,2.99-.28,5.92-.71,8.68-1.94,1.97-.88,3.79-2.02,5.55-3.25,.06,.05,.12,.11,.18,.16-2.95,2.42-6.31,4.01-10.02,4.85-.47,.11-.56,.3-.51,.71,.09,.74,.16,1.48,.24,2.22,.02,.08,.04,.16,.06,.24,.02,.09,.04,.19,.06,.28-.08,0-.16,0-.24,0l-.02-.22c.01-.2,.06-.4-.1-.57-.07-.22-.16-.43-.11-.67,.14-.19,.15-.37-.05-.52-.09-.27-.07-.55-.04-.83,.04-.57-.02-.63-.48-.48-.16,.09-.34,.14-.53,.11-.11-.12-.19-.1-.26,.03-.1,.07-.2,.07-.3,.02-.07,.02-.14,.04-.22,.05-.21,.02-.42,.04-.62,.05-.11-.02-.22-.02-.3,.07-.22,.01-.45,.03-.67,.04-.03-.01-.06,0-.09,.02-.66,.2-1.34,.05-2.01,.12Z"/>
      <path class="cls-11" d="M41.7,8.46c3.32-1.65,6.7-3.14,10.14-4.51,2.89-1.14,5.79-2.28,8.8-3.1,1.14-.31,2.28-.61,3.46-.79,1.05-.16,1.11-.15,1.32,.86,.05,.21,.06,.43,.09,.65-.07,0-.15,0-.22,0-.32-1.34-.36-1.37-1.72-1.09-.15,.03-.3,.06-.45,.09-1.64,.42-3.25,.91-4.85,1.46-5.59,1.9-11.01,4.23-16.39,6.65-.06-.08-.12-.15-.17-.23h0Z"/>
      <path class="cls-11" d="M25.83,38.29c-.06-.01-.13-.03-.19-.04-.2-.05-.5,.06-.56-.21-.06-.25,.22-.36,.37-.49,1.27-1.12,2.62-2.14,3.97-3.14,2.42-1.79,4.85-3.55,7.45-5.2-.62-.77-1.34-1.42-2.06-2.08-2.5-2.28-5.01-4.54-7.52-6.81-.1-.09-.18-.19-.27-.28,.04-.05,.09-.09,.13-.14,1.51,1.33,3.04,2.65,4.54,4,1.76,1.59,3.57,3.12,5.19,4.85,.3,.32,.35,.51-.07,.8-1.45,.98-2.88,2.01-4.31,3.01-2.3,1.61-4.56,3.28-6.72,5.06-.25,.21-.48,.39,.06,.49v.18Z"/>
      <path class="cls-11" d="M12,89.16c0,.1-.03,.18-.13,.22-.44-.92-.51-1.9-.33-2.88,.43-2.28,1-4.54,1.17-6.86,.14-1.86,.23-3.72,.34-5.57,.1-1.55,.25-3.1,.81-4.57,.04-.11,.05-.21-.01-.31,0-.05,0-.11,0-.16,.32,.03,.3-.26,.41-.42,.38-.54,.49-1.27,1.14-1.62-.39,.81-.85,1.58-1.18,2.42-.87,2.19-.89,4.51-.98,6.8-.09,2.35-.25,4.68-.74,6.99-.11,.07-.12,.16-.03,.26,.06,0,.12,0,.19,0,0,.09,0,.17,0,.26-.8,1.75-1.04,3.56-.66,5.45Z"/>
      <path class="cls-16" d="M27.16,19.9s-.09,.09-.13,.14c-.67-.59-1.34-1.2-2.02-1.78-.31-.26-.27-.47,.02-.68,.5-.36,.99-.73,1.51-1.05,3.16-1.97,6.44-3.73,9.76-5.42,1.8-.92,3.62-1.78,5.42-2.67,0,0-.01,.02-.01,.02,.06,.08,.12,.15,.17,.23-3.32,1.61-6.6,3.27-9.87,4.99-2.26,1.19-4.42,2.52-6.54,3.94-.4,.27-.42,.43-.03,.75,.6,.48,1.14,1.02,1.71,1.54Z"/>
      <path class="cls-11" d="M40.49,47.57c.12,.09,.29,.15,.36,.27,.58,.95,1.51,1.02,2.48,1.07,.41,.02,.82,.1,1.23,.15,.15,.29-.69-.15-.25,.35-.07,0-.13,.02-.2,0-3.3-.65-6.59-.36-9.87,.2-2.29,.39-4.42,1.24-6.49,2.28-.04-.05-.07-.09-.11-.14,1.93-1.28,4.09-1.94,6.32-2.43,.98-.21,1.97-.35,3.07-.53-.68-.73-1.27-1.41-1.92-2.04-.35-.34-.26-.53,.09-.73,.06,0,.12,.01,.19,.02-.24,.28-.13,.49,.1,.73,.56,.58,1.18,1.11,1.66,1.77,.09,.12,.2,.24,.37,.24,1.19,0,2.38,0,3.74,0-.38-.44-.65-.75-.91-1.05,.05-.05,.1-.09,.15-.14Z"/>
      <path class="cls-11" d="M63.67,20.95c-.04-.08-.09-.16-.13-.24,.69-.13,1.37-.3,2.06-.39,.46-.06,.58-.28,.58-.69,0-.63,.05-1.27,.04-1.9-.04-3.94-.19-7.88-.44-11.81,.08-.39-.13-.81,.12-1.18,0,.16,.02,.33,.03,.49,0,.02-.02,.04-.01,.05,0,.03,.03,.06,.04,.1,.23,1.09,.26,2.21,.33,3.32,.23,3.58,.41,7.17,.26,10.76-.04,.97-.1,1.06-1.07,1.22-.41,.07-.82,.11-1.23,.16-.06,.01-.11,.03-.17,.04-.14,.02-.27,.04-.41,.06Z"/>
      <path class="cls-16" d="M39.95,104.28c.08,0,.16,0,.24,0,.23,.87,.37,1.76,.7,2.6,1.26,3.18,2.91,3.58,5.79,3.13,1.55-.24,2.81-1.07,3.9-2.16,.2-.2,.37-.43,.5-.69,.34-.71,.3-.77-.48-.79-.08,0-.15-.07-.23-.11,.05-.05,.1-.09,.14-.14,.35,.05,.72-.24,1.06,.1,.14,.13,.24-.12,.32-.22,.58-.69,1.05-1.46,1.47-2.25,.1-.19,.13-.42,.37-.52-.35,1.13-1.12,2.01-1.74,2.98-.18,.28-.37,.54-.55,.82-1.64,2.47-3.98,3.57-6.9,3.41-1.47-.08-2.6-.88-3.32-2.19-.68-1.24-1.1-2.57-1.28-3.98Z"/>
      <path class="cls-16" d="M35.39,46.03c-.06,0-.12-.01-.19-.02,1.03-1.06,2.29-1.83,3.42-2.76,.3-.25,.61-.49,.99-.79-4.65-1.4-9.22-2.78-13.79-4.16,0-.06,0-.12,.01-.18,1.42,.41,2.85,.82,4.27,1.23,2.66,.77,5.32,1.54,7.99,2.31,.52,.17,1.04,.35,1.56,.51,.34,.11,.39,.25,.1,.48-1.46,1.13-2.91,2.25-4.37,3.38Z"/>
      <path class="cls-15" d="M44.46,39.24c1.23,.53,2.42,1.13,3.58,1.79,.61,.35,.62,.39,0,.78-2.47,1.59-4.93,3.18-7.42,4.74-.54,.34-.65,.61-.13,1.02-.05,.05-.1,.09-.15,.14-.86-.6-.86-.68-.05-1.25,.18-.13,.37-.24,.55-.36,2.24-1.42,4.48-2.85,6.71-4.27,.6-.38,.6-.46-.03-.8-1.04-.57-2.09-1.11-3.13-1.66l.07-.12Z"/>
      <path class="cls-16" d="M56.98,92.68c.08,0,.17,0,.25,0-.31,2.39-1.03,4.68-1.79,6.96-.4,1.2-.91,2.35-1.57,3.43,.93-2.63,1.97-5.22,2.56-7.96,.17-.81,.37-1.62,.56-2.43Z"/>
      <path class="cls-16" d="M44.3,49.4c-.43-.49,.41-.06,.25-.35,3.99,.57,7.85,1.51,11.28,3.76,.07,.05,.13,.11,.19,.17-.01,.06-.02,.12-.03,.18-2.64-1.77-5.61-2.67-8.67-3.35-.7-.2-1.38-.52-2.13-.28-.31,.06-.6-.06-.89-.13Z"/>
      <path class="cls-16" d="M73.42,91.74c.05,.05,.1,.1,.15,.16-.51,.54-1.04,.5-1.69,.2-1.75-.83-3.17-2.06-4.49-3.44,.04-.03,.09-.07,.13-.1,.16,.14,.34,.28,.49,.43,1.15,1.09,2.41,2.04,3.79,2.81,.3,.17,.6,.45,1.02,.29-.07-.33-.31-.54-.47-.79-.53-.8-1.27-1.44-1.7-2.31,.28-.16,.32,.14,.41,.25,.6,.75,1.18,1.51,1.74,2.28,.17,.23,.29,.45,.61,.22Z"/>
      <path class="cls-11" d="M12.92,68.29c-1.8-2.22-3.67-4.38-5.15-6.84,.04-.05,.08-.1,.13-.15,.1,.09,.19,.18,.29,.27,.03,.05,.06,.09,.08,.14,.07,.28,.28,.49,.45,.71,1.44,1.91,2.89,3.82,4.34,5.73-.05,.05-.09,.1-.14,.14Z"/>
      <path class="cls-16" d="M68.81,70.14c-.25,.28-.05,.62-.13,.92-.17-1.52-.46-3.02-.9-4.48,.08,0,.15,0,.23,0,.42,1.15,.69,2.34,.8,3.56Z"/>
      <path class="cls-16" d="M65.91,4.75c-.25,.37-.04,.79-.12,1.18-.17-1.45-.34-2.89-.51-4.34,.07,0,.15,0,.22,0,.19,1.05,.35,2.1,.4,3.16Z"/>
      <path class="cls-11" d="M20.21,58.47c.7-1.05,1.56-1.97,2.48-2.83,.09,.02,.17,.04,.26,.06-.85,.98-1.71,1.96-2.56,2.93-.06-.06-.12-.11-.18-.17Z"/>
      <path class="cls-16" d="M7.89,61.3c-.04,.05-.08,.1-.13,.15-.64-.93-1.25-1.88-1.7-2.92,.04-.07,.08-.14,.12-.21,.56,.95,1,1.97,1.7,2.84v.14Z"/>
      <path class="cls-16" d="M64.48,85.3c.05-.05,.09-.1,.14-.15,.72,.85,1.45,1.71,2.17,2.56,.03,.06,.06,.13,.09,.19-.04,.05-.07,.09-.11,.14-.84-.85-1.6-1.77-2.3-2.74Z"/>
      <path class="cls-11" d="M22.87,55.47c.61-.65,1.26-1.25,1.98-1.78,.05,.06,.1,.11,.15,.17-.02,.02-.04,.04-.07,.06-.2,.17-.57,.25-.4,.65-.47,.32-.93,.64-1.4,.96-.09-.02-.17-.04-.26-.05Z"/>
      <path class="cls-11" d="M24.84,53.69l.59-.44s.08,.08,.11,.12c-.19,.16-.37,.33-.56,.49-.05-.06-.1-.11-.15-.17Z"/>
      <path class="cls-11" d="M25.44,53.25c.16-.21,.37-.34,.61-.45,.04,.04,.07,.08,.11,.13-.2,.15-.4,.3-.6,.44-.04-.04-.08-.08-.11-.12Z"/>
      <path class="cls-16" d="M39.15,101c.46-.15,.52-.09,.48,.48-.08-.24-.11-.53-.48-.48Z"/>
      <path class="cls-16" d="M39.67,102.3c.19,.16,.18,.34,.05,.52-.02-.17-.03-.35-.05-.52Z"/>
      <path class="cls-16" d="M13.85,69.04c0,.05,0,.11,0,.16-.23-.09-.38-.26-.51-.45,.05-.03,.1-.06,.14-.09,.12,.13,.25,.25,.37,.38Z"/>
      <path class="cls-16" d="M12.92,68.29s.09-.1,.14-.14c.1,.12,.2,.24,.3,.36-.03,.05-.07,.11-.1,.16-.14-.11-.28-.2-.34-.38Z"/>
      <path class="cls-11" d="M26.04,52.8l.39-.29s.06,.08,.09,.12c-.12,.1-.25,.2-.37,.3-.04-.04-.07-.08-.11-.13Z"/>
      <path class="cls-11" d="M19.91,58.93c.02-.14,.1-.23,.21-.3,.05,.04,.1,.09,.15,.13-.07,.1-.15,.2-.22,.3,0,0-.04-.03-.04-.03-.04-.03-.07-.07-.11-.1Z"/>
      <path class="cls-11" d="M26.58,52.42c.1-.14,.24-.21,.4-.26,.03,.04,.07,.08,.1,.12-.13,.08-.27,.17-.4,.25-.03-.04-.07-.07-.1-.11Z"/>
      <path class="cls-11" d="M27.22,52c.14-.08,.28-.17,.42-.25,.04,.05,.07,.09,.11,.14-.14,.08-.28,.16-.41,.24-.04-.04-.07-.08-.11-.13Z"/>
      <path class="cls-16" d="M39.83,103.49c.17,.17,.12,.37,.1,.57-.14-.17-.13-.37-.1-.57Z"/>
      <path class="cls-16" d="M38.36,101.14c.07-.13,.16-.16,.26-.03-.09,.01-.18,.02-.26,.03Z"/>
      <path class="cls-15" d="M22.87,55.47c.09,.02,.17,.04,.26,.05-.06,.06-.11,.11-.17,.17-.09-.02-.17-.04-.26-.06,.06-.06,.12-.11,.17-.17Z"/>
      <path class="cls-16" d="M36.92,101.34c.08-.09,.19-.1,.3-.07-.09,.08-.18,.11-.3,.07Z"/>
      <path class="cls-11" d="M26.99,52.16c.08-.05,.15-.11,.23-.16,.04,.04,.07,.08,.11,.13-.08,.05-.16,.1-.25,.15-.03-.04-.07-.08-.1-.12Z"/>
      <path class="cls-16" d="M57.26,92.37c-.04-.13-.03-.25,.08-.35,.02,.13,.01,.25-.08,.35Z"/>
      <path class="cls-16" d="M67.4,88.66s-.09-.09-.13-.13c.05-.03,.09-.06,.14-.1,.04,.04,.09,.09,.13,.13-.04,.03-.09,.07-.13,.1Z"/>
      <path class="cls-16" d="M64.08,20.89c.06-.01,.11-.03,.17-.04-.06,.01-.11,.03-.17,.04Z"/>
      <path class="cls-16" d="M67.27,88.53s-.08-.09-.12-.13c.04-.03,.08-.07,.12-.1,.04,.04,.09,.09,.13,.13-.05,.03-.09,.06-.14,.1Z"/>
      <path class="cls-16" d="M67.15,88.4s-.09-.09-.13-.13c.04-.03,.08-.07,.12-.1,.04,.04,.09,.09,.13,.13-.04,.03-.08,.07-.12,.1Z"/>
      <path class="cls-16" d="M37.84,101.22c.07-.02,.14-.04,.22-.05-.07,.02-.14,.04-.22,.05Z"/>
      <path class="cls-16" d="M67.02,88.26s-.09-.09-.13-.13c.04-.03,.08-.07,.12-.1,.04,.04,.09,.09,.13,.13l-.12,.1Z"/>
      <path class="cls-16" d="M36.16,101.4s.06-.03,.09-.02c0,0-.04,.04-.04,.04l-.05-.02Z"/>
      <polygon class="cls-5" points="41.7 8.46 41.71 8.44 41.7 8.46 41.7 8.46"/>
      <path class="cls-16" d="M66.89,88.13s-.07-.06-.11-.1c.04-.05,.07-.09,.11-.14,.04,.04,.08,.09,.13,.13-.04,.03-.08,.07-.12,.1Z"/>
      <path class="cls-16" d="M65.96,5.39s-.03-.06-.04-.1c0-.02,0-.03,.01-.05,.02,.03,.04,.06,.05,.1,0,.01-.01,.03-.02,.05Z"/>
      <path class="cls-11" d="M20.13,58.63c.03-.05,.06-.11,.08-.16,.06,.06,.12,.11,.18,.17-.04,.04-.07,.09-.11,.13-.05-.04-.1-.09-.15-.13Z"/>
      <path class="cls-10" d="M19.91,58.93s.07,.07,.11,.1c-.03,.02-.07,.03-.11,.04-.02-.02-.03-.03-.05-.05,0-.05,.01-.07,.06-.09Z"/>
      <path class="cls-16" d="M13.34,68.74s-.06-.04-.08-.07c.03-.05,.07-.11,.1-.16,.04,.05,.08,.09,.12,.14-.05,.03-.1,.06-.14,.09Z"/>
      <path class="cls-11" d="M26.44,52.51s.1-.06,.15-.09c.03,.04,.07,.07,.1,.11-.05,.03-.1,.07-.15,.1l-.09-.12Z"/>
      <path class="cls-3" d="M55.26,90.87c-.05,.12-.11,.24-.16,.35-.43,.49-.87,.99-1.3,1.48-1.03,.34-1.7,.12-2.49-.76-.32-.36-.43-.86-.82-1.16,0-.05,0-.11,.01-.16-.13-1.15-.31-2.3,0-3.44,.53-1.94,1.4-3.63,3.43-4.43,.5-.01,1-.03,1.44,.27,.42,.78,.37,1.69,.66,2.51,.65,1.76,.31,3.38-.68,4.91-.07,.1-.34,.22-.09,.41Z"/>
      <path class="cls-9" d="M68.55,75.4c-.06,2.1-.69,4.06-1.61,5.91-1.44,2.9-3.84,4.58-6.98,5.26-.02,0-.04,0-.06,.01-1.94,.33-2.12,.19-2.14-1.75,0-.85,0-1.71-.01-2.56,1.32,.36,2.58,.05,3.77-.46,2.35-1.01,4.17-2.7,5.73-4.7,.44-.57,.87-1.14,1.31-1.71Z"/>
      <path class="cls-9" d="M53.79,92.7c.43-.49,.87-.99,1.3-1.48,.02,.62-.41,1.06-.7,1.52-3.21,5.12-7.68,8.66-13.4,10.61-.3,.1-.66,.12-.85,.44-.02-.01-.04-.02-.06-.04-.08-.74-.15-1.48-.24-2.22-.05-.4,.05-.6,.51-.71,3.71-.84,7.06-2.43,10.02-4.85,.9-.59,1.68-1.33,2.44-2.08,.36-.36,.82-.67,.98-1.2Z"/>
      <path class="cls-15" d="M55.26,90.87c-.25-.19,.03-.31,.09-.41,.99-1.54,1.32-3.15,.68-4.91-.3-.81-.24-1.73-.66-2.51,.04-.09,.09-.18,.13-.27-.32-3.54-.07-7.12-.65-10.65,.02-.14-.03-.3,.13-.4,.5,2.02,.48,4.09,.59,6.15,.11,1.95-.03,3.91,.35,5.85,.15,.77,.35,1.54,.55,2.3,.48,1.84-.13,3.4-1.21,4.85Z"/>
      <path class="cls-11" d="M62.62,62.09c.05,.05,.1,.1,.16,.15-.33,.25-.66,.5-1,.74-.4,.27-.76,.54-.98,1.01-.25,.52-.79,.65-1.33,.72-.93,.12-1.59,.78-2.38,1.18-.11,.06-.09,.18-.12,.29-.24,1.07-1.08,1.48-2.13,1.03-.13-.15-.32-.1-.48-.14,.21-.12,.42-.24,.63-.35,2.07-1.16,4.18-2.25,6.1-3.66,.51-.32,1.03-.64,1.54-.96Zm-1.98,1.72c-.05,.03-.11,.07-.16,.1-.34,.05-.57,.26-.88,.54,.45-.02,.72-.2,.92-.49,.04-.05,.08-.1,.12-.15l.03-.05s-.02,.04-.02,.05Zm-5.62,3.19c.8,.38,1.52-.03,1.58-.88-.52,.29-1.04,.57-1.58,.88Z"/>
      <path class="cls-14" d="M54.36,67.07c.16,.04,.35-.02,.48,.14-.98,.14-1.11,.36-.81,1.2,.38,1.08,.76,2.17,.94,3.31-.16,.1-.1,.26-.13,.4-.2-.76-.39-1.51-.6-2.27-.36-1.26-.97-2.41-1.55-3.57,.14,.16,.4,.17,.48,.4,.22,.69,.65,.72,1.2,.38Z"/>
      <path class="cls-14" d="M50.51,106.12s-.1,.09-.14,.14c-.13-.8-.59-.8-1.17-.48-.31,.17-.5,.07-.59-.25-.16-.53-.45-.5-.82-.2-.1,.08-.23,.13-.33,.22-.33,.27-.6,.22-.78-.16-.25-.51-.53-.47-.88-.09-.2,.22-.39,.47-.7,.57h0c.08-.31,.32-.51,.54-.72,.61-.58,.7-.59,1.2,.08,.2,.27,.34,.24,.58,.07,.81-.57,.82-.56,1.4,.18,.19,.24,.35,.07,.52,0,.86-.4,1.11-.26,1.17,.66Z"/>
      <path class="cls-14" d="M42.73,106.73c-.62-.08-.54,.37-.63,.82-.21-.41-.28-.75-.09-.99,.2-.25,.45,0,.71,.17Z"/>
      <path class="cls-16" d="M40.08,103.76s.04,.03,.06,.04c0,.07,0,.14,0,.2-.02-.08-.04-.16-.06-.24Z"/>
      <path class="cls-14" d="M45.09,105.86s0,0,0,0c0,0,0,0,0,0Z"/>
      <path class="cls-5" d="M52.69,66.29c.58,1.16,1.19,2.31,1.55,3.57,.21,.75,.4,1.51,.6,2.27,.58,3.53,.33,7.1,.65,10.65-.63-.06-1.24-.48-1.9-.13-.38,0-.66,.23-.92,.46-1.84,1.71-2.79,3.79-2.56,6.33,.04,.41-.04,.9,.38,1.2,0,.05,0,.11-.01,.16,.33,1.38,1.17,2.22,2.68,2.4-.93,1.02-2.01,1.76-2.98,2.63-1.76,1.23-3.58,2.37-5.55,3.25-2.76,1.23-5.69,1.66-8.68,1.94-5.48,.52-10.44-1.09-15.23-3.49-.18-.09-.36-.16-.54-.24-1.4-.82-2.73-1.74-3.98-2.76-.42-.4-.84-.8-1.32-1.25,.6-.18,1.24-.02,1.72-.43,.29-.07,.5-.27,.7-.47,.91-.88,1.33-2.01,1.48-3.23,.3-2.47-.35-4.75-2.61-5.99-1.23-.67-2.4-.6-3.54,.29-.06,0-.12,0-.19,0,.01-.09,.02-.17,.03-.26,.49-2.3,.65-4.64,.74-6.99,.09-2.29,.11-4.61,.98-6.8,.33-.84,.79-1.61,1.18-2.42,.11-.43-.27-.52-.51-.66-1.75-1.04-3.45-2.15-5.02-3.46-.5-.42-.85-1.1-1.61-1.17-.03-.05-.06-.09-.08-.14,0-.21-.11-.33-.29-.4-.7-.87-1.14-1.89-1.7-2.84-2.15-3.54-1.92-7.44-1.64-11.33,.14-2.01,.42-4.02,1.1-5.94,.18-.5,.42-.97,.65-1.44,.2-.41,.34-.4,.62-.05,2.15,2.62,4.1,5.38,5.83,8.29,2.66,4.45,4.65,9.19,6.11,14.16,.12,.4,.1,.67-.27,.87-.33,.18-.62,.4-.75,.8,.33-.23,.65-.46,.98-.69l.95-.67c.08-.02,.17-.04,.24-.08,4.48-2.42,9.31-3.37,14.36-3.43,1.87-.02,3.72,.17,5.57,.37,.13,.03,.26,.06,.4,.1,.09,.01,.18,.02,.28,.03,1.33,.34,2.7,.56,3.99,1.08,1.2,.49,2.41,.98,3.38,1.94,1.02-1.57,2.27-2.92,3.45-4.33,2.25-2.25,4.57-4.42,7.1-6.36,3.87-2.97,8.01-5.44,12.58-7.16,1.07-.4,1.15-.34,.96,.77-.83,4.73-2.41,9.19-5.01,13.25-.45,.71-1.18,1.1-1.81,1.6-.86,.68-1.75,1.32-2.63,1.97-.51,.32-1.03,.64-1.54,.96-.21-.07-.38,.02-.56,.09-2.35,.94-4.78,1.62-7.27,2.09-.32,.06-.73-.08-.93,.2-.29,.4,.43,.48,.37,.85Zm-23.01,22.43c.06,.83,.27,1.64,.51,2.44,.63,2.13,1.38,4.21,2.91,5.9,1.28,1.42,2.52,1.41,3.77-.04,1.42-1.64,2.18-3.62,2.82-5.65,.58-1.43,.9-2.93,1.17-4.44,.07-.42,.17-.64,.65-.73,.78-.14,1.16-.48,1.32-.99-1.15,.85-2.39,.89-3.66,.49-1.05-.33-2.09-.67-3.11-1.07-.97-.38-1.87-.45-2.84,.08-1.06,.59-2.21,.95-3.42,1.14-1.02,.06-1.97-.12-2.73-.89,.29,.81,.98,.97,1.69,1.1,.46-.01,.63,.2,.64,.66,.02,.67,.11,1.34,.28,1.99Zm-7.79-14.35c-1.66-.51-3.38,.24-4.06,1.78-.75,1.67-.25,3.23,1.33,4.17,1.34,.8,3.11,.53,4.07-.62,1.05-1.25,1.09-3.12,.11-4.29-.33-.56-.82-.88-1.44-1.04Zm25.7-.26c-1.77-.02-3.05,1.24-3.1,3.05-.05,1.91,1.41,3.45,3.3,3.46,1.81,.01,3.19-1.37,3.2-3.22,.02-1.98-1.3-3.26-3.4-3.29Zm-12.29,6.44c-.51-.11-1-.06-1.5,.01-.11,.02-.24,.03-.27,.15-.04,.16,.11,.22,.22,.28,.59,.39,1.04,.27,1.55-.45Z"/>
      <path class="cls-7" d="M26.53,52.63c.05-.03,.1-.07,.15-.1,.13-.08,.27-.17,.4-.25,.08-.05,.16-.1,.25-.15,.14-.08,.28-.16,.41-.24,2.07-1.04,4.2-1.89,6.49-2.28,3.28-.56,6.56-.85,9.87-.2,.06,.01,.13,0,.2,0,.29,.07,.58,.19,.89,.13,.16,.05,.33,.11,.49,.16,.5,.33,1.1,.35,1.65,.52,2.22,.85,4.41,1.76,6.31,3.25,.09,.07,.18,.13,.29,.05h0c-.1,.2,.05,.23,.19,.28,.11,.11,.21,.27,.41,.12h0c.11,.46-.08,.77-.43,1.05-.65,.53-1.11,1.28-1.88,1.68-.05-.07-.1-.14-.16-.2-1.44-1.4-3.25-2.15-5.09-2.79-4.19-1.46-8.51-1.98-12.95-1.73-3.01,.17-5.91,.74-8.65,2.04-.14,.07-.31,.22-.44-.03,.03-.02,.05-.04,.07-.06,.19-.16,.37-.33,.56-.49,.2-.15,.4-.3,.6-.44,.12-.1,.25-.2,.37-.3Z"/>
      <path class="cls-1" d="M20.28,58.76s.07-.09,.11-.13c.85-.98,1.71-1.96,2.56-2.93,.06-.06,.11-.11,.17-.17,.47-.32,.93-.64,1.4-.96,.32-.14,.65-.27,.97-.42,2.38-1.08,4.88-1.72,7.48-1.94,3.48-.3,6.92-.07,10.34,.68,3.2,.7,6.3,1.61,8.77,3.93-.14,.44-.59,.65-.8,1.04-.19,.16-.34,.17-.55-.01-1.16-.95-2.54-1.51-3.92-2.06-.34-.14-.68-.31-1.03-.43-3.69-1.26-7.48-1.65-11.36-1.34-3.97,.32-7.7,1.43-11.2,3.34-.87,.41-1.68,.94-2.5,1.45-.19,.12-.36,.34-.64,.24,.07-.1,.15-.2,.22-.3Z"/>
      <path class="cls-15" d="M52.07,56.82c-2.47-2.32-5.57-3.23-8.77-3.93-3.42-.75-6.86-.99-10.34-.68-2.59,.23-5.1,.86-7.48,1.94-.32,.15-.64,.28-.97,.42-.17-.4,.2-.47,.4-.65,.13,.25,.3,.1,.44,.03,2.74-1.29,5.63-1.87,8.65-2.04,4.43-.25,8.75,.27,12.95,1.73,1.85,.64,3.65,1.4,5.09,2.79,.06,.06,.11,.14,.16,.2-.05,.06-.09,.12-.14,.18Z"/>
      <path class="cls-1" d="M54.53,53.92s0,0,0,0c-.06-.05-.12-.1-.17-.14-.11-.14-.21-.28-.42-.26,0,0,0,0,0,0-1.89-1.74-4.13-2.79-6.59-3.44-.05-.04-.11-.07-.16-.11,.05-.05,.1-.1,.15-.15,3.06,.68,6.03,1.58,8.67,3.35-.19,.41-.61,.58-.91,.89-.24,.24-.37-.09-.55-.14Z"/>
      <path class="cls-15" d="M46.8,55.8c1.38,.54,2.76,1.1,3.92,2.06,.21,.18,.37,.17,.55,.01,.05,.05,.1,.1,.15,.15-1.18,1.41-2.43,2.76-3.45,4.33-.98-.96-2.18-1.45-3.38-1.94-1.28-.52-2.65-.74-3.99-1.08,.18-.02,.38,.06,.52-.11,.95,.16,1.88,.4,2.79,.7,1.33,.43,2.63,.95,3.78,1.78,.11,.08,.25,.26,.37,.05,.09-.14-.08-.22-.18-.29-.15-.1-.29-.2-.44-.28-.92-.48-1.84-.96-2.77-1.44,.2-.08,.38,0,.57,.07,.92,.4,1.87,.77,2.69,1.36,.3,.21,.46,.17,.67-.12,.54-.72,1.1-1.42,1.66-2.12,.53-.67,.52-.66-.15-1.17-1.06-.8-2.29-1.27-3.47-1.85,.05-.04,.1-.08,.15-.12Z"/>
      <path class="cls-7" d="M46.65,55.91c1.18,.58,2.41,1.05,3.47,1.85,.68,.51,.68,.5,.15,1.17-.56,.7-1.13,1.4-1.66,2.12-.21,.29-.37,.33-.67,.12-.83-.59-1.77-.96-2.69-1.36-.18-.08-.37-.15-.57-.07,0,0,.01,0,.01,0,0-.14-.1-.19-.2-.22-1.11-.42-2.23-.76-3.4-.98-1.9-.35-3.81-.5-5.74-.57-1.78-.07-3.54,0-5.29,.33-.89,.16-1.78,.29-2.62,.65-.79,.17-1.53,.49-2.29,.77-1.9,.69-3.81,1.38-5.5,2.53-.27,.16-.38,.07-.52-.21-.43-.93-.03-1.62,.59-2.26,.06-.06,.13-.11,.2-.17,1.1-.68,2.2-1.36,3.31-2.03,.31-.12,.62-.22,.91-.37,2.69-1.34,5.5-2.26,8.48-2.7,2.93-.43,5.85-.41,8.77,.08,1.8,.3,3.54,.8,5.27,1.35Z"/>
      <path class="cls-11" d="M19.65,62.23c1.69-1.15,3.6-1.84,5.5-2.53,.76-.28,1.5-.6,2.29-.77,.08,.03,.15,.06,.23,.1-.5,.22-.03,.17,.05,.16,.73-.1,1.47-.23,2.2-.33,3.76-.51,7.5-.53,11.21,.35-.15,.17-.35,.09-.52,.11-.09-.01-.18-.02-.27-.03-.11-.13-.26-.1-.4-.1-1.85-.2-3.7-.39-5.57-.37-5.05,.07-9.88,1.01-14.36,3.43-.07,.04-.16,.05-.24,.08-.04-.04-.08-.07-.12-.11Z"/>
      <path class="cls-15" d="M23.22,57.55c-1.1,.68-2.2,1.36-3.31,2.03,0-.17,0-.35,0-.52,.04,0,.08-.01,.11-.04,0,0,.04,.03,.04,.03,.28,.1,.45-.12,.64-.24,.82-.51,1.63-1.04,2.5-1.45,0,.06,.01,.12,.02,.19Z"/>
      <path class="cls-14" d="M18.82,63c-.33,.23-.65,.46-.98,.69,.13-.41,.43-.62,.75-.8,.04,.11,.14,.1,.23,.11Z"/>
      <path class="cls-9" d="M66.79,87.71c-.72-.85-1.45-1.71-2.17-2.56-.15-.32,.14-.41,.3-.57,1.04-.98,1.99-2.04,2.53-3.38,.17-.41,.32-.39,.58-.1,.68,.74,1.3,1.53,1.84,2.38-.42,1.03-1.03,1.96-1.57,2.92,.02,.02,.02,.04,.01,.06-.51,.42-1.01,.84-1.52,1.25Z"/>
      <path class="cls-1" d="M68.3,86.39c.54-.97,1.15-1.89,1.57-2.92,1.51,2.08,2.99,4.17,3.64,6.7-.05,.03-.1,.05-.14,.08-.2-.33-.4-.66-.61-.99-.76-1.36-1.58-2.68-2.67-3.8-.11-.15-.21-.31-.47-.37,.08,.24,.18,.39,.35,.5,.97,1.21,1.83,2.5,2.65,3.81,.29,.77,.89,1.44,.79,2.33-.32,.23-.44,0-.61-.22-.57-.77-1.15-1.53-1.74-2.28-.09-.11-.13-.41-.41-.25,0,0,0,0,0,0-.06-.49-.31-.8-.8-.93,0,0,0,0,0,0,.13-.29-.15-.37-.27-.52-.29-.28-.43-.75-.92-.8h0c.06-.14,0-.19-.14-.13h0c.06-.23-.08-.24-.26-.22Z"/>
      <path class="cls-14" d="M70.09,85.46c1.09,1.13,1.91,2.44,2.67,3.8-.04,.05-.09,.1-.13,.15-.82-1.32-1.68-2.61-2.65-3.81,.04-.05,.08-.09,.12-.14Z"/>
      <path class="cls-6" d="M34.12,104.43c.07,2.07-.04,4.12-.36,6.17-.31,1.97-1.52,3.08-3.34,3.54-1.82,.46-3.58,.39-5.01-1.09-.11-.12-.3-.21-.23-.43,.63,0,.8-1.04,1.59-.73,.01,0,.07-.06,.07-.1,.14-.97,.64-.4,.99-.2,.36,.21,.63,.29,.86-.13,.16-.3,.39-.27,.67-.16,.3,.12,.54,.41,1,.42-.26-.35-.54-.51-.83-.65-.32-.15-.7-.32-.95,.05-.25,.37-.44,.26-.75,.11-.36-.18-.87-.58-1.07,.08-.21,.68-.9,.02-1.1,.51-.04,.1-.04,.22-.06,.32-.06,.26-.24,.2-.42,.16-2.92-3.47-5.56-7.12-7.61-11.18-1.09-2.16-1.9-4.43-2.53-6.77-.04-.15-.05-.3-.07-.45,.28-.07,.33,.18,.47,.3,0,.15,.09,.2,.22,.21,0,0,0,0,0,0,.06,.54,.48,.86,.81,1.23,2.02,2.22,4.38,4,6.96,5.53,3.3,1.96,6.85,3.04,10.68,3.26Zm-2.29,7.23c.27-.21,.53-.45,.82-.63,.13-.08,.24-.14,.14-.28-.1-.14-.24-.06-.34,.02-.27,.24-.53,.49-.61,.88Z"/>
      <path class="cls-3" d="M12,89.16c-.38-1.89-.14-3.71,.66-5.45,.83-.73,1.79-.91,2.82-.59,.92,.29,1.66,.86,2.22,1.66,.96,1.37,1,2.91,.82,4.48-.17,1.4-.71,2.61-1.91,3.44-1.71,.58-2.19,.24-2.98-.86-.61-.85-1.2-1.71-1.63-2.67Z"/>
      <path class="cls-9" d="M34.12,104.43c-3.82-.22-7.37-1.3-10.68-3.26-2.58-1.53-4.95-3.31-6.96-5.53-.33-.36-.75-.68-.81-1.23,.17,.11,.34,.21,.51,.32,1.19,1.04,2.48,1.92,3.86,2.68,3.42,1.93,7.02,3.33,10.94,3.84,.95,.12,1.91,.19,2.87,.28,.25,.95,.3,1.92,.27,2.89Z"/>
      <path class="cls-15" d="M16.61,92.7c1.21-.83,1.75-2.04,1.91-3.44,.19-1.57,.14-3.11-.82-4.48-.56-.8-1.3-1.37-2.22-1.66-1.03-.32-1.99-.14-2.82,.59,0-.09,0-.17,0-.26,1.14-.9,2.31-.97,3.54-.29,2.26,1.24,2.91,3.52,2.61,5.99-.15,1.22-.57,2.35-1.48,3.23-.21,.2-.41,.39-.7,.47,0-.05,0-.09-.01-.14Z"/>
      <path class="cls-14" d="M25.19,112.3c.17,.04,.36,.1,.42-.16,.02-.11,.02-.22,.06-.32,.2-.49,.89,.17,1.1-.51,.2-.66,.71-.26,1.07-.08,.3,.15,.5,.25,.75-.11,.25-.37,.63-.21,.95-.05,.29,.14,.57,.3,.83,.65-.46-.01-.7-.3-1-.42-.28-.11-.5-.15-.67,.16-.23,.42-.5,.35-.86,.13-.34-.21-.84-.77-.99,.2,0,.04-.06,.1-.07,.1-.78-.31-.95,.72-1.59,.73,0-.1,0-.2,0-.31Z"/>
      <path class="cls-14" d="M20.05,97.41c-1.38-.76-2.68-1.64-3.86-2.68,.01-.07,.02-.14,.03-.21,1.26,1.02,2.59,1.94,3.98,2.76-.05,.04-.1,.09-.15,.13Z"/>
      <path class="cls-9" d="M15.67,94.41c-.13,0-.22-.06-.22-.21,.07,.07,.15,.14,.22,.21Z"/>
      <path class="cls-5" d="M65.28,1.58c.17,1.45,.34,2.89,.51,4.34,.25,3.93,.4,7.87,.44,11.81,0,.63-.05,1.27-.04,1.9,0,.41-.12,.63-.58,.69-.69,.08-1.38,.25-2.06,.39-3.58,.49-7.13,1.19-10.65,2.02-2.11,.5-4.2,1.07-6.3,1.63-.73,.2-.74,.29-.2,.81,2.02,1.95,4.09,3.86,6.04,5.87,1.62,1.66,1.5,1.42-.51,2.01-3.61,1.06-7.19,2.23-10.7,3.6-.33,.13-.64,.28-.96,.42-.07,.03-.13,.11-.19,.16,.21,.34,.66,.29,.86,.6-.34,.02-.47,.11-.2,.43,.23,.27,.57,.47,.65,.89-.64,.04-1.2-.29-1.89-.3,.35,.46,.65,.85,1.04,1.35-.75-.15-1.35-.27-2.12-.42,.41,.54,.72,.97,1.1,1.48-.68-.09-1.26-.16-1.94-.25,.22,.28,.36,.46,.5,.65-2.66-.77-5.32-1.54-7.99-2.31-1.42-.41-2.85-.82-4.27-1.23-.55-.09-.32-.28-.06-.49,2.17-1.79,4.43-3.45,6.72-5.06,1.43-1.01,2.86-2.03,4.31-3.01,.43-.29,.37-.48,.07-.8-1.62-1.73-3.43-3.26-5.19-4.85-1.5-1.35-3.02-2.67-4.54-4-.57-.52-1.11-1.06-1.71-1.54-.39-.31-.37-.48,.03-.75,2.11-1.42,4.28-2.76,6.54-3.94,3.26-1.72,6.55-3.38,9.87-4.99,5.38-2.41,10.8-4.74,16.39-6.65,1.6-.54,3.21-1.03,4.85-1.46,.15-.04,.3-.06,.45-.09,1.36-.28,1.4-.25,1.72,1.09Z"/>
      <path class="cls-7" d="M38.1,41.66c-.14-.18-.29-.37-.5-.65,.67,.09,1.26,.16,1.94,.25-.38-.51-.7-.93-1.1-1.48,.76,.15,1.37,.27,2.12,.42-.39-.51-.69-.89-1.04-1.35,.69,0,1.24,.34,1.89,.3-.08-.42-.42-.62-.65-.89-.27-.32-.14-.41,.2-.43,0,0-.01,0-.01,0,.06,.16,.23,.14,.34,.2,.74,.08,1.31,.58,1.98,.83,.39,.14,.76,.33,1.14,.5,1.04,.55,2.09,1.1,3.13,1.66,.63,.34,.63,.42,.03,.8-2.23,1.43-4.47,2.85-6.71,4.27-.18,.12-.37,.23-.55,.36-.81,.57-.81,.65,.05,1.25,.26,.31,.53,.61,.91,1.05-1.36,0-2.55,0-3.74,0-.18,0-.28-.11-.37-.24-.48-.66-1.1-1.19-1.66-1.77-.23-.23-.34-.45-.1-.73,1.46-1.13,2.91-2.25,4.37-3.38,.3-.23,.24-.37-.1-.48-.52-.16-1.04-.34-1.56-.51Z"/>
      <path class="cls-5" d="M41.27,38.03c-.12-.07-.28-.04-.34-.2,.15,0,.32,0,.34,.2Z"/>
      <path class="cls-15" d="M50.19,95.83c.96-.87,2.05-1.61,2.98-2.63-1.51-.18-2.35-1.02-2.68-2.4,.39,.3,.5,.8,.82,1.16,.78,.88,1.46,1.1,2.49,.76-.16,.53-.62,.84-.98,1.2-.76,.75-1.54,1.5-2.44,2.08-.06-.05-.12-.11-.18-.16Z"/>
      <path class="cls-9" d="M8.27,61.71c.76,.07,1.11,.75,1.61,1.17,1.57,1.31,3.27,2.42,5.02,3.46,.24,.14,.61,.23,.51,.66-.65,.35-.76,1.08-1.14,1.62-.11,.16-.09,.46-.41,.42-.12-.13-.25-.26-.37-.38-.04-.05-.08-.09-.12-.14-.1-.12-.2-.24-.3-.36-1.45-1.91-2.9-3.82-4.34-5.73-.17-.22-.37-.43-.45-.71Z"/>
      <path class="cls-15" d="M12.5,83.19c-.01,.09-.02,.17-.03,.26-.08-.1-.08-.18,.03-.26Z"/>
      <path class="cls-9" d="M47.33,49.82s-.1,.1-.15,.15c-.51,0-.97-.33-1.5-.26-.16-.05-.33-.11-.49-.16,.76-.24,1.44,.08,2.13,.28Z"/>
      <path class="cls-1" d="M66.79,87.71c.51-.42,1.01-.84,1.52-1.25,.08,.06,.16,.11,.24,.17h0c0,.09,.04,.14,.14,.13,0,0,0,0,0,0,.16,.4,.5,.65,.79,.94,.11,.15,.17,.35,.4,.38,0,0,0,0,0,0,.19,.37,.41,.72,.8,.93,0,0,0,0,0,0,.43,.87,1.17,1.51,1.7,2.31,.17,.25,.4,.47,.47,.79-.42,.16-.72-.12-1.02-.29-1.38-.77-2.64-1.72-3.79-2.81-.16-.15-.33-.29-.49-.43-.04-.04-.09-.09-.13-.13-.04-.04-.09-.09-.13-.13-.04-.04-.09-.09-.13-.13-.04-.04-.09-.09-.13-.13-.04-.04-.08-.09-.13-.13-.03-.06-.06-.13-.09-.19Z"/>
      <path class="cls-9" d="M7.89,61.16c.18,.07,.3,.19,.29,.4-.1-.09-.19-.18-.29-.27,0-.05,0-.09,0-.14Z"/>
      <path class="cls-15" d="M50.5,90.63c-.42-.3-.34-.79-.38-1.2-.23-2.54,.72-4.62,2.56-6.33,.25-.24,.54-.46,.92-.46,.11,.04,.22,.08,.33,.12-2.02,.79-2.89,2.49-3.43,4.43-.31,1.14-.13,2.29,0,3.44Z"/>
      <path class="cls-14" d="M53.92,82.76c-.11-.04-.22-.08-.33-.12,.66-.35,1.27,.07,1.9,.13-.04,.09-.09,.18-.13,.27-.44-.31-.94-.28-1.44-.27Z"/>
      <path class="cls-9" d="M52.69,66.29c.06-.37-.66-.45-.37-.85,.2-.28,.61-.14,.93-.2,2.49-.47,4.91-1.15,7.27-2.09,.18-.07,.36-.17,.56-.09-1.92,1.41-4.03,2.5-6.1,3.66-.21,.12-.42,.23-.63,.35-.55,.34-.97,.31-1.2-.38-.07-.23-.34-.24-.48-.4Z"/>
      <path class="cls-7" d="M55.02,67c.54-.3,1.05-.58,1.58-.88-.06,.85-.78,1.26-1.58,.88Z"/>
      <path class="cls-8" d="M60.53,63.95c-.21,.29-.47,.47-.92,.49,.3-.27,.54-.49,.88-.54,0,0,.05,.05,.05,.05Z"/>
      <path class="cls-8" d="M60.64,63.81s-.08,.1-.12,.15c0,0-.05-.04-.05-.05,.05-.03,.11-.07,.16-.1h0Z"/>
      <path class="cls-8" d="M60.65,63.81s.02-.04,.02-.05c0,.02-.02,.03-.03,.05,0,0,0,0,0,0Z"/>
      <path class="cls-12" d="M47.58,74.11c2.1,.03,3.42,1.3,3.4,3.29-.02,1.85-1.39,3.23-3.2,3.22-1.88-.01-3.35-1.54-3.3-3.46,.05-1.81,1.33-3.07,3.1-3.05Zm-.66,.38c-.91-.01-1.59,.65-1.6,1.55-.01,.87,.65,1.52,1.55,1.53,.89,0,1.54-.66,1.55-1.6,.01-.86-.6-1.46-1.5-1.48Z"/>
      <path class="cls-12" d="M23.32,75.41c.99,1.18,.94,3.04-.11,4.29-.96,1.15-2.72,1.42-4.07,.62-1.58-.94-2.08-2.5-1.33-4.17,.69-1.53,2.4-2.28,4.06-1.78-.05,.04-.09,.08-.14,.12-.63,.03-1.17,.23-1.43,.85-.25,.58-.2,1.16,.18,1.68,.43,.58,1.18,.77,1.82,.5,.73-.31,1.05-1.02,.88-1.97,.04-.05,.09-.1,.13-.14Z"/>
      <path class="cls-10" d="M29.8,85.85c1.2-.19,2.36-.56,3.42-1.14,.96-.53,1.86-.46,2.84-.08,1.02,.4,2.06,.74,3.11,1.07,1.27,.4,2.51,.36,3.66-.49-.16,.51-.54,.85-1.32,.99-.47,.09-.57,.31-.65,.73-.27,1.51-.58,3.01-1.17,4.44-.07,0-.14-.01-.21-.02l.23-1.03c.42-1.08,.44-1.1-.38-1.77-1.74-1.44-3.78-1.77-5.95-1.46-1.29,.19-2.54,.54-3.5,1.51-.06,.04-.13,.09-.19,.13-.17-.65-.26-1.32-.28-1.99-.01-.46-.19-.68-.64-.66,.31-.26,.74,.05,1.05-.22Zm10.35,2.8c.22-.66,.29-1.33,.39-1.99,.03-.2-.02-.28-.21-.31-1.73-.34-3.31-1.13-4.99-1.63-.51-.15-1.03-.14-1.54,.09-1.22,.55-2.42,1.14-3.77,1.3-.1,.01-.25,.06-.28,.14-.24,.56-.11,1.17,.1,1.66,.15,.34,.53-.13,.82-.21,.17-.04,.31-.15,.48-.22,2.79-1.21,5.48-1.12,8.06,.59,.3,.2,.54,.52,.94,.59Z"/>
      <path class="cls-15" d="M39.47,91.35c.07,0,.14,.01,.21,.02-.64,2.03-1.41,4.01-2.82,5.65-1.25,1.45-2.49,1.45-3.77,.04-1.52-1.69-2.28-3.76-2.91-5.9-.23-.8-.45-1.6-.51-2.44,.06-.04,.13-.09,.19-.13,.08,.4,.15,.8,.23,1.19,.34,1.73,.98,3.36,1.78,4.93,.5,.98,1.09,1.91,1.95,2.63,.82,.68,1.48,.7,2.3,.04,.61-.49,1.04-1.12,1.43-1.78,.79-1.35,1.35-2.79,1.91-4.24Z"/>
      <path class="cls-10" d="M35.29,80.54c-.51,.72-.96,.84-1.55,.45-.1-.07-.25-.13-.22-.28,.03-.12,.16-.14,.27-.15,.49-.07,.98-.12,1.5-.01Z"/>
      <path class="cls-14" d="M29.8,85.85c-.31,.26-.74-.04-1.05,.22-.7-.14-1.4-.29-1.69-1.1,.77,.76,1.71,.95,2.73,.89Z"/>
      <path class="cls-16" d="M23.32,75.41s-.09,.1-.13,.14c-.33-.56-.85-.86-1.45-1.06,.05-.04,.09-.08,.14-.12,.62,.16,1.11,.48,1.44,1.04Z"/>
      <path class="cls-15" d="M39.94,59.2c.14,0,.29-.03,.4,.1-.13-.03-.26-.06-.4-.1Z"/>
      <path class="cls-11" d="M47.34,50.07c2.46,.65,4.7,1.71,6.59,3.44-.11,.07-.21,.01-.29-.05-1.89-1.49-4.09-2.39-6.31-3.25,0-.05,0-.1,0-.14Z"/>
      <path class="cls-15" d="M47.34,50.07s0,.1,0,.14c-.55-.16-1.15-.18-1.65-.52,.53-.07,.98,.27,1.5,.27,.05,.04,.11,.07,.16,.11Z"/>
      <path class="cls-11" d="M53.93,53.52c.2-.02,.31,.12,.42,.26-.08,0-.15,.02-.23,.02-.13-.05-.28-.08-.19-.28Z"/>
      <path class="cls-10" d="M54.12,53.8c.08,0,.15-.02,.23-.02,.06,.05,.12,.1,.17,.14-.19,.15-.29,0-.41-.12Z"/>
      <path class="cls-11" d="M23.22,57.55c0-.06-.01-.12-.02-.19,3.5-1.9,7.23-3.02,11.2-3.34,3.88-.31,7.67,.08,11.36,1.34,.35,.12,.69,.29,1.03,.43-.05,.04-.1,.08-.15,.12-1.73-.55-3.48-1.05-5.27-1.35-2.92-.48-5.84-.51-8.77-.08-2.97,.44-5.79,1.36-8.48,2.7-.29,.15-.61,.25-.91,.37Z"/>
      <path class="cls-1" d="M41.13,59.21c-3.71-.88-7.45-.87-11.21-.35-.74,.1-1.47,.23-2.2,.33-.08,.01-.55,.06-.05-.16,.91-.2,1.81-.4,2.72-.61,.22-.01,.44,0,.66-.04,3.12-.39,6.22-.26,9.31,.27,1.47,.26,2.89,.71,4.33,1.07,0,0-.01,0-.01,0,.92,.48,1.85,.96,2.77,1.44,.15,.08,.3,.18,.44,.28,.11,.07,.27,.15,.18,.29-.13,.21-.26,.03-.37-.05-1.15-.83-2.44-1.35-3.78-1.78-.91-.29-1.84-.53-2.79-.7Z"/>
      <path class="cls-15" d="M44.69,59.73c-1.44-.35-2.86-.81-4.33-1.07-3.09-.54-6.19-.67-9.31-.27-.22,.03-.44,.03-.66,.04-.12-.02-.25-.02-.33-.14,1.75-.33,3.51-.39,5.29-.33,1.93,.07,3.84,.21,5.74,.57,1.17,.22,2.29,.56,3.4,.98,.1,.04,.21,.08,.2,.22Z"/>
      <path class="cls-14" d="M30.06,58.28c.08,.12,.21,.12,.33,.14-.91,.2-1.81,.4-2.72,.61-.08-.03-.15-.06-.23-.1,.84-.36,1.73-.49,2.62-.65Z"/>
      <path class="cls-14" d="M68.56,86.62c-.08-.06-.16-.11-.24-.17,0-.02,0-.04-.01-.06,.17-.02,.32-.01,.26,.23Z"/>
      <path class="cls-14" d="M69.48,87.69c-.29-.29-.63-.54-.79-.94,.49,.06,.62,.52,.92,.8-.04,.05-.08,.09-.13,.14Z"/>
      <path class="cls-16" d="M70.67,88.99c-.39-.2-.61-.55-.8-.93,.48,.12,.74,.44,.8,.93Z"/>
      <path class="cls-16" d="M69.48,87.69s.08-.09,.13-.14c.13,.16,.4,.23,.27,.52-.23-.03-.29-.23-.4-.38Z"/>
      <path class="cls-14" d="M69.98,85.59c-.17-.11-.27-.27-.35-.5,.26,.05,.36,.22,.47,.37-.04,.04-.08,.09-.12,.13Z"/>
      <path class="cls-14" d="M68.69,86.75c-.1,0-.14-.04-.14-.14,.15-.06,.2-.01,.14,.14Z"/>
      <path class="cls-15" d="M31.83,111.66c.08-.4,.34-.65,.61-.88,.1-.08,.24-.16,.34-.02,.1,.14-.01,.19-.14,.28-.29,.18-.55,.42-.82,.63Z"/>
      <path class="cls-4" d="M46.92,74.49c.9,.01,1.51,.62,1.5,1.48-.02,.94-.66,1.61-1.55,1.6-.9,0-1.56-.66-1.55-1.53,.01-.9,.7-1.57,1.6-1.55Z"/>
      <path class="cls-4" d="M21.75,74.49c.6,.2,1.12,.5,1.45,1.06,.17,.95-.15,1.66-.88,1.97-.64,.27-1.39,.08-1.82-.5-.39-.52-.43-1.09-.18-1.68,.26-.62,.81-.82,1.43-.85Z"/>
      <path class="cls-2" d="M39.47,91.35c-.56,1.45-1.12,2.9-1.91,4.24-.39,.67-.82,1.3-1.43,1.78-.82,.66-1.49,.64-2.3-.04-.86-.72-1.45-1.65-1.95-2.63-.8-1.56-1.44-3.19-1.78-4.93,3.31-1.76,6.51-1.67,9.6,.53l-.23,1.03Z"/>
      <path class="cls-13" d="M40.15,88.65c-.4-.08-.64-.39-.94-.59-2.58-1.71-5.27-1.8-8.06-.59-.16,.07-.31,.18-.48,.22-.29,.07-.67,.55-.82,.21-.22-.49-.34-1.09-.1-1.66,.03-.07,.18-.13,.28-.14,1.35-.16,2.56-.75,3.77-1.3,.51-.23,1.03-.24,1.54-.09,1.67,.5,3.26,1.29,4.99,1.63,.19,.04,.24,.11,.21,.31-.1,.67-.17,1.33-.39,1.99Z"/>
      <path class="cls-8" d="M39.7,90.32c-3.09-2.2-6.29-2.3-9.6-.53-.08-.4-.15-.8-.23-1.19,.97-.97,2.22-1.32,3.5-1.5,2.16-.31,4.21,.02,5.95,1.46,.82,.68,.8,.7,.38,1.77Z"/>
    </g>
  </g>
</svg>