<?xml version="1.0" encoding="UTF-8"?>
<svg id="Capa_2" data-name="Capa 2" xmlns="http://www.w3.org/2000/svg" viewBox="0 0 99.74 100.42">
  <defs>
    <style>
      .cls-1 {
        fill: #f3f3f3;
      }

      .cls-2 {
        fill: #f8d225;
      }

      .cls-3 {
        fill: #695f41;
      }

      .cls-4 {
        fill: #e9538f;
      }

      .cls-5 {
        fill: #ffd626;
      }

      .cls-6 {
        fill: #e5392c;
      }

      .cls-7 {
        fill: #a31937;
      }

      .cls-8 {
        fill: #be3218;
      }

      .cls-9 {
        fill: #e19a1d;
      }

      .cls-10 {
        fill: #12110f;
      }

      .cls-11 {
        fill: #6e170f;
      }

      .cls-12 {
        fill: #554d37;
      }

      .cls-13 {
        fill: #472e12;
      }

      .cls-14 {
        fill: #5d5019;
      }

      .cls-15 {
        fill: #4d432c;
      }
    </style>
  </defs>
  <g id="Capa_1-2" data-name="Capa 1">
    <g>
      <path class="cls-10" d="M44.82,25.06c-.15-.13-.31-.26-.46-.4-.26-.46-.6-.84-1.12-1.04-.21-.11-.37-.28-.49-.48,.01-.14-.05-.23-.2-.24-.04-.02-.06-.04-.06-.09-.17-.47,.05-.64,.51-.75,.29-.07,.66,.03,.87-.28,.12-.02,.25-.03,.37-.05,.23,.11,.45,.21,.61-.09,.08,0,.17-.02,.25-.02,.16,.14,.32,.13,.47-.01,.86-.01,1.72-.07,2.58,.04,.3,.31,.64,.18,.98,.1,.12,0,.25,.02,.37,.02,.06,.21,.24,.16,.4,.18,.64,.08,1.28,.16,1.91,.26,.28,.04,.55,.12,.61,.45,0,.13,0,.25,0,.38-.17,.23,0,.4,.12,.57,.01,.05,.02,.1,.03,.15-.02,.08-.02,.15,.07,.2,.02,.05,.03,.11,.05,.16,.02,.06,.04,.13,.05,.19l.07,.17c-.02,.08-.01,.15,.07,.19,.02,.05,.04,.11,.06,.16-.02,.09,0,.16,.08,.2,.01,.05,.03,.1,.04,.14-.02,.1,0,.17,.1,.22v.03c.02,.27,.03,.54,.32,.69,.02,.05,.04,.1,.06,.15-.01,.03,0,.06,.03,.07l.11,.25c-.01,.25,.03,.48,.31,.6,.85,1.25,1.65,2.54,2.64,3.7l.1,.12,.02,.02s.06,.07,.09,.1l.03,.03s.06,.06,.09,.09l.03,.03s.05,.06,.08,.09c.03,0,.04,.02,.04,.05,0,.04,.01,.06,.05,.06,.03,.04,.06,.08,.09,.11-.03,.16-.08,.24-.28,.18-.2-.07-.42-.1-.62-.15-.07-.02-.14-.04-.21-.07-.35-.27-.71-.52-1.2-.48-.17-.09-.35-.18-.52-.27-.05-.14-.16-.16-.29-.13-.39-.11-.71-.36-1.06-.55-.04-.18-.16-.21-.32-.15-.1-.05-.2-.1-.29-.15-.04-.12-.13-.15-.25-.13-.04-.01-.08-.03-.12-.04-.24-.36-.62-.47-1.03-.53-.69-.31-1.31-.72-1.92-1.16-.09-.23-.29-.28-.51-.29-.07-.03-.15-.06-.22-.1-.04-.13-.13-.17-.26-.15-.24-.08-.43-.24-.6-.41-.02-.15-.11-.2-.25-.19-.08-.05-.16-.1-.24-.16-.02-.15-.11-.22-.26-.2-.03-.02-.07-.04-.1-.06-.02-.15-.12-.2-.27-.18-.07-.05-.15-.11-.22-.16-.02-.16-.12-.22-.28-.19-.07-.05-.14-.11-.21-.16,0-.16-.1-.23-.26-.21-.15-.05-.27-.13-.36-.26,0-.17-.1-.23-.27-.21Z"/>
      <path class="cls-10" d="M86.57,.22c.52,.52,.9,1.13,1.22,1.78,.12,.53,.24,1.06,.67,1.46,.03,.06,.05,.13,.08,.19-.04,.14,0,.24,.15,.29,.16,.24,.27,.5,.34,.78-.05,.14-.01,.24,.14,.29,.06,.12,.12,.24,.17,.36,0,.53,.29,.98,.44,1.47,.07,.24,.05,.57,.4,.67,.04,.01,.07,.04,.07,.08,0,.28-.34,.35-.39,.6,0,0-.02,.02-.02,.02-.16,0-.23,.09-.21,.24-.06,.08-.12,.16-.18,.24-.03,.03-.05,.06-.08,.09-.14,.17-.28,.34-.42,.51-.02,.03-.05,.06-.07,.08l-.02,.03s-.06,.08-.09,.11c-1.07,1.72-2.05,3.49-2.77,5.38-.09,.24-.26,.53-.1,.82-.16,.03-.26,.08-.1,.24,0,.08-.01,.16-.02,.23-.16,.12,0,.38-.22,.48,0-.1-.02-.19-.03-.29,.04-.31,.13-.62-.09-.9-.02-.17-.04-.33-.06-.5,.11-.25,.16-.49-.08-.7-.03-.24-.05-.48-.08-.72,.12-.29,.23-.58-.09-.83-.01-.28-.03-.56-.04-.84,.15-.24,.17-.48-.03-.71-.13-.48-.08-.96-.06-1.44,.12-.11,.12-.22,0-.33-.04-.44-.07-.89,.05-1.32,.22-.27,.18-.55,.04-.83,.01-.24,.02-.48,.04-.72,.34-.28,.19-.62,.11-.95,.02-.16,.03-.32,.05-.48,.26-.16,.19-.37,.09-.59-.04-.13,0-.25,.06-.37,.2-.15,.14-.35,.1-.54,0-.06,.02-.12,.02-.18,.12-.06,.15-.14,.03-.23,.02-.12,.04-.24,.06-.36,.2-.09,.21-.21,.07-.36,.02-.08,.04-.16,.06-.24,.18-.08,.21-.2,.08-.36,.02-.08,.03-.16,.05-.24,.19-.1,.17-.25,.12-.41,0-.06,0-.13,.01-.19,.34-.19,.05-.75,.54-.86Z"/>
      <path class="cls-12" d="M97.49,53.19c-.81,.97-1.74,1.82-2.74,2.62-1.21,.97-2.49,1.83-3.98,2.61,.58,.28,1.04,.52,1.52,.73,.64,.27,1.3,.52,1.82,.97,.72,.64,1.58,.55,2.43,.56,.65,0,.78,.17,.55,.76-.14,.34-.11,.55,.24,.72,.14,.07,.27,.18,.4,.27,.74,.56,.73,.71-.12,1.05-.26,.1-.38,.22-.16,.47,.09,.1,.15,.24,.21,.36,.16,.37,.13,.64-.4,.58-.45-.05-.65,.05-.44,.54,.19,.43-.02,.6-.46,.5-.52-.12-.81,.07-.95,.56-.08,.26-.24,.48-.57,.43-1.64-.22-3.15,.31-4.7,.68-1.77,.42-3.54,.79-5.36,.97-.81,.08-1.61,.23-2.42,.25-.22,0-.32,.11-.45,.25-3.07,3.55-6.65,6.56-10.42,9.37-1.43,1.06-2.9,2.07-4.37,3.07-.22,.15-.37,.36-.51,.58-1.05,1.67-1.94,3.45-3.33,4.9-.95,1-2.01,1.84-3.41,2.19-.02-.05-.04-.1-.06-.15,0-.03,0-.07,0-.1,.63-.27,1.22-.61,1.78-1,2.02-1.41,3.15-3.48,4.33-5.51,.02-.05,.07-.11,.05-.13-.06-.07-.13-.03-.19,.01-.5,.3-1.01,.61-1.52,.9-.12,.07-.28,.16-.36-.03-.06-.14,.08-.2,.18-.27,.64-.39,1.29-.78,1.93-1.17,2.44-1.5,4.75-3.17,7.01-4.92,1.73-1.34,3.36-2.79,5.01-4.22,.12-.01,.21-.06,.23-.19,0-.04,.02-.07,.07-.06,.06-.05,.12-.09,.18-.14h-.01s.09-.08,.13-.12h0s.09-.09,.14-.15c0-.04,.03-.07,.07-.07,.09-.02,.15-.08,.17-.17,.06-.06,.12-.12,.17-.18l.09-.09,.03-.03s.06-.06,.09-.08c.05-.05,.11-.11,.16-.16,.03-.03,.06-.06,.09-.1l.02-.02s.07-.07,.11-.1c0,0,.02-.02,.02-.02,.04-.04,.07-.07,.11-.11,0,0,.01-.01,.01-.01l.11-.11h.01c.04-.05,.07-.09,.11-.13h0s.08-.09,.12-.13h0s.08-.08,.12-.12h0s.08-.08,.13-.12h0s.08-.08,.13-.12h0c.1-.02,.13-.09,.15-.18,.05-.05,.1-.11,.14-.16,.03-.04,.06-.08,.09-.12,.14-.16,.28-.32,.42-.48,.32-.11,.14-.38,.2-.58,.12,0,.24,0,.36-.01,.97,.09,1.92,0,2.86-.29,.05,0,.1,.02,.15,.02,.69-.1,1.41,0,2.05-.37,.05,0,.11,0,.16,.01,.06-.03,.13-.06,.19-.09,.18-.01,.36-.03,.54-.04,.14,.03,.27,.02,.33-.14,.12-.02,.24-.05,.36-.07,.25,.19,.43-.01,.62-.12h0c.17-.01,.36,.05,.49-.12h0c.13,0,.27,.02,.37-.1l.05-.03h.05c.4,.02,.78-.01,1.12-.24h0c.14,.01,.29,.04,.38-.1h0c1.06-.03,2.11-.34,3.18-.27,.04,0,.09-.07,.14-.1,.23-.53,.3-1.19,1.21-.99,.3,.07,.14-.27,.09-.4-.15-.44-.05-.65,.47-.58,.45,.07,.58-.06,.33-.48-.37-.6-.34-.66,.34-.9,.12-.04,.29-.03,.35-.21-.24-.28-.55-.47-.87-.63-.4-.2-.56-.42-.28-.83,.2-.31,.14-.54-.31-.49-1.08,.12-2-.21-2.83-.87-.28-.22-.64-.35-.97-.51-2.05-.96-4.13-1.82-6.33-2.42,.36-.12,.71,.32,1.07,0,.93,.15,1.8,.52,2.67,.84,.24,.09,.44,.15,.69,.02,2.44-1.27,4.55-2.92,6.4-4.91,.15,0,.29,0,.44,.01Z"/>
      <path class="cls-12" d="M30.85,34.61c.01,.1,.02,.2-.07,.28-.02-.03-.05-.05-.08-.07,0-.2,0-.39,0-.59v-.02c.16-.09,.13-.22,.11-.36,.02-.1,.02-.2,.06-.29,1.36-3.68,2.82-7.33,4.32-10.96,.97-2.36,2.03-4.68,3.13-6.99,.2-.43,.24-.6-.39-.54-3.52,.29-6.99,.88-10.45,1.49-4.2,.74-8.32,1.77-12.38,3.02-2.44,.75-4.88,1.48-7.27,2.37-.12,0-.23,0-.35,0-.05-.03-.09-.07-.14-.1,.02-.04,.05-.05,.09-.04,.11,.01,.22,0,.27-.11,1.28-.58,2.62-.99,3.96-1.43,4.36-1.42,8.76-2.7,13.27-3.59,3.86-.77,7.73-1.48,11.66-1.84,.69-.06,1.38-.09,2.08-.13,.32-.02,.45,.07,.28,.42-1.92,3.94-3.54,8-5.2,12.05-.97,2.37-1.79,4.8-2.76,7.17-.14,.05-.15,.15-.13,.27Z"/>
      <path class="cls-13" d="M48.3,51.08c.41-.01,.82-.02,1.23-.03,.24,.15,.49,.15,.73,0,1.27,0,2.55,0,3.82,0,.57,.13,.65,.07,.49-.43-.24-.73-.66-1.41-.6-2.22,.27,.72,.55,1.44,.82,2.16,.09,.23,.18,.42,.52,.38,.74-.09,1.49-.14,2.24-.21,1.45-.11,2.86-.43,4.24-.85,.57-.17,1.18-.31,1.63-.74,.13-.09-.24-.48,.23-.36v.02c0,.12-.01,.23,.08,.33,.09,.2,.18,.4,.26,.6,.02,.06,.01,.16-.02,.22-.05,.08-.17,.07-.21,0-.32-.44-.5-.08-.69,.11-1.42,1.41-2.62,3-3.92,4.5-.53,.62-1.15,1.13-1.84,1.56-.34,.21-.73,.32-1.09,.06-.34-.24-.36-.6-.28-.97,.12-.59,.3-1.15,.55-1.7,.31-.67,.61-1.34,.91-2.02,.08-.18,.16-.36-.17-.35-1.44,.06-2.8,.15-3.88,1.36-1.23,1.38-2.51,2.72-3.78,4.07-.43,.46-.93,.84-1.54,1.05-.69,.23-1.15-.07-1.15-.77,0-.31,.05-.64,.14-.94,.31-.99,.65-1.96,1.11-2.9,.27-.55,.66-1.03,1.01-1.63h-.8c-.24,0-.5-.08-.72,.08-.13,.01-.26,.03-.39,.04-.21,0-.43-.07-.6,.1h-.05c-.15,.02-.31-.03-.43,.1-.06,.01-.12,.03-.18,.04-.19-.05-.12-.09,0-.16,.17-.11,.43,0,.54-.22,.08-.01,.17-.03,.25-.04,.23,.08,.46,.18,.61-.12,.08-.01,.16-.02,.25-.03,.27,.11,.53,.23,.74-.1Zm5.8,.3c-1.48,0-2.81,0-4.14,0-.32,0-.48,.19-.63,.4-.54,.7-.99,1.45-1.31,2.28-.32,.82-.61,1.64-.79,2.5-.06,.26-.05,.54,.18,.72,.25,.2,.52,.04,.74-.08,.48-.27,.88-.62,1.27-1.02,1.51-1.57,2.87-3.27,4.68-4.79Zm8.19-1.11c-1.43,.23-2.75,.64-4.13,.78-.16,.02-.24,.13-.3,.26-.58,1.18-1.16,2.36-1.53,3.63-.09,.3-.24,.71,.13,.93,.34,.2,.66-.04,.95-.24,.77-.52,1.35-1.2,1.93-1.89,.98-1.16,1.97-2.31,2.96-3.47Z"/>
      <path class="cls-12" d="M53.96,48.4c-.05,.8,.37,1.49,.6,2.22,.16,.5,.08,.56-.49,.43,.18-.08,.55,.05,.36-.39-.82-1.85-1.14-3.84-1.72-5.76-.42-1.39-.82-2.79-1-4.23-.05-.44-.42-.67-.67-.97-.39-.47-.37-.64,.21-.86,.41-.15,.74-.23,.52-.79-.12-.32,.18-.48,.5-.54,.28-.05,.51-.08,.36-.48-.14-.36,.09-.56,.48-.57,.25,0,.49-.02,.74,0,.25,.01,.39-.03,.49-.3,.22-.61,.61-.73,1.19-.35,.39,.26,.67,.26,1.08,.01,.76-.46,.97-.36,1.08,.52,.13,.98,.87,1.52,1.51,2.09,1.23,1.1,2.3,2.35,3.43,3.53,.09,.09,.16,.29,.32,.19,.1-.06,.16-.24,.16-.36-.02-.42-.04-.83,.09-1.23,.15,.13,.08,.31,.1,.47-.1,1.85-.17,3.71-.19,5.56-.06-.69-.04-1.39-.07-2.08-.02-.53,.13-1.07-.09-1.58l-.15-.23-.11-.13h0c0-.11-.04-.2-.15-.23h.01s-.08-.08-.13-.12h0s-.09-.08-.13-.12l-.23-.27s-.05-.06-.08-.09c-.03,0-.04-.02-.04-.04-.01-.02-.03-.04-.05-.06l-.46-.46c-.04-.05-.08-.1-.12-.16-.92-.99-1.86-1.95-2.88-2.83-.59-.51-1.03-1.07-1.09-1.85-.03-.38-.25-.45-.52-.23-.52,.44-.99,.4-1.51,0-.3-.23-.59-.17-.64,.27-.04,.38-.25,.5-.63,.44-.22-.03-.45,0-.67-.02-.27,0-.41,.11-.29,.36,.28,.6-.06,.67-.55,.68-.19,0-.52,.05-.37,.32,.35,.63,0,.8-.53,.91-.45,.09-.39,.3-.13,.57,.37,.38,.55,.84,.65,1.37,.2,1.09,.39,2.19,.82,3.22,.02,.14,.04,.27,.06,.41,.24,1.1,.63,2.17,.79,3.29,.02,.17-.07,.37,.13,.5h0Z"/>
      <path class="cls-13" d="M31.78,45.6c.03-.11,.06-.22,.09-.33,.13,.06,.19,.16,.19,.29-.03,.05-.06,.1-.09,.15-.01,.07-.02,.14-.03,.21,0,.07,0,.14,0,.21,0,.04,0,.08,0,.12v.02s-.06,.02-.05,.03c0,.03,.02,.05,.04,.08-.55,1.63-1.03,3.28-1.32,4.98-.09,.51,.31,.41,.6,.37,2.33-.36,4.64-.82,6.95-1.27,.78-.16,.93-.04,.91,.76-.03,1.14,.11,2.28,.16,3.51,.61-.45,1.15-.86,1.69-1.26,.11-.08,.11-.21,.12-.32,.25-1.8,.39-3.61,.76-5.38,.09-.44-.11-.45-.4-.4-.88,.14-1.79,.15-2.65,.39-.8,.23-1.64,.32-2.42,.62-.17,.07-.38,.12-.52-.03-.13-.14,.01-.3,.06-.44,.13-.38,.31-.74,.4-1.12,.12-.48,.57-.83,.56-1.35h0c.14-.03,.15-.13,.14-.25,.08-.08,.15-.16,.23-.25,.11,.03,.21,.06,.32,.09-.35,.75-.7,1.5-1.04,2.26-.08,.17-.21,.39-.07,.55,.15,.16,.38,.02,.57-.02,1.02-.24,2.03-.56,3.08-.66,.09,.12,.17,.08,.24-.03,.14,0,.28-.02,.43-.03,.28,.02,.56,.12,.81-.1,.26,0,.57-.22,.74,.17-.33,.86-.54,1.74-.45,2.66-.02,.37-.03,.75-.15,1.11-.18,.1-.18,.22-.04,.36,0,.2,.04,.4-.06,.59-.23,.13-.2,.3-.07,.48,.09,.28-.29,.64,.15,.85,0,.08,0,.16,0,.24-.86,.59-1.71,1.18-2.46,1.9-.04,.04-.08,.08-.13,.11h0s-.08,.07-.12,.11h-.01c-.11,.02-.19,.05-.19,.18h0c-.09-.02-.19-.03-.28-.05,.18-.37-.09-.32-.32-.34-.63-.07-1.29,.17-1.91-.13,.71-.1,1.42-.07,2.13-.05,.35,0,.47-.11,.44-.44-.04-.59-.05-1.18-.08-1.77,.13-.36,.16-.71-.04-1.06-.02-.25-.05-.5-.05-.75,0-.24-.07-.37-.33-.35-.11-.13-.19-.08-.24,.05-.24,.13-.51,.11-.77,.14-.13-.04-.24-.04-.33,.07-.09,.02-.19,.03-.28,.05-.13-.05-.25-.06-.33,.08-.15,.09-.32,.11-.49,.1-.11-.14-.19-.1-.25,.04-.24,.12-.51,.12-.77,.14-.12-.04-.24-.04-.33,.07-.09,.02-.19,.03-.28,.05-.21-.02-.43-.14-.58,.11-.09,.01-.17,.03-.26,.04-.4-.17-.74,.03-1.09,.17-.1,.01-.19,.02-.29,.03-.17-.03-.34-.07-.46,.1-.09,.06-.18,.08-.28,.02-.17-.04-.34-.1-.46,.1-.16,.03-.33,.05-.49,.08-.07-.11-.14-.22-.22-.33,.03-.12,.06-.24,.08-.36,.19-.1,.14-.26,.12-.42,0-.06,0-.12,.01-.18,.3-.59,.38-1.23,.47-1.86-.08-.1-.06-.19,.01-.28,.12-.06,.16-.13,.05-.24,.2-.89,.43-1.78,.8-2.63,.15-.06,.15-.18,.12-.31Z"/>
      <path class="cls-15" d="M85.54,16.7c.22-.1,.06-.36,.22-.48,.38,2.95,1.06,5.83,2.34,8.55,.27,.57,.59,.97,1.27,.97-.17,.23-.42,.09-.63,.14-2.03-.54-4.09-.8-6.19-.77-1.23,.01-2.44,.17-3.65,.29-.16,0-.33-.05-.46,.09-.05,.01-.11,.02-.16,.03-.64-.07-1.25,.1-1.84,.28-.61,.18-1.28,.16-1.82,.56h-.02c-.13,0-.27-.02-.35,.13h0c-.24-.02-.45,.04-.61,.22h-.03c-.07,.04-.14,.07-.21,.1-.13,.05-.26,.1-.4,.15-.07,.03-.15,.06-.22,.09l-.05,.02c-.22,0-.42,.07-.57,.23h-.03c-.07,.04-.14,.07-.21,.1-.04,.01-.08,.03-.12,.04-.35-.02-.63,.12-.86,.36h0c-.11-.01-.2,0-.24,.12h0s-.08,.05-.13,.08l-.04,.02c-.07,.04-.14,.07-.2,.11h-.03c-.1,.01-.18,.04-.22,.14h0s-.08,.06-.12,.08c-.02,.04-.06,.05-.1,.05-.05,.03-.1,.07-.15,.1-.17,.27,.17,.28,.24,.43l-.33,.15h-.03s-.01-.03-.01-.03c-.03-.02-.07-.05-.1-.07l-.02-.02s-.08-.06-.13-.09c-.09-.07-.17-.14-.26-.21-.03-.2-.16-.28-.35-.27h0c-.06-.17-.18-.25-.36-.24h0c-.25-.36-.66-.46-1.06-.57h-.04c-.04-.12-.13-.15-.25-.14h0c-.04-.1-.12-.13-.22-.13h-.02c-.07-.17-.2-.25-.38-.23-.04-.02-.08-.04-.12-.07-.04-.02-.07-.04-.11-.06h0c-.04-.1-.13-.13-.23-.12-.09-.04-.17-.09-.26-.13-.04-.09-.12-.11-.22-.11l-.03-.02c-.07-.04-.14-.07-.2-.11l-.04-.02s-.09-.05-.13-.08h0c-.24-.24-.51-.39-.87-.36-.16-.03-.04-.18-.1-.25h0c.84,.13,1.57,.55,2.28,.96,.91,.53,1.9,.93,2.74,1.57,.18,.13,.28,.06,.43-.03,2.98-1.71,6.21-2.68,9.61-3.22,2.78-.44,5.54-.42,8.29,.16,.56,.12,.54-.09,.35-.47-.7-1.48-1.34-2.98-1.63-4.59-.21-1.14-.61-2.26-.55-3.44Z"/>
      <path class="cls-12" d="M14.91,35.09c-2.28,.83-4.49,1.79-6.65,2.88-.3,.15-.42,.07-.57-.19-2.22-3.68-4.44-7.35-6.67-11.02-.29-.48-.61-.94-.92-1.41-.17-.26-.13-.44,.14-.58,.29-.15,.57-.32,.87-.44,2.06-.85,4.03-1.93,6.21-2.49,.05,.03,.09,.07,.14,.1,0,.04,0,.08,0,.12h-.02c-.14,0-.28-.03-.35,.13h-.01c-.24-.02-.48-.05-.61,.22h-.03c-.13,0-.27-.01-.35,.13-1.73,.77-3.45,1.55-5.19,2.3-.48,.21-.45,.4-.21,.79,1.1,1.77,2.15,3.56,3.24,5.33,1.22,2,2.46,3.98,3.68,5.97,.39,.72,.38,.7,1.11,.37,1.16-.54,2.32-1.07,3.5-1.56,.76-.32,1.49-.75,2.34-.81,.07,.12,.21,.13,.33,.16Z"/>
      <path class="cls-15" d="M32.06,45.56c0-.13-.07-.23-.19-.29,.12-.36,.23-.72,.36-1.07,.1-.29,.12-.46-.3-.34-2.27,.65-4.56,1.2-6.81,1.91-1.04,.33-2.11,.59-3.18,.87-.42,.11-.6,.03-.48-.47,.37-1.51,.69-3.04,1.03-4.56,.1-.07,.13-.14,.03-.22,.02-.08,.05-.16,.07-.24,.13-.06,.17-.13,.05-.23,.02-.08,.04-.16,.06-.24,.15,.03,.17,.16,.22,.27-.03,.15-.05,.3-.08,.45-.11,.05-.12,.12-.03,.21-.02,.09-.04,.19-.06,.28-.04,.04-.07,.08-.11,.12-.08,1.24-.41,2.43-.66,3.64-.14,.67-.15,.69,.54,.49,2.31-.65,4.63-1.31,6.94-1.97,.96-.27,1.92-.56,2.88-.83,.25-.07,.69-.21,.5,.3-.24,.65-.38,1.33-.75,1.93Z"/>
      <path class="cls-15" d="M14.91,35.09c-.12-.04-.25-.04-.33-.16,.68-.4,1.45-.63,2.18-.9,2.56-.94,5.16-1.75,7.84-2.34,.53-.12,.62,.07,.5,.51-.56,2.07-1.11,4.14-1.66,6.2-.15,.09-.12,.22-.1,.35-.01,.08-.03,.16-.04,.24-.13,.09-.11,.22-.09,.35,0,.04-.01,.08-.02,.13-.07,.11-.14,.23-.22,.37-.03-.13-.04-.22-.06-.32,.01-.1,.02-.21,.03-.31,.02,0,.05-.02,.05-.02,0-.03-.02-.06-.02-.09,0-.34,.13-.64,.22-.96,.12-.08,.12-.18,.08-.3,.29-1.62,.79-3.19,1.21-4.78,.08-.3,.33-.66,.1-.89-.23-.24-.62,.01-.91,.09-2.75,.74-5.49,1.54-8.13,2.62-.21,.08-.42,.14-.64,.21Z"/>
      <path class="cls-13" d="M97.49,53.19c-.15,0-.29,0-.44-.01-.11-.1-.21-.19-.32-.29-.01-.04-.04-.06-.08-.07l-.04-.03s-.06-.06-.08-.08c-.03,0-.04-.02-.04-.04,0-.03-.02-.05-.05-.06-.03-.04-.06-.08-.1-.12l-.09-.13-.02-.02s-.04-.06-.06-.1c-.03-.02-.05-.04-.04-.08-.03-.05-.06-.1-.09-.15-.55-1.14-.48-2.35-.35-3.55,.16-1.42,.57-2.83,1.73-3.75,.67-.54,.77-.98,.54-1.66-.01-.04,0-.08,0-.12-.04-.6-.08-1.19-.13-1.79,.05,0,.1,0,.14,.01,.01,.14,.03,.27,.04,.41-.07,.16-.1,.32,.09,.43,.02,.12,.03,.24,.05,.36-.11,.13-.1,.25,.05,.34,.25,1.31,.81,2.53,1.11,3.83-.02,.07-.05,.14,.04,.19,.18,.06,.16,.2,.12,.34,.11,.77,.07,1.53,0,2.3,.01,.13,.04,.26-.04,.37-.13,.07-.15,.17-.09,.3-.04,.24-.11,.46-.26,.65-.13,.05-.16,.15-.13,.27-.05,.21-.15,.4-.31,.57-.17,.03-.21,.13-.19,.28-.19,.26-.38,.53-.57,.79-.11,.04-.22,.07-.33,.11,.04-.11,.05-.24,.12-.33,.84-1.1,1.46-2.29,1.66-3.66,.13-.35,.12-.7,0-1.05-.15-.8-.42-1.57-.76-2.31-.12-.26-.06-.69-.41-.73-.37-.04-.58,.32-.8,.58-.05,.06-.1,.13-.14,.19-1.03,1.5-1.37,3.17-1.24,4.93,.06,.83,.19,1.66,.89,2.28,.24,.21,.43,.26,.69,.09-.03,.17-.06,.34-.09,.5h0Z"/>
      <path class="cls-15" d="M41.72,70.13c-1.86-1.92-3.63-3.9-4.63-6.41-.43-1.08-.69-2.2-.64-3.36,.02-.49-.18-.68-.63-.7-.65-.03-1.3,.03-1.93-.19-.16-.15-.35-.1-.54-.07-.11,.05-.21,.04-.32-.02-.13-.24-.45-.02-.62-.22,.11-.04,.21-.08,.3-.11,.36,.03,.72,.06,1.08,.09,.03,.06,.06,.07,.09,0,.72,.03,1.42,.25,2.17,.21,.34-.02,.36-.06,.42-.31,.1-.42,.25-.83,.38-1.25,.04-.13,.11-.3,.28-.26,.24,.06,.14,.24,.09,.39-1.07,3.29,.05,6.12,2,8.74,.88,1.18,1.89,2.28,2.84,3.41l-.35,.04Z"/>
      <path class="cls-15" d="M56.38,31.61c.21,.05,.42,.09,.62,.15,.19,.06,.25-.03,.28-.18,2.76,1.29,5.69,2.02,8.68,2.57,.64,.1,1.27,.21,1.91,.31,.15,.03,.4,0,.39,.19,0,.25-.27,.19-.43,.17-.82-.1-1.64-.22-2.46-.34-.26-.1-.36,.03-.44,.24-.67,1.68-.97,3.45-1.38,5.19v.37s0,0,0,0c-.04,0-.08,0-.12,0h-.01c-.03-.25,.09-.5-.09-.71,.02-.16,.04-.32,.06-.48,.17-.07,.18-.15,.02-.25,.2-1.33,.53-2.63,1.05-3.88,.27-.66,.24-.7-.46-.86-2.59-.59-5.1-1.4-7.53-2.42-.03-.01-.05-.06-.07-.09Z"/>
      <path class="cls-12" d="M97.99,41.13s-.1,0-.14-.01c-.04-.15-.1-.3-.11-.45-.02-1.24-.17-2.47-.15-3.71,.01-.55-.04-1.12-.23-1.66,0-.04-.01-.08-.02-.12,.04-.42-.07-.81-.24-1.18v-.02c.01-.13,.02-.26-.11-.35-.74-2.03-1.48-4.05-3.23-5.53-.11-.09-.3-.29-.01-.35,.34-.07,.29-.29,.28-.49,0-.93-.02-1.87-.03-2.8,0-.28,.11-.58-.09-.84v-.04s0-.05-.01-.07c0-.12-.01-.24-.02-.37,.03-.31-.05-.63-.05-.93,0-.57-.39-1.13-.05-1.71,0,.06,.02,.11,.03,.17-.03,.15-.07,.31,.09,.42,.1,.17,0,.35,.03,.53-.02,.19-.1,.39,.1,.54,.09,.17,.08,.34,.03,.52-.02,.19-.13,.41,.11,.56,.24,1.45,.28,2.92,.21,4.38-.02,.38,.08,.66,.34,.96,1.49,1.72,2.39,3.7,2.78,5.91-.02,.19-.12,.4,.1,.55,.08,.11,.09,.24,.07,.37-.13,.16-.12,.31,.02,.45,.05,.28,.18,.56,.08,.86-.1,.55-.17,1.1,.05,1.65,.02,.53,.05,1.05,.07,1.58-.09,.28-.14,.55,.05,.81,0,.12,.01,.24,.02,.36Z"/>
      <path class="cls-12" d="M52.43,22.65c-.06-.33-.33-.41-.61-.45-.64-.09-1.28-.17-1.91-.26-.15-.02-.34,.02-.4-.18,2.73,.25,5.4,.75,8.01,1.56,1.71,.53,3.44,.99,5.07,1.73,.49,.22,.96,.48,1.43,.72,0,0,0,0,0,0-.35,.18-.66,.05-.97-.09-3.17-1.44-6.54-2.29-9.93-3.06-.23-.05-.48-.16-.7,.04Z"/>
      <path class="cls-15" d="M51.17,89.78c-.25-.67-.57-1.32-.61-2.05,.05-.2,.16-.41-.09-.57-.02-.37-.13-.7-.38-.99,0-.09-.03-.16-.13-.18h.03s-.03,0-.03,0c.05-.22-.04-.34-.27-.37-.07-.11-.13-.23-.2-.34,.03-.19-.06-.33-.24-.4,0,0-.02-.03-.02-.03,0-.09-.03-.15-.11-.19-.6-.87-.85-1.87-1.05-2.88,.07-.06,.06-.13,.04-.21-.23-.91-.46-1.83-.69-2.75,0-.09,.01-.17,.02-.26,0,0,.04,0,.04,0h.04c.04,.13,.1,.26,.13,.39,.4,1.45,.74,2.93,1.22,4.36,.77,2.34,2.52,3.94,4.55,5.29,.14,.09,.41,.18,.28,.38-.13,.21-.33,0-.48-.07-.16-.08-.31-.2-.46-.29-.67-.41-1.2-.99-1.83-1.46-.12,.15-.06,.26-.04,.37,.13,1.08,.61,2.06,.96,3.08-.21,.03-.25-.22-.43-.24-.02-.08-.05-.16-.07-.24,.02-.02,.03-.05,.05-.07-.03,0-.06,0-.09,0,0,0,0-.01,0-.01,.06-.15,.03-.25-.14-.28Z"/>
      <path class="cls-15" d="M25.77,55.37c.08,.02,.17,.03,.25,.05-.14,.27-.41,.07-.6,.16,0,0-.02,0-.02,0-.12-.19-.3-.12-.47-.12h-.02c-.23-.18-.47-.22-.7,0,0,.27,.24,.34,.42,.46,.73,.48,1.57,.7,2.39,1,.09,.03,.17,.06,.26,.08,.04,0,.08,0,.11,.03,.07,.11,.27,.12,.22,.31-.53-.12-1.05-.24-1.58-.36,.69,.43,1.46,.57,2.23,.75,.42,.1,.98-.09,1.23,.45-.17,.01-.34,.03-.52,.04,0,.02,0,.05,0,.07,.67,.17,1.33,.33,2,.5,.14,.15,.31,.11,.48,.09h.02c-.06,.17-.28,.1-.38,.22-.35,.02-.67-.08-.99-.19-.08-.14-.2-.14-.33-.08-1.25-.23-2.4-.69-3.51-1.28-.86-.46-1.75-.84-2.29-1.69-.19-.29-.37-.57,.14-.73,.22,.06,.45,.07,.67-.01,.26,.06,.52,.13,.77,.19,.05,.11,.12,.17,.23,.06Zm2.8,2.74s0,.03,.02,.03c.02,0,.04,.01,.06,0,.06-.02,.05-.04-.02-.05-.02,0-.04,0-.06,.01Z"/>
      <path class="cls-12" d="M89.86,8.21c.05-.25,.39-.32,.39-.6,.46,.55,.56,1.24,.79,1.88,1.04,2.85,1.69,5.81,2.4,8.75,.02,.09,.02,.2,.03,.29-.01,.18-.03,.37-.04,.55-.23-.14-.01-.45-.25-.58v-.02c0-.12,.02-.25-.1-.34-.36-1.4-.74-2.81-1.09-4.21-.45-1.84-1.01-3.64-1.69-5.41-.08-.2-.12-.45-.45-.31Z"/>
      <path class="cls-3" d="M25.41,55.58c.19-.09,.47,.11,.6-.16,1.83,.24,3.66,.27,5.5,.23,1.29-.02,2.54-.29,3.82-.42,.3-.03,.6-.09,.9-.04,.62,.3,1.27,.06,1.91,.13,.23,.03,.5-.03,.32,.34-.03,0-.07,0-.1,0-.04-.31-.29-.21-.48-.22-.92-.04-1.84,.03-2.75,.17-2.27,.36-4.55,.5-6.84,.36-.97-.06-1.95-.13-2.89-.41Z"/>
      <path class="cls-12" d="M37.51,45c-.11-.03-.21-.06-.32-.09,.01-.05,.03-.11,.04-.17,.28-.27,.42-.63,.57-.97,.88-1.99,1.95-3.87,3.06-5.75,.2-.33,.43-.65,.7-1.06h-1.39s-.1,0-.14,0c-.27,0-.54,0-.81,.01-.3,0-.59-.02-.89-.02h0s0-.1,0-.15c.13-.01,.26-.03,.39-.04,.33,.09,.66,.19,.96-.07,.24-.11,.5-.07,.75-.06,.4,.13,.81,.14,1.21-.01,.36-.04,.62,0,.33,.43-1.67,2.42-2.97,5.03-4.25,7.65-.05,.1-.13,.2-.2,.3-.03-.02-.06-.03-.09-.05,.03,.02,.06,.03,.08,.05h0Z"/>
      <path class="cls-15" d="M57.8,98.13c.02,.08,.05,.16,.07,.24-.16,.14-.07,.19,.08,.23,.16,.41,.02,.76-.23,1.09-.11,.11-.08,.25-.07,.38-.06,.12-.14,.22-.29,.23-.51,.02-.99-.12-1.47-.24l.03-.03s-.02,.03-.02,.03c.02-.1,.03-.19,.05-.29,.25,.04,.43,.31,.77,.21-.03-.31-.22-.55-.36-.8-.4-.69-.82-1.37-1-2.16-.03-.14-.14-.35,.06-.42,.22-.07,.24,.17,.27,.31,.25,1.06,1,1.9,1.39,2.9,.03,.09,.08,.2,.2,.18,.16-.03,.16-.17,.14-.28-.02-.14-.06-.27-.12-.4-.25-.56-.53-1.11-.77-1.68-.09-.2-.4-.48-.13-.62,.32-.16,.27,.29,.41,.45,.22,.26,.18,.69,.64,.87-.09-.4-.16-.74-.23-1.08,.04-.08,.03-.14-.05-.19-.01-.09-.03-.19-.04-.28,0-.14,0-.28,0-.42,.02-.01,.03-.03,.05-.04,.25,.59,.26,1.26,.65,1.79Z"/>
      <path class="cls-15" d="M35.37,37.26c.06-.03,.12-.07,.18-.1,.2,.03,.4,.11,.56-.09,.14-.07,.29-.07,.44-.02,.19,.03,.4,.09,.55-.1,.06,0,.12-.02,.18-.02,.16,0,.32,0,.47,.01,.04,0,.09,0,.13-.01,.15,.01,.29,.03,.44,.04,0,0,0,0,0,0,0,.04,0,.08,0,.12-.08,0-.16,.02-.24,.02-.79,0-1.58,.04-2.33,.32-1.94,.29-3.86,.62-5.75,1.13-.5,.14-.65,0-.51-.48,.18-.6,.34-1.21,.51-1.82,.23-.05,.19-.22,.17-.38,0-.04,0-.08,.03-.11,.16,.11,.1,.3,.18,.44-.12,.65-.5,1.24-.45,1.99,1.3-.34,2.6-.66,3.93-.84,.46-.07,.93-.08,1.39-.11,.02,.07,.06,.09,.11,.02Z"/>
      <path class="cls-12" d="M41.72,70.13c.12-.01,.23-.03,.35-.04,.31,.31,.65,.6,.94,.93,1.1,1.22,2.28,2.37,3.2,3.73-.31,.25,.06,.53-.04,.78-.81-1.78-2.38-2.99-3.61-4.45-.27-.32-.62-.57-.83-.95Z"/>
      <path class="cls-15" d="M53.21,95.98c-.07-.12-.08-.25-.04-.39,.04-.17,.08-.34-.11-.46-.01-.03-.03-.07-.03-.1,0-.01,.02-.03,.03-.05,.02-.17,.1-.35-.14-.44-.02-.08-.04-.16-.06-.24,.01-.01,.04-.04,.04-.04-.02-.03-.04-.05-.07-.08-.02-.05-.03-.1-.05-.14,.03-.09,0-.16-.06-.21-.12-.32-.24-.64-.35-.96,.08-.08,.03-.1-.05-.1-.11-.08-.12-.19-.12-.3,.02-.12,.03-.24-.11-.31-.03-.08-.05-.17-.08-.25,.13-.12,.07-.18-.06-.23-.02-.08-.05-.16-.07-.24,.16-.23,.01-.35-.17-.45,0,0,0,0,0,0,.03-.12,.07-.23,.19-.29,.53,1.22,.94,2.48,1.36,3.73,.13,1.04,.27,2.08,.77,3.03,.44,.85,1.17,1.47,1.77,2.19-.13,0-.26,.01-.4,.02-.54-.54-1.1-1.07-1.47-1.74-.18-.68-.41-1.34-.72-1.97Z"/>
      <path class="cls-15" d="M57.07,94.07c.09,.15,.07,.32,.06,.48-.31,.6,.14,1.18,.02,1.78-.02,.01-.03,.03-.05,.04-.03-.01-.05-.02-.08,0-.01-.06-.03-.12-.04-.18,.02-.15,.02-.3-.08-.43-.08-1.29-.16-2.57-.24-3.86,0-.41,0-.83-.03-1.24-.02-.25,.03-.53-.19-.72-.1-.09-.29-.12-.19-.3,.08-.15,.25-.1,.39-.11,.81-.04,1.6-.19,2.39-.35,.11,0,.24,.01,.32-.1,.05-.01,.1-.03,.14-.04,.04,.01,.08,.02,.11,.02,0,.04,0,.07,0,.11-.12,.07-.25,.15-.37,.22-.11,.08-.23,.15-.38,.12-.05-.07-.09-.05-.11,.02-.09,.02-.18,.05-.27,.07-.11-.11-.18-.06-.24,.05-.09,0-.18,.02-.27,.03-.25,0-.53-.18-.71,.14-.09,.01-.19,.03-.28,.04-.32,.19-.3,.39-.02,.6,.07,.28,.07,.56,.04,.84-.21,.87-.07,1.75-.07,2.63,0,.04,.09,.07,.14,.11Z"/>
      <path class="cls-12" d="M41.65,53.42c0-.08,0-.16,0-.24,1.43-1.04,3.06-1.56,4.81-1.82-.11,.22-.37,.12-.54,.22-.11,.07-.19,.11,0,.16-1.02,.33-2.08,.58-3.04,1.07-.41,.21-.75,.54-1.23,.61Z"/>
      <path class="cls-13" d="M46.16,75.53c.11-.26-.26-.54,.04-.78,.69,.82,1.21,1.72,1.5,2.74-.03,.09-.04,.24-.09,.26-.12,.05-.14-.08-.18-.17-.15-.37-.19-.8-.46-1.11-.05,.02-.1,.04-.15,.07,.19,.51,.37,1.02,.56,1.54,.02,.05,.03,.11,.05,.16-.01,0-.03,.02-.04,.02,.02,.02,.04,.03,.06,.05,0,.04,.02,.08,.03,.12-.01,.05-.03,.09-.04,.14,0,.09-.01,.17-.02,.26-.04,0-.08,0-.12,0-.02-.05-.03-.1-.05-.16,.03-.08,0-.15-.07-.2-.01-.06-.03-.11-.04-.17,.04-.14,.03-.25-.13-.31-.15-.36-.33-.72-.36-1.12-.01-.25,0-.52-.28-.67-.07-.22-.14-.44-.22-.65Z"/>
      <path class="cls-3" d="M93.42,19.08c.01-.18,.03-.37,.04-.55,.23,.64,.32,1.31,.33,1.98-.33,.57,.06,1.14,.05,1.71,0,.3,.08,.62,.05,.93-.25-1.06-.32-2.15-.46-3.23,.31-.28,.13-.56,0-.83h0Z"/>
      <path class="cls-12" d="M57.15,96.33c.12-.59-.33-1.18-.02-1.78,.12,1.21,.38,2.39,.67,3.57-.4-.54-.4-1.21-.65-1.79Z"/>
      <path class="cls-3" d="M31.09,59.1c.09-.12,.31-.05,.38-.22,.28,0,.56,.02,.83,.03,.14,.05,.28,.1,.42,.14-.09,.03-.19,.07-.3,.11,.18,.19,.49-.03,.62,.22-.67,0-1.31-.1-1.95-.28Z"/>
      <path class="cls-12" d="M57.07,94.07s-.13-.07-.14-.11c0-.88-.14-1.76,.07-2.63,.12,.91,.18,1.82,.07,2.74Z"/>
      <path class="cls-12" d="M47.3,78.81s.08,0,.12,0c.23,.92,.46,1.83,.69,2.75,.02,.08,.02,.15-.04,.21-.26-.99-.51-1.98-.77-2.97Z"/>
      <path class="cls-12" d="M41.81,49.8c-.09-.93,.12-1.8,.45-2.66-.15,.89-.3,1.78-.45,2.66Z"/>
      <path class="cls-3" d="M22.92,39.53c.02,.09,.04,.19,.06,.32,.08-.14,.15-.25,.22-.37,0,.5-.1,.99-.31,1.45-.05-.11-.07-.24-.22-.27,.02-.39,.04-.78,.24-1.14Z"/>
      <path class="cls-3" d="M99.5,49.34c.06-.77,.11-1.53,0-2.3,.35,.76,.31,1.53,0,2.3Z"/>
      <path class="cls-12" d="M43.87,21.77c-.21,.31-.58,.21-.87,.28-.45,.11-.68,.29-.51,.75-.45-.45-.42-.64,.14-.8,.4-.11,.81-.24,1.24-.24Z"/>
      <path class="cls-12" d="M90.18,7.52c-.34-.1-.32-.43-.4-.67-.15-.49-.45-.94-.44-1.47,.42,.66,.54,1.44,.84,2.14Z"/>
      <path class="cls-12" d="M53.21,95.98c.31,.63,.54,1.29,.72,1.97-.43-.59-.64-1.25-.72-1.97Z"/>
      <path class="cls-15" d="M30.8,49.05c-.09,.64-.17,1.28-.47,1.86,.1-.64,.13-1.29,.47-1.86Z"/>
      <path class="cls-12" d="M43.24,23.62c.51,.2,.86,.58,1.12,1.04-.45-.27-.78-.66-1.12-1.04Z"/>
      <path class="cls-3" d="M30.39,36.21c-.07-.14-.02-.33-.18-.44,.02-.25,.07-.5,.22-.71,.02,.09,.05,.17,.07,.26,.06-.04,.12-.09,.18-.13-.08,.35-.11,.71-.3,1.03Z"/>
      <path class="cls-12" d="M86.57,.22c-.49,.1-.2,.67-.54,.86-.08-.3,.07-.57,.13-.84,.09-.39,.26-.24,.41-.02Z"/>
      <path class="cls-3" d="M97.85,38.39c-.21-.54-.14-1.1-.05-1.65,.07,.55,.12,1.1,.05,1.65Z"/>
      <path class="cls-12" d="M88.46,3.47c-.43-.4-.55-.93-.67-1.46,.34,.44,.48,.96,.67,1.46Z"/>
      <path class="cls-12" d="M55.89,100.06c.48,.13,.96,.26,1.47,.24-.54,.21-1.03,.14-1.47-.24Z"/>
      <path class="cls-3" d="M41.64,36.63c-.4,.16-.8,.14-1.21,.01,.4-.09,.8-.08,1.21-.01Z"/>
      <path class="cls-15" d="M51.07,29.12c.41,.06,.79,.17,1.03,.53-.41-.06-.73-.29-1.03-.53Z"/>
      <path class="cls-15" d="M38.7,51.87c.2,.35,.16,.7,.04,1.06-.09-.35-.07-.71-.04-1.06Z"/>
      <path class="cls-15" d="M32.3,51.87c.35-.15,.69-.34,1.09-.17-.35,.14-.71,.2-1.09,.17Z"/>
      <path class="cls-15" d="M54.97,31.06c.48-.03,.84,.21,1.2,.48-.44-.06-.82-.27-1.2-.48Z"/>
      <path class="cls-12" d="M49.14,21.73c-.34,.08-.68,.21-.98-.1,.33-.03,.67-.08,.98,.1Z"/>
      <path class="cls-3" d="M39.68,36.7c-.3,.26-.63,.16-.96,.07,.32-.02,.64-.05,.96-.07Z"/>
      <path class="cls-15" d="M85.22,5.62c.08,.33,.23,.66-.11,.95-.03-.32-.03-.64,.11-.95Z"/>
      <path class="cls-15" d="M85.12,12.76c.33,.24,.21,.54,.09,.83-.13-.27-.13-.55-.09-.83Z"/>
      <path class="cls-15" d="M85.42,15.5c.22,.28,.13,.59,.09,.9-.18-.29-.13-.59-.09-.9Z"/>
      <path class="cls-3" d="M97.97,40.77c-.19-.26-.14-.53-.05-.81,.13,.26,.09,.53,.05,.81Z"/>
      <path class="cls-15" d="M85.08,7.28c.15,.28,.19,.56-.04,.83-.09-.28,0-.55,.04-.83Z"/>
      <path class="cls-12" d="M41.53,46.97c-.24,.22-.53,.12-.81,.1,.25-.15,.53-.15,.81-.1Z"/>
      <path class="cls-12" d="M50.25,51.05c-.24,.15-.49,.15-.73,0,.24-.08,.49-.06,.73,0Z"/>
      <path class="cls-12" d="M48.3,51.08c-.2,.32-.47,.21-.74,.1,.25-.03,.49-.07,.74-.1Z"/>
      <path class="cls-15" d="M85.04,11.21c.21,.23,.19,.47,.03,.71-.05-.23-.1-.47-.03-.71Z"/>
      <path class="cls-12" d="M63.32,39.59c.18,.21,.06,.47,.09,.7-.05,0-.1,0-.15,0-.03-.24-.08-.48,.05-.71Z"/>
      <path class="cls-15" d="M85.28,14.3c.24,.21,.19,.45,.08,.7-.11-.23-.1-.46-.08-.7Z"/>
      <path class="cls-12" d="M97.59,52.68c.11-.04,.22-.07,.33-.11-.08,.24-.21,.46-.42,.62,.03-.17,.06-.34,.09-.5h0Z"/>
      <path class="cls-12" d="M51.9,90.71c-.13,.06-.16,.17-.19,.29-.18-.17-.21-.4-.27-.62,.18,.02,.22,.27,.43,.24,.03,.02,.04,.06,.04,.09Z"/>
      <path class="cls-12" d="M44.85,21.63c-.16,.3-.39,.2-.61,.09,.19-.11,.4-.13,.61-.09Z"/>
      <path class="cls-12" d="M57.27,89.85c.18-.33,.46-.15,.71-.14-.22,.14-.46,.15-.71,.14Z"/>
      <path class="cls-12" d="M55.4,99.69c.13,0,.26-.01,.4-.02,0,0,0,0,0,0,.04,.04,.09,.08,.13,.12h0c-.02,.08-.03,.18-.05,.28-.23-.04-.38-.18-.49-.38Z"/>
      <path class="cls-15" d="M85.36,4.55c.11,.21,.17,.42-.09,.59-.03-.2-.01-.4,.09-.59Z"/>
      <path class="cls-12" d="M56.96,90.49c-.27-.21-.3-.41,.02-.6,0,.2-.02,.4-.02,.6Z"/>
      <path class="cls-12" d="M47.31,51.2c-.15,.29-.38,.19-.61,.12,.18-.14,.39-.16,.61-.12Z"/>
      <path class="cls-15" d="M30.11,51.87c.07,.11,.14,.22,.22,.33-.3,0-.34-.05-.22-.33Z"/>
      <path class="cls-12" d="M46.38,76.18c.27,.15,.27,.41,.28,.67-.19-.18-.21-.43-.28-.67Z"/>
      <path class="cls-3" d="M37.1,36.95c-.15,.19-.35,.13-.55,.1,.16-.14,.35-.17,.55-.1Z"/>
      <path class="cls-3" d="M36.11,37.07c-.16,.19-.36,.12-.56,.09,.17-.14,.37-.12,.56-.09Z"/>
      <path class="cls-12" d="M45.58,21.6c-.15,.14-.31,.15-.47,.01,.16-.08,.31-.07,.47-.01Z"/>
      <path class="cls-15" d="M85.52,3.64c.04,.19,.1,.39-.1,.54-.03-.19-.06-.38,.1-.54Z"/>
      <path class="cls-3" d="M94.05,22.18c-.2-.15-.12-.35-.1-.54,.14,.16,.13,.35,.1,.54Z"/>
      <path class="cls-3" d="M97.62,35.06c-.23-.15-.12-.36-.1-.55,.16,.16,.13,.36,.1,.55Z"/>
      <path class="cls-12" d="M41.49,52.33c-.13-.18-.16-.35,.07-.48,.03,.17,0,.33-.07,.48Z"/>
      <path class="cls-15" d="M48.64,27.67c.22,.01,.42,.06,.51,.29-.2-.05-.42-.06-.51-.29Z"/>
      <path class="cls-3" d="M94.19,23.25c-.24-.15-.12-.36-.11-.56,.13,.17,.18,.35,.11,.56Z"/>
      <path class="cls-3" d="M33.35,59.41c.19-.04,.37-.08,.54,.07-.19,.09-.37,.06-.54-.07Z"/>
      <path class="cls-12" d="M50.48,87.15c.24,.16,.13,.37,.09,.57-.14-.18-.11-.37-.09-.57Z"/>
      <path class="cls-15" d="M63.26,40.3s.1,0,.15,0c0,0,.01,.01,.01,.01-.04,.24,.08,.5-.13,.72-.02-.16,.05-.34-.1-.47,.02-.08,.04-.16,.07-.25Z"/>
      <path class="cls-3" d="M97.72,35.88c-.15-.14-.15-.3-.02-.45,.1,.15,.11,.3,.02,.45Z"/>
      <path class="cls-15" d="M33.65,51.65c.15-.24,.38-.13,.58-.11-.17,.14-.38,.1-.58,.11Z"/>
      <path class="cls-3" d="M24.77,55.13c-.22,.09-.44,.08-.67,.01,.22-.17,.44-.13,.67-.01Z"/>
      <path class="cls-3" d="M59.24,89.41c.12-.07,.25-.15,.37-.22,.1,0,.19,.01,.29,.02-.19,.15-.42,.2-.66,.2Z"/>
      <path class="cls-15" d="M30.31,51.09c.02,.16,.07,.32-.12,.42-.07-.17-.01-.3,.12-.42Z"/>
      <path class="cls-12" d="M85.7,2.52c.14,.15,.13,.27-.07,.36-.03-.13,0-.25,.07-.36Z"/>
      <path class="cls-3" d="M98.12,41.98c-.19-.11-.16-.27-.09-.43,.13,.13,.16,.27,.09,.43Z"/>
      <path class="cls-12" d="M30.69,35.18c-.06,.04-.12,.09-.18,.13-.02-.09-.05-.17-.07-.26h0c.08-.09,.17-.16,.25-.24,.03,.02,.05,.05,.08,.07-.03,.1-.06,.19-.09,.29Z"/>
      <path class="cls-12" d="M41.62,51.26c-.14-.14-.13-.26,.04-.36,.07,.13,.02,.24-.04,.36Z"/>
      <path class="cls-3" d="M38.33,36.96c-.15-.01-.29-.03-.44-.04,.13-.1,.27-.16,.44-.11,0,.05,0,.1,0,.15Z"/>
      <path class="cls-15" d="M31.55,52c.12-.17,.29-.14,.46-.1-.13,.15-.29,.15-.46,.1Z"/>
      <path class="cls-15" d="M30.82,52.12c.11-.2,.29-.14,.46-.1-.14,.07-.28,.16-.46,.1Z"/>
      <path class="cls-3" d="M37.75,36.94c-.16,0-.32,0-.47-.01,.16-.11,.32-.15,.47,.01Z"/>
      <path class="cls-12" d="M53.06,95.13c.18,.12,.15,.29,.11,.46-.13-.13-.16-.28-.11-.46Z"/>
      <path class="cls-15" d="M84.99,9.44c.12,.11,.12,.22,0,.33-.09-.11-.09-.22,0-.33Z"/>
      <path class="cls-3" d="M93.92,21.1c-.17-.11-.13-.27-.09-.42,.12,.12,.14,.27,.09,.42Z"/>
      <path class="cls-12" d="M86.01,1.27c.05,.16,.07,.32-.12,.41-.05-.16-.04-.31,.12-.41Z"/>
      <path class="cls-12" d="M57.64,100.07c0-.13-.04-.27,.07-.38,.15,.16,.08,.28-.07,.38Z"/>
      <path class="cls-12" d="M51.7,90.99c.19,.1,.33,.22,.17,.45-.06-.15-.12-.3-.17-.45Z"/>
      <path class="cls-12" d="M85.84,1.92c.13,.15,.1,.27-.08,.36-.07-.14-.04-.26,.08-.36Z"/>
      <path class="cls-12" d="M52.91,94.55c.24,.09,.16,.27,.14,.44-.11-.13-.14-.28-.14-.44Z"/>
      <path class="cls-12" d="M49.7,85.63c.23,.03,.32,.15,.27,.37-.09-.12-.18-.25-.27-.37Z"/>
      <path class="cls-12" d="M49.26,84.89c.19,.07,.27,.2,.24,.4-.17-.08-.22-.23-.24-.4Z"/>
      <path class="cls-12" d="M45.45,25.53c.16-.02,.26,.04,.26,.21-.13-.02-.21-.09-.26-.21Z"/>
      <path class="cls-3" d="M99.37,46.7c-.09-.05-.06-.12-.04-.19,.03,.08,.17,.1,.12,.22,0,0-.06-.02-.08-.03Z"/>
      <path class="cls-12" d="M40.3,47.1c-.07,.11-.15,.14-.24,.03,.07-.07,.15-.07,.24-.03Z"/>
      <path class="cls-12" d="M45.93,25.89c.16-.03,.26,.03,.28,.19-.13-.02-.24-.05-.28-.19Z"/>
      <path class="cls-12" d="M46.43,26.24c.15-.02,.24,.03,.27,.18-.11-.02-.23-.04-.27-.18Z"/>
      <path class="cls-12" d="M57.94,98.6c-.15-.04-.24-.1-.08-.23,.07,.06,.11,.14,.08,.23Z"/>
      <path class="cls-15" d="M31.78,45.6c.03,.13,.03,.25-.12,.31-.03-.13,.01-.23,.12-.31Z"/>
      <path class="cls-12" d="M46.8,26.48c.15-.02,.25,.04,.26,.2-.13,0-.21-.09-.26-.2Z"/>
      <path class="cls-12" d="M52.09,92.16c.14,.07,.13,.18,.11,.31-.11-.08-.13-.18-.11-.31Z"/>
      <path class="cls-12" d="M51.95,91.68c.13,.05,.2,.11,.06,.23-.07-.06-.1-.14-.06-.23Z"/>
      <path class="cls-15" d="M47.31,26.83c.14-.01,.23,.04,.25,.19-.13,0-.21-.08-.25-.19Z"/>
      <path class="cls-12" d="M51.17,89.78c.17,.04,.2,.14,.14,.28-.05-.09-.09-.19-.14-.28Z"/>
      <path class="cls-12" d="M58.24,89.68c.06-.11,.13-.16,.24-.05-.07,.08-.15,.09-.24,.05Z"/>
      <path class="cls-15" d="M48.16,27.43c.13-.02,.23,.01,.26,.15-.13,.03-.21-.03-.26-.15Z"/>
      <path class="cls-15" d="M30.86,48.54c.11,.1,.07,.18-.05,.24-.04-.09-.03-.17,.05-.24Z"/>
      <path class="cls-15" d="M85.57,3.23c.12,.09,.09,.17-.03,.23-.06-.08-.03-.16,.03-.23Z"/>
      <path class="cls-12" d="M47.02,77.97c.16,.06,.17,.18,.13,.31-.1-.08-.15-.18-.13-.31Z"/>
      <path class="cls-12" d="M88.68,3.95c-.16-.04-.19-.14-.15-.29,.12,.06,.17,.16,.15,.29Z"/>
      <path class="cls-3" d="M99.37,50.01c-.06-.12-.04-.23,.09-.3,.04,.12,.02,.22-.09,.3Z"/>
      <path class="cls-12" d="M89.16,5.02c-.15-.05-.18-.15-.14-.29,.12,.07,.16,.16,.14,.29Z"/>
      <path class="cls-15" d="M38.08,50.81c.05-.13,.13-.18,.24-.05-.07,.05-.15,.09-.24,.05Z"/>
      <path class="cls-3" d="M98.98,50.94c-.03-.12,0-.22,.13-.27,.03,.12-.02,.21-.13,.27Z"/>
      <path class="cls-15" d="M52.23,29.69c.12-.02,.21,.01,.25,.13-.13,.04-.2-.02-.25-.13Z"/>
      <path class="cls-15" d="M36.36,51.15c.08-.14,.2-.13,.33-.08-.09,.09-.21,.11-.33,.08Z"/>
      <path class="cls-15" d="M52.77,29.97c.16-.05,.28-.03,.32,.15-.13,0-.23-.06-.32-.15Z"/>
      <path class="cls-15" d="M54.15,30.67c.13-.04,.24,0,.29,.13-.13,.02-.23,0-.29-.13Z"/>
      <path class="cls-15" d="M35.62,51.29c.06-.14,.14-.18,.25-.04-.07,.07-.16,.08-.25,.04Z"/>
      <path class="cls-15" d="M34.52,51.5c.09-.12,.2-.11,.33-.07-.09,.11-.2,.11-.33,.07Z"/>
      <path class="cls-3" d="M29.76,58.84c.13-.06,.25-.06,.33,.08-.12,.03-.23,0-.33-.08Z"/>
      <path class="cls-15" d="M36.97,51.03c.09-.11,.21-.11,.33-.07-.09,.11-.21,.11-.33,.07Z"/>
      <path class="cls-3" d="M22.62,40.91c.13,.1,.08,.17-.05,.23-.04-.09-.01-.16,.05-.23Z"/>
      <path class="cls-12" d="M44.82,25.06c.17-.02,.26,.05,.27,.21-.13-.02-.22-.1-.27-.21Z"/>
      <path class="cls-12" d="M98.48,51.78c-.03-.15,.02-.25,.19-.28,0,.13-.07,.22-.19,.28Z"/>
      <path class="cls-12" d="M63.4,38.87c.16,.1,.15,.18-.02,.25,0-.08,.02-.16,.02-.25Z"/>
      <path class="cls-12" d="M42.55,22.89c.15,.02,.21,.1,.2,.24-.12-.04-.19-.12-.2-.24Z"/>
      <path class="cls-3" d="M30.85,34.61c-.02-.12,0-.23,.13-.27,.04,.13-.04,.2-.13,.27Z"/>
      <path class="cls-3" d="M25.77,55.37c-.11,.11-.18,.05-.23-.06,.09-.05,.17-.03,.23,.06Z"/>
      <path class="cls-3" d="M23.28,37.85c.04,.12,.04,.22-.08,.3-.05-.12,0-.22,.08-.3Z"/>
      <path class="cls-3" d="M98.22,42.68c-.15-.1-.16-.21-.05-.34,.02,.11,.03,.23,.05,.34Z"/>
      <path class="cls-12" d="M59.9,89.21c-.1,0-.19-.01-.29-.02,0-.04,0-.07,0-.11,.08,0,.16-.02,.24-.02,.02,.05,.04,.1,.06,.15,0,0,0,0,0,0Z"/>
      <path class="cls-3" d="M22.51,41.38c.1,.09,.08,.16-.03,.22,0-.07,.02-.15,.03-.22Z"/>
      <path class="cls-3" d="M7.7,21.7c-.06,.11-.16,.12-.27,.11,.06-.11,.17-.12,.27-.11Z"/>
      <path class="cls-12" d="M47.19,78.45c.07,.05,.1,.12,.07,.2-.08-.05-.09-.12-.07-.2Z"/>
      <path class="cls-12" d="M49.13,84.66c.08,.04,.12,.1,.11,.19-.04-.06-.08-.13-.11-.19Z"/>
      <path class="cls-3" d="M22.98,39.11s.02,.06,.02,.09c0,0-.03,.01-.05,.02,0-.04,.02-.07,.03-.11Z"/>
      <path class="cls-12" d="M49.97,85.99c.1,.02,.13,.09,.13,.18-.04-.06-.09-.12-.13-.18Z"/>
      <path class="cls-12" d="M58.75,89.56c.02-.07,.06-.09,.11-.02,0,0-.05,.03-.05,.03h-.06Z"/>
      <path class="cls-12" d="M51.32,90.07s.06,0,.09,0c-.02,.02-.03,.05-.05,.07-.04,0-.06-.03-.04-.07Z"/>
      <path class="cls-12" d="M52.31,92.77c.08,0,.13,.03,.05,.1-.04-.02-.06-.06-.05-.1Z"/>
      <path class="cls-12" d="M52.71,93.83c.07,.06,.1,.13,.06,.21-.02-.07-.04-.14-.06-.21Z"/>
      <path class="cls-12" d="M52.83,94.19s.05,.05,.07,.08c0,0-.02,.03-.04,.04,0-.04-.02-.08-.03-.12Z"/>
      <path class="cls-3" d="M35.37,37.26c-.05,.06-.09,.04-.11-.02,.03,.03,.07,.04,.11,.02Z"/>
      <path class="cls-13" d="M37.51,45s-.06-.03-.08-.05c.03,.02,.06,.03,.09,.05,0,0,0,0,0,0Z"/>
      <path class="cls-5" d="M93.43,19.91c.14,1.08,.21,2.17,.46,3.23,0,.12,.01,.24,.02,.36,0,0-.03,.04-.03,.04l.03,.03s0,.04,0,.04c-.01,.29-.05,.57,.09,.84,0,.93,.02,1.87,.03,2.8,0,.21,.05,.42-.28,.49-.28,.06-.1,.26,.01,.35,1.75,1.48,2.49,3.5,3.23,5.53-.01,.13,0,.25,.1,.35,0,0,0,.02,0,.02,0,.41,.08,.8,.24,1.18,0,.04,.01,.08,.02,.12,.06,1.22,.1,2.45,.17,3.67,.07,1.32,.11,2.65,.44,3.94,0,.04,0,.08,0,.12,.23,.68,.13,1.13-.54,1.66-1.16,.92-1.57,2.33-1.73,3.75-.13,1.2-.2,2.41,.35,3.55-.02,.07,.01,.13,.09,.15,0,.04,0,.06,.04,.08,.02,.03,.04,.06,.06,.1,0,0,.02,.02,.02,.02,.03,.04,.06,.08,.09,.13,.03,.04,.06,.08,.1,.12,0,0,0,.04,0,.04l.04,.02s0,.04,.04,.04c.03,.03,.06,.06,.08,.08,0,0,.04,.03,.04,.03,.03,.02,.05,.05,.08,.07,.11,.1,.21,.19,.32,.29-1.85,1.99-3.96,3.64-6.4,4.91-.25,.13-.45,.07-.69-.02-.87-.33-1.74-.69-2.67-.84,0,0-.01,0-.01,0-.02-.11-.04-.22-.06-.33,.02-.04,.04-.08,.07-.12,.02-.04,.05-.08,.07-.12,.14-.29,.27-.58,.41-.87,.31-.51,.51-1.06,.61-1.64l.25-.64c.07-.05,.09-.11,.07-.19,.35-.85,.62-1.73,.8-2.63,.02-.08,.04-.17,.06-.25,.01-.05,.03-.09,.04-.14,.09-.1,.12-.21,.08-.34,.01-.05,.02-.1,.04-.15,.18-.32,.19-.69,.23-1.03,.05-.42,.16-.75,.61-.93,.28-.12,.48-.36,.63-.63,.07-.12,.16-.26,0-.37-.17-.12-.27,.03-.33,.15-.22,.42-.62,.61-1.01,.83-.04,0-.08,.02-.12,.02-.77,.04-1.54,.04-2.32-.04-.57-.06-1.18-.19-1.73,.14h-.01c-.06,.04-.11,.06-.17,.09-.03,0-.06,0-.08,.03-.05,.03-.1,.06-.15,.09-.04,0-.07,.02-.09,.06-.03,.03-.07,.05-.1,.08h-.02s-.08,.08-.12,.12c-.55,.45-1.09,.91-1.83,1.03-1.09,.18-2.12,.09-3.03-.59-.1-.07-.19-.18-.32-.11-.1,.06-.12,.16-.03,.25,.4,.39,.34,.92,.42,1.4,.31,1.72,.55,3.45,1.33,5.05-.02,.46-.34,.22-.53,.2-2.15-.3-4.3-.63-6.48-.65-.12,0-.24-.01-.37-.02-.47-.11-.95-.06-1.42-.09,.02-.06,.04-.11,.06-.17,.03-.04,.07-.08,.1-.11,0,0,.02-.02,.02-.02,.03-.03,.05-.06,.08-.09,1.6-1.89,1.57-4.38-.07-6.08-.05-.27-.26-.39-.49-.48-.1-.17-.32-.15-.47-.26-1.44-1.06-3.48-.41-4.35,1.09-.89,1.53-.92,3.14-.33,4.77,.21,.58,.7,1,1.12,1.48-.11,.04-.16,.06-.21,.08-.14,.05-.39,0-.35,.22,.04,.2,.27,.13,.42,.11,.37-.04,.73-.09,1.1-.13h5.41c.12,.02,.25,.02,.37,.02,.38,.04,.76,.09,1.15,.12,1.84,.16,3.67,.41,5.49,.68,.05,0,.09,.02,.14,.03,.14,.11,.3,.13,.48,.11,.7,.16,1.41,.33,2.11,.49,.11,.03,.22,.05,.33,.08,.05,.01,.11,.03,.16,.04,.27,.12,.54,.21,.84,.22h.04c.09,.1,.2,.14,.33,.12l.03,.02h.03c2.2,.59,4.28,1.45,6.33,2.41,.33,.16,.69,.29,.97,.51,.83,.66,1.75,.99,2.83,.87,.45-.05,.51,.18,.31,.49-.27,.42-.11,.63,.28,.83,.32,.16,.63,.36,.87,.63-.06,.18-.23,.17-.35,.21-.68,.24-.71,.29-.34,.9,.25,.41,.12,.54-.33,.48-.52-.08-.62,.13-.47,.58,.04,.13,.21,.46-.09,.4-.91-.2-.99,.46-1.21,.99-1.12,0-2.24-.02-3.32,.37h0c-.14-.01-.28,0-.38,.11,0,0,0,0,0,0-.39,.02-.76,.12-1.12,.25h-.05s-.05,.02-.05,.02c-.12,.03-.25,.07-.37,.1,0,0,0,0,0,0-.18,0-.34,.04-.49,.12h0c-.19,0-.38,.02-.57,.03-.75-.21-1.53-.21-2.3-.3-1.76-.22-3.51-.46-5.27-.67-1.74-.21-3.46-.51-5.21-.65-1.95-.16-3.87-.32-5.8,.34-1.85,.64-3.17,1.86-4.4,3.22-.32,.35-.63,.77-.76,1.28-.17,.68,.02,.88,.73,.75,.69-.13,1.31-.44,1.97-.65,1.34-.43,2.64-.96,3.81-1.73,.12-.02,.24-.05,.36-.05,3.08,.08,6.16,.19,9.24-.06,.16-.01,.34-.03,.38,.19-.14,.16-.28,.32-.42,.48-.03,.04-.06,.08-.09,.12-.05,.05-.1,.11-.14,.16-.05,.06-.1,.12-.15,.19,0,0,0,0,0,0-.04,.04-.08,.09-.13,.13,0,0,0,0,0,0-.04,.04-.08,.08-.13,.13,0,0,0,0,0,0-.04,.04-.08,.08-.12,.12,0,0,0,0,0,0-.04,.04-.08,.08-.12,.12,0,0,0,0,0,0-.04,.04-.07,.08-.11,.12,0,0-.01,.01-.01,.01-.04,.04-.07,.07-.11,.11,0,0-.01,.01-.01,.01-.04,.04-.07,.07-.11,.11,0,0-.02,.02-.02,.02-.04,.03-.07,.07-.11,.1,0,0-.02,.02-.02,.02-.03,.03-.06,.06-.09,.1-.05,.05-.11,.11-.16,.16-.03,.03-.06,.06-.09,.08,0,0-.03,.03-.03,.03-.03,.03-.06,.06-.09,.09-.06,.06-.12,.12-.17,.18-.06,.06-.11,.11-.17,.17-.05,0-.07,.03-.07,.07-.05,.05-.09,.11-.14,.16,0,0,0-.01,0-.01-.04,.04-.09,.09-.13,.13,0,0,.01,0,.01,0-.06,.05-.12,.09-.18,.14-.05,0-.07,.02-.07,.06-.08,.06-.15,.13-.23,.19-1.65,1.43-3.28,2.88-5.01,4.22-2.25,1.75-4.57,3.42-7.01,4.92-.64,.39-1.28,.78-1.93,1.17-.1,.06-.24,.12-.18,.27,.08,.19,.24,.1,.36,.03,.51-.3,1.01-.6,1.52-.9,.05,.04,.09,.08,.14,.12-1.18,2.03-2.31,4.1-4.33,5.51-.56,.39-1.15,.73-1.78,1-.15-.08-.25,.02-.36,.1-.05,.01-.1,.03-.14,.04-.09,0-.17,0-.26,.01,.04-.23,.06-.47,.12-.7,.21-.88,.25-1.78,.12-2.66-.34-2.3-1.65-4.14-3.13-5.88-.87-1.03-1.81-1.99-2.76-2.95-.99-1-2.06-1.92-3.08-2.89-.93-.89-1.98-1.65-2.83-2.63-1.37-1.6-2.14-3.51-2.89-5.41-.75-1.9-1.27-3.88-2.14-5.74-.24-.5-.54-.97-.97-1.35-.75-.65-1.64-.74-2.58-.71-.74,.02-.83-.14-.68-.85,.1-.49,.44-.9,.42-1.42h0c.09,0,.12-.03,.08-.12,0-.03,0-.05-.02-.07,0,0,0,0,0,0,.1-.01,.16-.07,.19-.16,0,0,.01-.01,.01-.01,.04-.03,.08-.07,.12-.1,0,0,0,0,0,0,.04-.04,.08-.08,.13-.11,.75-.72,1.6-1.31,2.46-1.9,.48-.07,.82-.4,1.23-.61,.97-.5,2.02-.74,3.04-1.07,.06-.01,.12-.03,.18-.04,.16,.02,.3,.01,.43-.09,0,0,.05-.01,.05-.01,.21,.03,.41-.02,.6-.1,.13-.01,.26-.03,.39-.04,.25,.03,.49,0,.72-.08h.8c-.35,.6-.74,1.08-1.01,1.63-.46,.94-.8,1.91-1.11,2.9-.09,.3-.14,.62-.14,.94,0,.7,.46,1,1.15,.77,.61-.21,1.11-.59,1.54-1.05,1.27-1.35,2.55-2.69,3.78-4.07,1.08-1.21,2.44-1.3,3.88-1.36,.33-.01,.25,.17,.17,.35-.3,.67-.6,1.35-.91,2.02-.25,.55-.43,1.11-.55,1.7-.08,.37-.06,.73,.28,.97,.36,.25,.75,.15,1.09-.06,.69-.43,1.31-.94,1.84-1.56,1.3-1.51,2.51-3.09,3.92-4.5,.19-.19,.37-.56,.69-.11,.05,.06,.16,.07,.21,0,.04-.06,.05-.15,.02-.22-.07-.21-.17-.4-.26-.6,.03-.12,0-.23-.07-.33v-.02c.02-.14-.03-.26-.11-.37-.01-.08-.02-.16-.04-.24-.06-.85-.13-1.69-.17-2.54-.08-1.78,.08-3.55,.21-5.33h0c.07-.12,.1-.25,0-.37,.41-1.74,.7-3.51,1.38-5.19,.09-.22,.19-.35,.44-.24,.04,.07,.05,.17,.11,.21,.93,.61,1.82,1.27,2.85,1.72,.14,.06,.29,.08,.4-.04,.58-.58,1.26-1.08,1.69-1.8,.23-.39,.11-.59-.37-.6-1.37-.03-2.73,.13-4.09,.17-2.99-.55-5.92-1.28-8.68-2.57-.03-.04-.06-.08-.09-.11,0,0,0-.05,0-.05h-.05s-.01-.06-.04-.06c-.03-.03-.05-.06-.08-.09,0,0-.03-.03-.03-.03-.03-.03-.06-.06-.09-.09,0,0-.03-.03-.03-.03-.03-.03-.06-.07-.09-.1,0,0-.02-.02-.02-.02-.03-.04-.07-.08-.1-.12-.98-1.16-1.79-2.45-2.64-3.7-.03-.23-.13-.44-.31-.6-.04-.08-.08-.17-.11-.25,0,0,.02-.05,.02-.05l-.05-.02c-.02-.05-.04-.1-.06-.15-.02-.27-.14-.48-.31-.69,0,0-.01-.03-.01-.03,.02-.1-.01-.17-.1-.22-.01-.05-.03-.1-.04-.14,.02-.09,0-.16-.08-.2-.02-.05-.04-.11-.06-.16,.04-.09,.02-.15-.07-.2-.02-.06-.05-.11-.07-.17,.04-.08,0-.14-.05-.19-.02-.05-.03-.11-.05-.16,.04-.09,0-.15-.07-.2-.01-.05-.02-.1-.03-.15,.02-.2,0-.4-.12-.57,0-.13,0-.25,0-.38,.22-.2,.47-.09,.7-.04,3.39,.77,6.76,1.61,9.93,3.06,.32,.14,.63,.28,.97,.09,.06,.07-.06,.21,.1,.25,.27,.17,.56,.29,.87,.36,0,0,0,0,0,0,.04,.03,.09,.05,.13,.08,0,0,.04,.02,.04,.02,.07,.04,.14,.07,.2,.11,0,0,.03,.02,.03,.02,.07,.04,.14,.07,.22,.11,.09,.04,.17,.09,.26,.13,.08,.04,.15,.08,.23,.12,0,0,0,0,0,0,.04,.02,.07,.04,.11,.06,.04,.02,.08,.04,.12,.07,.13,.07,.25,.14,.38,.22,0,0,.02,.01,.02,.01,.07,.04,.15,.08,.22,.12,0,0,0,0,0,0,.08,.05,.16,.09,.25,.14,0,0,.04,0,.04,0,.31,.26,.67,.44,1.05,.57,0,0,0,0,0,0,.09,.13,.22,.19,.36,.24,0,0,0,0,0,0,.08,.13,.2,.22,.35,.27,.09,.07,.17,.14,.26,.21,.04,.03,.08,.06,.13,.09,0,0,.02,.02,.02,.02,.03,.02,.07,.05,.1,.07v.03s.04,0,.04,0c.61,.49,1.27,.93,1.81,1.49,.1,.11,.26,.27,.41,.08,.11-.14-.05-.25-.15-.34-.54-.51-1.07-1.03-1.74-1.38-.07-.15-.41-.16-.24-.43,.05-.03,.1-.07,.15-.1,.04,0,.08-.01,.1-.05,.04-.03,.08-.05,.12-.08,0,0,0,0,0,0,.07-.04,.15-.08,.22-.12,0,0,.03-.01,.03-.01,.09,0,.16-.03,.2-.11,0,0,.04-.02,.04-.02,.04-.03,.08-.05,.13-.08,0,0,0,0,0,0,.1,0,.19-.03,.24-.12,0,0,0,0,0,0,.31-.06,.6-.17,.86-.36,.04-.01,.08-.03,.12-.04,.07-.03,.14-.06,.21-.09,0,0,.03,0,.03,0,.22-.02,.41-.1,.57-.23,0,0,.05-.02,.04-.02,.07-.03,.15-.06,.22-.09,.13-.05,.26-.1,.4-.15,.07-.03,.14-.06,.21-.09,0,0,.03,0,.03,0,.23,0,.42-.1,.61-.22,0,0,0,0,0,0,.14,.01,.25-.05,.35-.13,0,0,.02,0,.02,0,1.22-.28,2.44-.56,3.66-.84,.05-.01,.11-.02,.16-.03,.16,.03,.31-.02,.46-.09,1.21-.13,2.42-.28,3.65-.29,2.11-.03,4.17,.23,6.19,.77,.48,.15,.97,.32,1.46,.46,.32,.09,.54,.05,.26-.33-.02-.58-.31-1.06-.62-1.52-1.12-1.61-2.02-3.33-2.83-5.11-.5-1.1-1-2.2-1.13-3.42,0-.07,0-.15,0-.22-.17-.29,0-.59,.1-.82,.72-1.89,1.7-3.66,2.77-5.38,.07,0,.1-.05,.09-.11,0,0,.02-.03,.02-.03,.02-.03,.05-.06,.07-.08,.14-.17,.28-.34,.42-.51,.03-.03,.05-.06,.08-.09,.06-.08,.12-.16,.18-.24,.12-.04,.2-.12,.21-.24,0,0,.02-.02,.02-.02,.33-.14,.37,.1,.45,.31,.68,1.77,1.24,3.57,1.69,5.41,.34,1.41,.72,2.81,1.09,4.21-.02,.12,0,.24,.09,.34,0,0,0,.02,0,.02,.02,.44,.08,.88,.24,1.3,0,.04,.01,.08,.02,.12Zm-18.61,27.54c1.68,0,3.21-1.5,3.18-3.1-.03-1.59-1.44-2.89-3.14-2.89-1.72,0-3.18,1.42-3.17,3.09,0,1.56,1.45,2.9,3.13,2.9Zm16.91-6.34c.05,1.26,.4,2.39,1.63,3.06,.7,.38,1.54,.17,2-.47,.94-1.31,.49-3.7-.87-4.6-.93-.62-2.05-.31-2.49,.68-.19,.42-.28,.87-.27,1.33Zm-4.64,3.78c-.26,.08-.71,.12-.74,.49-.02,.31,.35,.46,.68,.45,.39-.02,.49-.3,.5-.62,.01-.26-.11-.36-.44-.32Z"/>
      <path class="cls-12" d="M53.2,25.43c.17,.2,.29,.42,.31,.69-.29-.15-.3-.42-.31-.69Z"/>
      <path class="cls-12" d="M53.71,26.59c.18,.16,.27,.37,.31,.6-.27-.12-.32-.34-.31-.6Z"/>
      <path class="cls-12" d="M52.44,23.03c.12,.18,.13,.37,.12,.57-.13-.17-.29-.34-.12-.57Z"/>
      <path class="cls-12" d="M52.96,24.83c.09,.04,.11,.12,.08,.2-.09-.05-.1-.12-.08-.2Z"/>
      <path class="cls-12" d="M52.83,24.48c.08,.05,.11,.11,.07,.2-.08-.05-.09-.12-.07-.2Z"/>
      <path class="cls-12" d="M52.71,24.12c.06,.05,.1,.11,.05,.19-.02-.06-.04-.13-.05-.19Z"/>
      <path class="cls-12" d="M52.59,23.76c.07,.05,.11,.11,.07,.2-.09-.05-.09-.12-.07-.2Z"/>
      <path class="cls-12" d="M53.09,25.18c.09,.05,.12,.12,.1,.22-.09-.05-.12-.12-.1-.22Z"/>
      <path class="cls-15" d="M56.65,30.89s.07,.08,.1,.12c-.03-.04-.07-.08-.1-.12Z"/>
      <path class="cls-15" d="M56.77,31.02s.06,.07,.09,.1c-.03-.03-.06-.07-.09-.1Z"/>
      <path class="cls-15" d="M56.89,31.15s.06,.06,.09,.09c-.03-.03-.06-.06-.09-.09Z"/>
      <path class="cls-15" d="M57.14,31.41h.05s0,.06,0,.06c-.04,0-.05-.03-.05-.06Z"/>
      <path class="cls-12" d="M53.57,26.27l.05,.02s-.02,.05-.02,.05c-.03-.01-.04-.04-.03-.07Z"/>
      <path class="cls-15" d="M57.01,31.28s.05,.06,.08,.09c-.03-.03-.05-.06-.08-.09Z"/>
      <path class="cls-9" d="M85.88,15.96c.12,1.22,.63,2.32,1.13,3.42,.8,1.77,1.71,3.49,2.83,5.11,.32,.46,.6,.94,.62,1.52-.37-.05-.69-.3-1.08-.27-.68,0-1-.4-1.27-.97-1.28-2.73-1.96-5.6-2.34-8.55,0-.08,.01-.16,.02-.23,.03,0,.06-.01,.1-.02Z"/>
      <path class="cls-15" d="M85.88,15.96s-.06,.01-.1,.02c-.15-.16-.06-.21,.1-.24,0,.07,0,.15,0,.22Z"/>
      <path class="cls-12" d="M89.84,8.23c-.01,.13-.09,.21-.21,.24-.02-.15,.05-.24,.21-.24Z"/>
      <path class="cls-12" d="M89.44,8.71s-.05,.06-.08,.09c.03-.03,.05-.06,.08-.09Z"/>
      <path class="cls-12" d="M88.94,9.31s-.05,.06-.07,.08c.02-.03,.05-.06,.07-.08Z"/>
      <path class="cls-12" d="M88.85,9.42c0,.07-.02,.11-.09,.11,.03-.04,.06-.08,.09-.11Z"/>
      <path class="cls-9" d="M71.44,69.08c-1.17,.78-2.47,1.31-3.81,1.73-.66,.21-1.28,.52-1.97,.65-.71,.13-.9-.06-.73-.75,.13-.5,.44-.92,.76-1.28,1.23-1.36,2.55-2.58,4.4-3.22,1.93-.66,3.85-.5,5.8-.34,1.75,.14,3.47,.45,5.21,.65,1.76,.21,3.51,.46,5.27,.67,.77,.09,1.55,.09,2.3,.3-.02,.03-.03,.06-.05,.09-.12,.02-.24,.05-.36,.07-.14-.03-.26,0-.33,.14-.18,.01-.36,.03-.54,.04-.06,.03-.13,.06-.19,.09-.05,0-.11,0-.16,0-.69,.1-1.4,.05-2.05,.37-.05,0-.1-.02-.15-.02-.96,.05-1.91,.13-2.86,.29-.12,0-.24,0-.36,.01-.96-.08-1.92,.1-2.88,.11-3.31,.04-6.62-.06-9.93,.11-.2,0-.55-.08-.52,.23,.02,.25,.34,.1,.52,.11,.88,.04,1.74-.22,2.62-.06Z"/>
      <path class="cls-13" d="M81.49,55.44c-.78-1.6-1.03-3.33-1.33-5.05-.08-.48-.03-1-.42-1.4-.09-.09-.07-.19,.03-.25,.13-.07,.22,.03,.32,.11,.91,.68,1.94,.78,3.03,.59,.74-.12,1.29-.58,1.83-1.03,.04-.03,.08-.07,.12-.1,0,0,.02-.01,.02-.01,.03-.03,.07-.05,.1-.08,.02-.04,.05-.06,.09-.06,.05-.03,.1-.06,.15-.09,.02-.03,.04-.04,.08-.03,.06-.03,.11-.06,.17-.09,0,0,.01,0,.01,0,.85,.01,1.71-.05,2.57,.08,.48,.07,1.02,.17,1.48-.18,.04,0,.08-.02,.12-.02,.19,.14,.09,.31,.06,.48-.09,.5-.23,1-.2,1.51-.01,.05-.02,.1-.04,.15-.1,.1-.09,.22-.08,.34-.01,.05-.03,.09-.04,.14-.08,.07-.08,.16-.06,.25-.18,.9-.45,1.77-.8,2.63-.02,.06-.04,.12-.07,.19-.08,.21-.16,.42-.24,.64-.13,.07-.17,.25-.36,.24,.06-.5,.34-.93,.46-1.41,.08-.3,.3-.61,.18-.92-.33-.83-.6-1.69-1.25-2.37-.15-.31-.37-.57-.6-.81-.84-.87-.94-.88-1.84-.04-.42,.39-.88,.71-1.44,.87-1.04,.3-2.05,.2-3.16-.21,.18,.97,.35,1.85,.52,2.73,.16,1.11,.51,2.16,.96,3.18,.14,.32,.35,.48,.72,.56,.96,.2,1.91,.43,2.85,.69,1.34,.37,1.34,.39,1.97-.79,.04-.07,.09-.13,.13-.2,.03-.06,.05-.12,.08-.18-.01-.02,0-.04,.02-.06,.16,.07,.13,.22,.14,.35-.14,.29-.27,.58-.41,.87-.02,.04-.05,.08-.07,.12-.02,.04-.04,.08-.07,.12-.16,.14-.3,.27,.06,.33,0,0,.01,0,.01,0-.36,.32-.71-.12-1.07,0,0,0-.03,0-.03,0,0,0-.03-.02-.03-.02-.08-.11-.21-.1-.33-.11,0,0-.04-.01-.04-.01-.24-.23-.53-.23-.84-.22-.05-.01-.11-.03-.16-.04-.09-.1-.21-.08-.33-.08-.7-.16-1.41-.33-2.11-.49-.13-.15-.31-.11-.48-.11-.05,0-.09-.02-.14-.03-.23-.24-.58-.17-.87-.29,.18-.03,.36,0,.53-.04,.27-.05,.26-.19,.09-.36Z"/>
      <path class="cls-14" d="M71.44,69.08c-.88-.16-1.75,.1-2.62,.06-.19,0-.5,.14-.52-.11-.03-.3,.32-.22,.52-.23,3.31-.16,6.62-.07,9.93-.11,.96-.01,1.91-.19,2.88-.11-.06,.2,.12,.47-.2,.58-.04-.22-.22-.21-.38-.19-3.08,.25-6.16,.14-9.24,.06-.12,0-.24,.03-.36,.05Z"/>
      <path class="cls-14" d="M81.98,68.57c.95-.16,1.9-.24,2.86-.29-.93,.28-1.88,.38-2.86,.29Z"/>
      <path class="cls-14" d="M91.71,66.89c1.07-.39,2.2-.37,3.32-.37-.05,.04-.09,.11-.14,.1-1.08-.07-2.12,.23-3.18,.27Z"/>
      <path class="cls-14" d="M84.99,68.3c.65-.32,1.36-.27,2.05-.37-.64,.36-1.36,.26-2.05,.37Z"/>
      <path class="cls-14" d="M90.21,67.24c.36-.13,.73-.23,1.12-.25-.34,.23-.72,.27-1.12,.25Z"/>
      <path class="cls-14" d="M88.62,67.6s.04-.06,.05-.09c.19,0,.38-.02,.57-.03-.19,.1-.37,.31-.62,.12Z"/>
      <path class="cls-3" d="M59.49,89.05c.1-.08,.21-.18,.36-.1,0,.03,0,.07,0,.1-.08,0-.16,.02-.24,.02-.04,0-.08-.01-.11-.02Z"/>
      <path class="cls-14" d="M87.94,67.81c.07-.13,.18-.17,.33-.14-.06,.16-.18,.17-.33,.14Z"/>
      <path class="cls-14" d="M89.25,67.49c.15-.09,.31-.13,.49-.12-.13,.18-.32,.11-.49,.12Z"/>
      <path class="cls-14" d="M89.73,67.36c.12-.03,.25-.07,.37-.1-.1,.12-.24,.1-.37,.1Z"/>
      <path class="cls-14" d="M91.32,67c.1-.11,.24-.12,.38-.11-.09,.14-.24,.12-.38,.11Z"/>
      <path class="cls-14" d="M78.06,72.62c.08-.06,.15-.13,.23-.19-.02,.13-.1,.18-.23,.19Z"/>
      <path class="cls-14" d="M80.62,70.1c.05-.06,.1-.12,.15-.19-.01,.09-.05,.16-.15,.19Z"/>
      <path class="cls-14" d="M87.21,67.95c.06-.03,.13-.06,.19-.09-.06,.03-.13,.06-.19,.09Z"/>
      <path class="cls-14" d="M80.91,69.75s.06-.08,.09-.12c-.03,.04-.06,.08-.09,.12Z"/>
      <path class="cls-14" d="M80.5,70.22s.08-.09,.13-.13c-.04,.04-.08,.09-.13,.13Z"/>
      <path class="cls-14" d="M80.38,70.34s.08-.08,.13-.13c-.04,.04-.08,.08-.13,.13Z"/>
      <path class="cls-14" d="M80.26,70.46s.08-.08,.12-.12c-.04,.04-.08,.08-.12,.12Z"/>
      <path class="cls-14" d="M80.15,70.59s.08-.08,.12-.12c-.04,.04-.08,.08-.12,.12Z"/>
      <path class="cls-14" d="M80.03,70.71s.07-.08,.11-.12c-.04,.04-.07,.08-.11,.12Z"/>
      <path class="cls-14" d="M79.91,70.83s.07-.07,.11-.11c-.04,.04-.07,.07-.11,.11Z"/>
      <path class="cls-14" d="M79.79,70.95s.07-.07,.11-.11c-.04,.04-.07,.07-.11,.11Z"/>
      <path class="cls-14" d="M79.67,71.07s.07-.07,.11-.1c-.04,.03-.07,.07-.11,.1Z"/>
      <path class="cls-14" d="M79.57,71.18s.06-.06,.09-.1c-.03,.03-.06,.06-.09,.1Z"/>
      <path class="cls-14" d="M79.32,71.42s.06-.06,.09-.08c-.03,.03-.06,.06-.09,.08Z"/>
      <path class="cls-14" d="M79.2,71.54s.06-.06,.09-.09c-.03,.03-.06,.06-.09,.09Z"/>
      <path class="cls-14" d="M78.85,71.89c.06-.06,.11-.11,.17-.17-.02,.09-.08,.15-.17,.17Z"/>
      <path class="cls-14" d="M78.64,72.12c.05-.05,.09-.11,.14-.16-.05,.05-.09,.11-.14,.16Z"/>
      <path class="cls-14" d="M78.52,72.24s.09-.09,.13-.13c-.04,.04-.09,.09-.13,.13Z"/>
      <path class="cls-14" d="M78.36,72.36c.06-.05,.12-.09,.18-.14-.06,.05-.12,.09-.18,.14Z"/>
      <path class="cls-5" d="M65.82,82.33c.06-.04,.13-.09,.19-.01,.02,.02-.03,.09-.05,.13-.05-.04-.09-.08-.14-.12Z"/>
      <path class="cls-5" d="M30.44,35.05c-.16,.21-.21,.45-.22,.71-.03,.03-.04,.07-.03,.11-.06,.13-.11,.25-.17,.38-.17,.61-.34,1.21-.51,1.82-.14,.47,0,.62,.51,.48,1.89-.52,3.81-.84,5.75-1.13,.78-.12,1.58-.08,2.33-.32,.08,0,.16-.02,.24-.02,.31,.05,.6,.03,.89-.09,.27,0,.54,0,.81-.01,.05,0,.1,0,.14,0h1.39c-.27,.41-.5,.73-.7,1.06-1.1,1.87-2.18,3.76-3.06,5.75-.15,.34-.29,.7-.57,.97,.23-1.7,.43-3.41,.69-5.1,.13-.88,.04-1-.86-.82-.22,.04-.45,.04-.66,.1-3.24,.83-6.45,1.76-9.58,2.91-.15,.05-.3,.2-.45,.08-.16-.13-.1-.33-.07-.51,.16-1.07,.28-2.16,.5-3.22,.56-2.67,1.15-5.34,1.75-8,.58-2.55,1.22-5.08,2.01-7.57,.18-.57,.1-.65-.48-.49-2.03,.53-3.9,1.43-5.75,2.34-2.19,1.07-4.26,2.35-6.26,3.72-1.83,1.25-3.68,2.48-5.38,3.91-1.02,.86-2.04,1.71-2.97,2.66-.7,.72-1.38,1.46-2.07,2.18-1.23-1.99-2.46-3.98-3.68-5.97-1.08-1.77-2.14-3.57-3.24-5.33-.24-.39-.27-.59,.21-.79,1.74-.75,3.46-1.53,5.19-2.3,.13,.01,.25-.03,.35-.12,0,0,.03,0,.03,0,.23-.01,.44-.05,.61-.22,0,0,.01,0,.01,0,.14,.02,.25-.02,.35-.12,0,0,.02,0,.02,0,.13,.01,.25-.03,.34-.12,2.39-.89,4.83-1.62,7.27-2.37,4.06-1.25,8.19-2.28,12.38-3.02,3.47-.61,6.94-1.2,10.45-1.49,.63-.05,.59,.12,.39,.54-1.1,2.31-2.16,4.63-3.13,6.99-1.5,3.63-2.96,7.28-4.32,10.96-.03,.09-.04,.19-.06,.29-.09,.1-.13,.22-.11,.36,0,0,0,.02,0,.02-.17,.25-.23,.52-.25,.82h0Z"/>
      <path class="cls-3" d="M30.45,35.04c.01-.29,.07-.57,.25-.82,0,.2,0,.39,0,.59-.08,.08-.17,.15-.25,.23Z"/>
      <path class="cls-3" d="M7.81,21.95c-.09,.09-.21,.13-.34,.12,0-.04,0-.08,0-.12,.12,0,.23,0,.35,0Z"/>
      <path class="cls-3" d="M30.7,34.21c-.02-.14,.02-.26,.11-.36,.02,.14,.04,.27-.11,.36Z"/>
      <path class="cls-5" d="M62.8,42.7c.05,.08,.1,.15,.15,.23-.02,.73-.05,1.47-.04,2.2,.02,.95-.01,1.9,.25,2.83,.01,.07,.02,.15,.03,.22-.02,.34,.07,.66,.22,.97-.46,.43-1.06,.56-1.63,.74-1.38,.42-2.79,.74-4.24,.85-.12-.07-.3-.02-.36-.18-.37-.9-.94-1.7-1.37-2.56-.59-1.18-1.42-2.2-2.18-3.27-.16-.22-.34-.45-.65-.5-.43-1.03-.62-2.13-.82-3.22-.1-.53-.28-.99-.65-1.37-.26-.27-.31-.47,.13-.57,.53-.11,.88-.28,.53-.91-.15-.27,.18-.32,.37-.32,.49,0,.83-.08,.55-.68-.12-.25,.03-.37,.29-.36,.22,0,.45-.02,.67,.02,.38,.06,.59-.06,.63-.44,.05-.44,.34-.5,.64-.27,.52,.41,.99,.45,1.51,0,.27-.23,.49-.15,.52,.23,.07,.78,.51,1.34,1.09,1.85,1.02,.88,1.96,1.85,2.88,2.83,.04,.05,.08,.1,.12,.16,.15,.15,.31,.31,.46,.46,0,0,0,.04,0,.04l.04,.02s.01,.04,.04,.04c.03,.03,.05,.06,.08,.09,.08,.09,.15,.18,.23,.27,.04,.04,.09,.09,.13,.13,0,0,0,0,0,0,.04,.04,.08,.09,.13,.13,0,0-.01,0-.01,0,.05,.07,.1,.14,.15,.21,0,0,0,.01,0,.01,.04,.04,.07,.09,.11,.13Z"/>
      <path class="cls-8" d="M54.1,51.38c-1.82,1.52-3.18,3.22-4.68,4.79-.38,.4-.79,.75-1.27,1.02-.22,.13-.49,.28-.74,.08-.23-.18-.23-.46-.18-.72,.18-.86,.47-1.68,.79-2.5,.32-.82,.77-1.57,1.31-2.28,.16-.21,.31-.4,.63-.4,1.33,.01,2.65,0,4.14,0Z"/>
      <path class="cls-8" d="M62.29,50.27c-.99,1.16-1.98,2.31-2.96,3.47-.58,.69-1.17,1.38-1.93,1.89-.29,.2-.61,.44-.95,.24-.37-.22-.22-.62-.13-.93,.37-1.26,.95-2.44,1.53-3.63,.06-.13,.14-.25,.3-.26,1.38-.14,2.71-.56,4.13-.78Z"/>
      <path class="cls-9" d="M52.97,44.21c.31,.05,.5,.29,.65,.5,.76,1.06,1.59,2.08,2.18,3.27,.43,.86,1,1.66,1.37,2.56,.07,.16,.24,.12,.36,.18-.75,.07-1.5,.13-2.24,.21-.33,.04-.43-.15-.52-.38-.28-.72-.55-1.44-.82-2.16,0,0,0,.01,0,.01,0-.18-.02-.35-.13-.5-.16-1.12-.56-2.19-.79-3.29-.03-.13-.04-.27-.06-.41Z"/>
      <path class="cls-14" d="M63.41,49.13c-.15-.31-.24-.62-.22-.97,.12,.08,.15,.27,.35,.24,.08,.11,.13,.23,.11,.37-.47-.12-.11,.27-.23,.36Z"/>
      <path class="cls-12" d="M48.29,51.39c-.24,.08-.48,.11-.72,.08,.23-.16,.48-.08,.72-.08Z"/>
      <path class="cls-12" d="M47.18,51.51c-.19,.07-.39,.12-.6,.1,.18-.17,.4-.09,.6-.1Z"/>
      <path class="cls-12" d="M46.53,51.62c-.13,.1-.28,.11-.43,.09,.12-.12,.28-.08,.43-.09Z"/>
      <path class="cls-14" d="M63.65,48.79c.07,.1,.1,.21,.07,.33-.09-.1-.08-.21-.07-.33Z"/>
      <path class="cls-14" d="M63.16,47.95c-.27-.93-.24-1.88-.25-2.83-.01-.73,.03-1.47,.04-2.2,.23,.52,.07,1.05,.09,1.58,.03,.69,0,1.39,.07,2.08,.01-1.86,.08-3.71,.19-5.56,.2-.21,.08-.48,.13-.72,.04,0,.08,0,.12,0-.12,1.77-.29,3.55-.21,5.33,.04,.85,.11,1.69,.17,2.54-.25-.31-.17-.7-.34-1.04v.82Z"/>
      <path class="cls-13" d="M53.83,47.91c.11,.15,.13,.32,.13,.5-.2-.13-.11-.33-.13-.5Z"/>
      <path class="cls-14" d="M62.69,42.55c-.05-.07-.1-.14-.15-.21,.11,.03,.14,.11,.15,.21Z"/>
      <path class="cls-14" d="M62.07,41.82s-.05-.06-.08-.09c.03,.03,.05,.06,.08,.09Z"/>
      <path class="cls-14" d="M61.95,41.68l-.04-.02s0-.04,0-.04c.02,.02,.03,.04,.05,.06Z"/>
      <path class="cls-14" d="M61.44,41.16c-.04-.05-.08-.1-.12-.16,.04,.05,.08,.1,.12,.16Z"/>
      <path class="cls-14" d="M62.43,42.22s-.09-.09-.13-.13c.04,.04,.09,.09,.13,.13Z"/>
      <path class="cls-14" d="M62.55,42.35s-.08-.09-.13-.13c.04,.04,.08,.09,.13,.13Z"/>
      <path class="cls-14" d="M62.8,42.7s-.07-.09-.11-.13c.04,.04,.07,.09,.11,.13Z"/>
      <path class="cls-9" d="M7.64,36.94c.69-.73,1.37-1.46,2.07-2.18,.93-.95,1.95-1.8,2.97-2.66,1.7-1.43,3.55-2.66,5.38-3.91,2-1.37,4.08-2.65,6.26-3.72,1.86-.91,3.73-1.81,5.75-2.34,.58-.15,.66-.08,.48,.49-.79,2.49-1.43,5.03-2.01,7.57-.6,2.66-1.19,5.33-1.75,8-.22,1.06-.34,2.14-.5,3.22-.03,.17-.09,.38,.07,.51,.15,.12,.31-.03,.45-.08,3.14-1.14,6.34-2.08,9.58-2.91,.22-.06,.44-.06,.66-.1,.9-.18,.99-.06,.86,.82-.25,1.7-.46,3.4-.69,5.1-.01,.06-.03,.11-.04,.17-.08,.08-.15,.16-.23,.25-.1,.06-.17,.13-.14,.26,0,0,0-.01,0-.01-.46,.2-.57,.78-1.06,1v-1.5c-.46,.36-.54,.91-1.08,1.3,.18-.7,.32-1.26,.46-1.82-.05-.02-.09-.05-.14-.07-.73,.67-1.04,1.69-1.9,2.36-.12-.62,.2-1.16-.04-1.74-.39,.42-.61,.91-1.02,1.23-.03-.02-.06-.03-.1-.04,0-.07,0-.14,0-.21,.07-.06,.14-.12,.03-.21,.03-.05,.06-.1,.09-.15,.37-.6,.52-1.29,.75-1.93,.19-.51-.26-.37-.5-.3-.96,.26-1.92,.55-2.88,.83-2.31,.66-4.62,1.32-6.94,1.97-.68,.19-.68,.18-.54-.49,.25-1.21,.58-2.4,.66-3.64,.04-.04,.07-.08,.11-.12,.02-.09,.04-.19,.06-.28,.01-.07,.02-.14,.03-.21,.03-.15,.05-.3,.08-.45,.21-.46,.3-.95,.31-1.45,0-.04,.01-.08,.02-.13,.1-.1,.1-.22,.09-.35,.01-.08,.03-.16,.04-.24,.09-.1,.11-.22,.1-.35,.55-2.07,1.1-4.14,1.66-6.2,.12-.45,.03-.63-.5-.51-2.67,.59-5.28,1.4-7.84,2.34-.74,.27-1.5,.5-2.18,.9-.86,.06-1.58,.5-2.34,.81-1.18,.49-2.34,1.03-3.5,1.56-.73,.34-.72,.35-1.11-.37Zm27.55,7.21l-.02,.03h.03s-.01-.03-.01-.03Z"/>
      <path class="cls-11" d="M32.04,46.17c.41-.33,.63-.81,1.02-1.23,.24,.57-.08,1.11,.04,1.74,.86-.66,1.17-1.69,1.9-2.36,.05,.02,.09,.05,.14,.07-.14,.56-.28,1.12-.46,1.82,.54-.39,.62-.94,1.08-1.3v1.5c.48-.23,.59-.8,1.06-1,0,.52-.44,.87-.56,1.35-.09,.38-.28,.74-.4,1.12-.05,.14-.19,.3-.06,.44,.14,.15,.35,.1,.52,.03,.78-.3,1.62-.39,2.42-.62,.86-.25,1.77-.26,2.65-.39,.29-.04,.49-.04,.4,.4-.38,1.78-.52,3.59-.76,5.38-.02,.12-.02,.25-.12,.32-.54,.41-1.08,.81-1.69,1.26-.05-1.23-.2-2.36-.16-3.51,.02-.8-.13-.92-.91-.76-2.31,.46-4.62,.92-6.95,1.27-.29,.04-.69,.14-.6-.37,.3-1.69,.77-3.35,1.32-4.98,0-.04,0-.07,0-.11,0,0,.01-.02,.01-.02,.03-.03,.07-.05,.1-.08Z"/>
      <path class="cls-14" d="M38.74,55.72s.02,.04,.02,.07c-.03,.04-.05,.08-.08,.12,0,0,0,0,0,0-.25,.09-.31,.34-.45,.52-.17,.22-.3,.23-.42-.04,.09-.31,.33-.5,.55-.72,.03,0,.07,0,.1,0,.09,.02,.19,.04,.28,.05Z"/>
      <path class="cls-11" d="M36.83,45.42c-.03-.13,.04-.2,.14-.26,0,.11,0,.22-.14,.26Z"/>
      <path class="cls-14" d="M38.93,55.56c-.02,.1-.09,.15-.19,.16,0-.13,.08-.15,.19-.16Z"/>
      <path class="cls-14" d="M39.06,55.44s-.08,.07-.12,.1c.04-.03,.08-.07,.12-.1Z"/>
      <path class="cls-14" d="M39.19,55.32s-.08,.08-.13,.11c.04-.04,.08-.08,.13-.11Z"/>
      <path class="cls-15" d="M31.98,45.72c.11,.09,.04,.15-.03,.21,.01-.07,.02-.14,.03-.21Z"/>
      <path class="cls-15" d="M32.04,46.17s-.07,.05-.1,.08c0-.04,0-.08,0-.12,.04,0,.07,.02,.1,.04Z"/>
      <path class="cls-15" d="M31.92,46.27s0,.07,0,.11c-.01-.03-.03-.05-.04-.08,0,0,.03-.02,.04-.03Z"/>
      <path class="cls-12" d="M69.93,28.93c.67,.35,1.2,.87,1.74,1.38,.1,.09,.26,.2,.15,.34-.15,.19-.3,.03-.41-.08-.54-.57-1.2-1.01-1.81-1.49,.11-.05,.22-.1,.33-.15Z"/>
      <path class="cls-12" d="M78.27,25.52c-1.22,.28-2.44,.56-3.66,.84,.54-.39,1.21-.38,1.82-.56,.59-.18,1.2-.35,1.84-.28Z"/>
      <path class="cls-14" d="M89.37,25.74c.39-.03,.71,.22,1.08,.27,.28,.38,.06,.42-.26,.33-.49-.14-.97-.3-1.46-.46,.21-.05,.47,.09,.63-.14Z"/>
      <path class="cls-12" d="M68.32,28.15c-.39-.13-.74-.31-1.05-.57,.4,.11,.8,.21,1.05,.57Z"/>
      <path class="cls-12" d="M65,26.37c-.31-.07-.6-.19-.87-.36,.36-.03,.63,.12,.87,.36Z"/>
      <path class="cls-12" d="M71.79,27.44c-.26,.18-.55,.3-.86,.36,.23-.24,.51-.38,.86-.36Z"/>
      <path class="cls-12" d="M74.24,26.48c-.19,.12-.38,.22-.61,.22,.16-.17,.37-.24,.61-.22Z"/>
      <path class="cls-12" d="M72.73,27.06c-.16,.14-.35,.22-.57,.23,.15-.17,.35-.23,.57-.23Z"/>
      <path class="cls-12" d="M66.73,27.3c-.13-.07-.25-.14-.38-.22,.18-.02,.31,.06,.38,.22Z"/>
      <path class="cls-12" d="M68.69,28.39c-.15-.04-.27-.11-.36-.24,.18-.01,.3,.07,.36,.24Z"/>
      <path class="cls-12" d="M69.05,28.66c-.15-.05-.27-.14-.35-.27,.19,0,.32,.07,.35,.27Z"/>
      <path class="cls-12" d="M78.9,25.4c-.15,.07-.3,.11-.46,.09,.13-.13,.3-.08,.46-.09Z"/>
      <path class="cls-12" d="M74.6,26.36c-.1,.08-.21,.14-.35,.13,.08-.15,.22-.13,.35-.13Z"/>
      <path class="cls-12" d="M72.13,27.31c-.07,.03-.14,.06-.21,.09,.07-.03,.14-.06,.21-.09Z"/>
      <path class="cls-12" d="M67.23,27.57c-.08-.05-.16-.09-.25-.14,.11,0,.2,.02,.25,.14Z"/>
      <path class="cls-12" d="M70.93,27.8c-.05,.09-.14,.12-.24,.12,.04-.11,.14-.13,.24-.12Z"/>
      <path class="cls-12" d="M70.51,28.02c-.04,.08-.11,.11-.2,.11,.07-.04,.14-.07,.2-.11Z"/>
      <path class="cls-12" d="M66.97,27.43c-.07-.04-.15-.08-.22-.12,.1,0,.18,.02,.22,.12Z"/>
      <path class="cls-12" d="M72.99,26.95c-.07,.03-.15,.06-.22,.09,.07-.03,.15-.06,.22-.09Z"/>
      <path class="cls-12" d="M66.11,26.95c-.08-.04-.15-.08-.23-.12,.1,0,.19,.02,.23,.12Z"/>
      <path class="cls-12" d="M70.28,28.14c-.07,.04-.15,.08-.22,.12,.04-.1,.12-.12,.22-.12Z"/>
      <path class="cls-12" d="M73.6,26.71c-.07,.03-.14,.06-.21,.09,.07-.03,.14-.06,.21-.09Z"/>
      <path class="cls-12" d="M65.62,26.7c-.07-.04-.14-.07-.22-.11,.09,0,.17,.02,.22,.11Z"/>
      <path class="cls-12" d="M65.38,26.57c-.07-.04-.14-.07-.2-.11,.07,.04,.14,.07,.2,.11Z"/>
      <path class="cls-12" d="M69.56,29.05s-.07-.05-.1-.07c.03,.02,.07,.05,.1,.07Z"/>
      <path class="cls-12" d="M69.44,28.96s-.08-.06-.13-.09c.04,.03,.08,.06,.13,.09Z"/>
      <path class="cls-12" d="M69.84,28.4c-.05,.03-.1,.07-.15,.1,.05-.03,.1-.07,.15-.1Z"/>
      <path class="cls-12" d="M70.06,28.27s-.08,.05-.12,.08c.04-.03,.08-.05,.12-.08Z"/>
      <path class="cls-12" d="M70.68,27.91s-.08,.05-.13,.08c.04-.03,.08-.05,.13-.08Z"/>
      <path class="cls-12" d="M66.23,27.02s-.07-.04-.11-.06c.04,.02,.07,.04,.11,.06Z"/>
      <path class="cls-12" d="M65.13,26.45s-.09-.05-.13-.08c.04,.03,.09,.05,.13,.08Z"/>
      <path class="cls-3" d="M7.09,22.2c-.17,.17-.38,.21-.61,.22,.13-.28,.37-.24,.61-.22Z"/>
      <path class="cls-3" d="M7.46,22.07c-.09,.1-.21,.14-.35,.12,.07-.16,.21-.13,.35-.12Z"/>
      <path class="cls-3" d="M6.46,22.42c-.1,.09-.21,.13-.35,.12,.08-.14,.21-.13,.35-.12Z"/>
      <path class="cls-3" d="M22.82,41.39c-.01,.07-.02,.14-.03,.21-.09-.08-.07-.15,.03-.21Z"/>
      <path class="cls-3" d="M22.73,41.88s-.07,.08-.11,.12c.04-.04,.07-.08,.11-.12Z"/>
      <path class="cls-3" d="M23.45,38.41c0,.13-.01,.25-.1,.35-.02-.13-.05-.27,.1-.35Z"/>
      <path class="cls-3" d="M23.31,39c.02,.13,.01,.25-.09,.35-.02-.13-.04-.26,.09-.35Z"/>
      <path class="cls-6" d="M97.59,52.68c-.26,.16-.46,.12-.69-.09-.69-.62-.83-1.45-.89-2.28-.12-1.76,.21-3.43,1.24-4.93,.05-.07,.09-.13,.14-.19,.22-.26,.43-.62,.8-.58,.35,.04,.29,.47,.41,.73,.34,.74,.61,1.51,.76,2.31,0,.35,0,.7,0,1.05-.2,1.37-.82,2.56-1.66,3.66-.07,.09-.08,.22-.12,.33,0,0,0,0,0,0Z"/>
      <path class="cls-3" d="M97.97,42.91c-.33-1.29-.37-2.62-.44-3.94-.07-1.22-.11-2.45-.17-3.67,.19,.54,.24,1.11,.23,1.66-.03,1.24,.13,2.47,.15,3.71,0,.15,.07,.3,.11,.45,.04,.6,.08,1.19,.13,1.79Z"/>
      <path class="cls-3" d="M99.36,48.7c0-.35,0-.7,0-1.05,.11,.35,.12,.7,0,1.05Z"/>
      <path class="cls-12" d="M96.15,52.15c-.08-.02-.1-.08-.09-.15,.03,.05,.06,.1,.09,.15Z"/>
      <path class="cls-12" d="M96.25,52.32s-.04-.06-.06-.1c.02,.03,.04,.06,.06,.1Z"/>
      <path class="cls-12" d="M96.74,52.89s-.05-.05-.08-.07c.04,.01,.07,.03,.08,.07Z"/>
      <path class="cls-12" d="M96.62,52.78s-.06-.06-.08-.08c.03,.03,.06,.06,.08,.08Z"/>
      <path class="cls-12" d="M96.36,52.47s-.06-.08-.09-.13c.03,.04,.06,.08,.09,.13Z"/>
      <path class="cls-12" d="M96.5,52.65l-.04-.02s0-.04,0-.04c.03,.01,.04,.03,.05,.06Z"/>
      <path class="cls-9" d="M37.82,56.39c.12,.26,.25,.25,.42,.04,.14-.18,.2-.42,.45-.52,.02,.52-.33,.93-.42,1.42-.15,.72-.06,.87,.68,.85,.94-.03,1.83,.06,2.58,.71,.44,.38,.73,.84,.97,1.35,.88,1.86,1.39,3.84,2.14,5.74,.75,1.9,1.52,3.81,2.89,5.41,.84,.98,1.9,1.74,2.83,2.63,1.02,.97,2.08,1.89,3.08,2.89,.95,.96,1.89,1.92,2.76,2.95,1.48,1.74,2.79,3.58,3.13,5.88,.13,.88,.09,1.78-.12,2.66-.06,.23-.08,.47-.12,.7-.03,.02-.05,.05-.06,.09-.79,.16-1.58,.31-2.39,.35-.14,0-.31-.04-.39,.11-.1,.18,.09,.21,.19,.3,.22,.19,.17,.47,.19,.72,.03,.41,.02,.83,.03,1.24-.08,.08-.19,.16-.24,.26-.27,.61-.53,1.23-.8,1.84-.36,.84-.8,1.05-1.58,.85-.31-.08-.48-.36-.79-.41-.42-1.25-.83-2.51-1.36-3.73,0-.04-.01-.07-.04-.09-.34-1.02-.83-2-.96-3.08-.01-.11-.08-.23,.04-.37,.62,.47,1.15,1.05,1.83,1.46,.16,.09,.3,.21,.46,.29,.15,.08,.35,.28,.48,.07,.13-.2-.14-.29-.28-.38-2.03-1.35-3.77-2.94-4.55-5.29-.47-1.43-.81-2.9-1.22-4.36-.04-.13-.09-.26-.13-.39-.02-.05-.03-.09-.05-.14,0-.04-.02-.08-.03-.12,0-.03,0-.05-.02-.07-.02-.05-.03-.11-.05-.16,.39-.05,.73-.12,.32-.58-.29-1.02-.81-1.93-1.5-2.74-.92-1.36-2.1-2.51-3.2-3.73-.29-.33-.62-.62-.94-.93-.95-1.14-1.96-2.23-2.84-3.41-1.95-2.62-3.07-5.45-2-8.74,.05-.15,.15-.33-.09-.39-.17-.04-.24,.12-.28,.26-.13,.41-.27,.83-.38,1.25-.06,.25-.09,.29-.42,.31-.75,.05-1.45-.18-2.17-.21-.03-.02-.06-.02-.09,0-.36-.03-.72-.06-1.08-.09-.14-.05-.28-.1-.42-.15,.1-.54,.48-.87,.93-1.11,1.43-.76,2.97-1.22,4.6-1.42Z"/>
      <path class="cls-3" d="M33.79,59.14s.06-.01,.09,0c-.04,.06-.07,.05-.09,0Z"/>
      <path class="cls-9" d="M65.96,34.16c1.37-.05,2.73-.2,4.09-.17,.48,.01,.6,.21,.37,.6-.42,.72-1.1,1.22-1.69,1.8-.11,.11-.26,.1-.4,.04-1.03-.45-1.93-1.11-2.85-1.72-.06-.04-.08-.14-.11-.21,.82,.11,1.64,.23,2.46,.34,.16,.02,.43,.08,.43-.17,0-.19-.24-.16-.39-.19-.64-.11-1.27-.21-1.91-.31Z"/>
      <path class="cls-14" d="M63.54,39.93c.09,.12,.07,.25,0,.37,0-.12,0-.25,0-.37Z"/>
      <path class="cls-3" d="M97.35,35.18c-.16-.38-.25-.77-.24-1.18,.17,.38,.28,.77,.24,1.18Z"/>
      <path class="cls-3" d="M94.02,24.47c-.14-.27-.11-.56-.09-.84,.21,.26,.09,.56,.09,.84Z"/>
      <path class="cls-3" d="M97.1,33.98c-.1-.1-.11-.22-.1-.35,.13,.09,.12,.22,.1,.35Z"/>
      <path class="cls-3" d="M93.92,23.58l-.03-.03s.03-.04,.03-.04c0,.02,.01,.05,0,.07Z"/>
      <path class="cls-3" d="M47.48,78.42s.03,.09,.05,.14c0,0-.04,0-.04,0,0,0-.04,0-.04,0,.01-.05,.03-.09,.04-.14Z"/>
      <path class="cls-2" d="M37.82,56.39c-1.62,.2-3.16,.66-4.6,1.42-.45,.24-.83,.57-.93,1.11-.28,0-.56-.02-.83-.03,0,0-.02,0-.02,0-.14-.12-.31-.11-.48-.09-.67-.17-1.33-.33-2-.5,0-.02,0-.05,0-.07,.17-.01,.34-.03,.52-.04,.25-.16-.05-.3-.02-.46,.23-.28-.07-.28-.2-.31-.62-.14-1.25-.26-1.88-.39-.03-.03-.07-.04-.11-.03-.09-.03-.17-.06-.26-.08-.81-.29-1.66-.52-2.39-1-.18-.12-.42-.19-.42-.46,.23,0,.47,0,.7,0,0,0,.02,0,.02,0,.14,.12,.3,.13,.47,.12,0,0,.02,0,.02,0,.94,.28,1.92,.36,2.89,.41,2.29,.13,4.57,0,6.84-.36,.91-.14,1.83-.21,2.75-.17,.18,0,.44-.1,.48,.22-.22,.21-.46,.41-.55,.72Z"/>
      <path class="cls-3" d="M29.47,57.72c-.03,.15,.27,.3,.02,.46-.25-.54-.81-.35-1.23-.45-.76-.18-1.54-.33-2.23-.75,.53,.12,1.05,.24,1.58,.36,.62,.14,1.21,.37,1.86,.38Z"/>
      <path class="cls-14" d="M29.47,57.72c-.64-.01-1.24-.24-1.86-.38,.05-.19-.15-.21-.22-.31,.63,.13,1.26,.25,1.88,.39,.13,.03,.44,.03,.2,.31Z"/>
      <path class="cls-3" d="M24.9,55.45c-.23,0-.47,0-.7,0,.23-.21,.47-.18,.7,0Z"/>
      <path class="cls-3" d="M30.96,58.79c.17-.01,.34-.03,.48,.09-.17,.02-.35,.06-.48-.09Z"/>
      <path class="cls-3" d="M25.4,55.57c-.17,.02-.34,0-.47-.12,.17,0,.35-.07,.47,.12Z"/>
      <path class="cls-14" d="M27.01,56.91c.08,.03,.17,.06,.26,.08-.08-.03-.17-.06-.26-.08Z"/>
      <path class="cls-2" d="M28.56,58.11s.04-.01,.06-.01c.07,.01,.07,.03,.02,.05-.02,0-.04,0-.06,0,0,0-.01-.02-.02-.03Z"/>
      <path class="cls-3" d="M93.41,19.79c-.15-.42-.22-.85-.24-1.3,.23,.13,.02,.45,.25,.58,0,0,0,0,0,0,0,.24,0,.47-.01,.71Z"/>
      <path class="cls-3" d="M93.17,18.47c-.09-.1-.11-.21-.09-.34,.12,.09,.1,.21,.09,.34Z"/>
      <path class="cls-3" d="M39.22,36.99c-.29,.12-.58,.15-.89,.09,0-.04,0-.08,0-.12,.3,0,.59,.02,.89,.02Z"/>
      <path class="cls-3" d="M40.18,36.97s-.1,0-.14,0c.05,0,.1,0,.14,0Z"/>
      <path class="cls-2" d="M53.26,94.44c.31,.05,.48,.33,.79,.41,.79,.21,1.22,0,1.58-.85,.26-.62,.52-1.23,.8-1.84,.04-.1,.16-.17,.24-.26,.08,1.29,.16,2.57,.24,3.86,0,.15-.05,.31,.08,.43,.01,.06,.03,.12,.04,.17,0,.15-.04,.3,.09,.42,.01,.09,.03,.19,.04,.28,.02,.06,.03,.13,.05,.19,.07,.34,.15,.68,.23,1.08-.47-.18-.42-.62-.64-.87-.14-.16-.08-.61-.41-.45-.27,.13,.04,.42,.13,.62,.24,.57,.52,1.12,.77,1.68,.06,.13,.09,.26,.12,.4,.02,.12,.02,.25-.14,.28-.12,.02-.17-.09-.2-.18-.38-1-1.13-1.84-1.39-2.9-.03-.14-.05-.38-.27-.31-.2,.06-.09,.27-.06,.42,.18,.78,.6,1.47,1,2.16,.14,.25,.33,.49,.36,.8-.34,.1-.52-.17-.77-.21,0,0,0,.01,0,.01-.04-.04-.09-.08-.13-.12,0,0,0,0,0,0-.6-.73-1.33-1.35-1.77-2.19-.5-.95-.64-1.99-.77-3.03Z"/>
      <path class="cls-9" d="M57.11,96.79c-.12-.12-.09-.28-.09-.42,.03-.01,.05-.01,.08,0,0,.14,0,.28,0,.42Z"/>
      <path class="cls-9" d="M57.2,97.27c-.02-.06-.03-.13-.05-.19,.08,.05,.09,.12,.05,.19Z"/>
      <path class="cls-3" d="M38.09,37.1c-.76,.24-1.56,.2-2.33,.32,.75-.27,1.54-.33,2.33-.32Z"/>
      <path class="cls-3" d="M30.02,36.25c.06-.13,.11-.25,.17-.38,.03,.16,.06,.33-.17,.38Z"/>
      <path class="cls-9" d="M56.98,96.2c-.13-.13-.09-.28-.08-.43,.1,.13,.1,.28,.08,.43Z"/>
      <path class="cls-3" d="M59.03,89.19s.03-.06,.06-.09c.09,0,.17,0,.26-.01-.08,.11-.2,.09-.32,.1Z"/>
      <path class="cls-3" d="M47.7,77.49c.41,.46,.07,.54-.32,.58-.19-.51-.37-1.03-.56-1.54,.05-.02,.1-.04,.15-.07,.27,.31,.31,.74,.46,1.11,.04,.09,.06,.22,.18,.17,.06-.02,.06-.17,.09-.26Z"/>
      <path class="cls-3" d="M47.44,78.23s.03,.04,.02,.07c-.02-.02-.04-.03-.06-.05,.01,0,.03-.02,.04-.02Z"/>
      <path class="cls-12" d="M93.41,19.79c0-.24,0-.47,.01-.71,.14,.28,.32,.55,0,.83,0-.04-.01-.08-.02-.12Z"/>
      <path class="cls-15" d="M55.8,99.67s.09,.08,.13,.12c-.04-.04-.09-.08-.13-.12Z"/>
      <path class="cls-10" d="M74.82,47.46c-1.68,0-3.13-1.33-3.13-2.9,0-1.66,1.45-3.08,3.17-3.09,1.69,0,3.11,1.3,3.14,2.89,.03,1.6-1.5,3.09-3.18,3.1Zm.42-2.86c.79,.01,1.33-.53,1.33-1.31,0-.75-.55-1.31-1.28-1.3-.72,0-1.3,.58-1.31,1.29,0,.74,.54,1.32,1.26,1.33Z"/>
      <path class="cls-10" d="M91.73,41.12c0-.47,.09-.91,.27-1.33,.44-1,1.57-1.3,2.49-.68,1.35,.91,1.8,3.3,.87,4.6-.46,.64-1.3,.85-2,.47-1.23-.67-1.58-1.79-1.63-3.06Zm3.04-.27c-.06-.58-.27-1.09-.73-1.46-.6-.48-1.38-.23-1.57,.51-.16,.61,.05,1.12,.44,1.59,.33,.41,.79,.55,1.25,.41,.48-.14,.59-.61,.62-1.05Z"/>
      <path class="cls-13" d="M75.1,55.32c-.12,0-.25,0-.37-.01-.19-.17-.43-.1-.65-.1-1.31,0-2.62,0-3.93,0-.28,0-.57-.08-.84,.09-.37,.04-.73,.09-1.1,.13-.15,.02-.38,.09-.42-.11-.05-.23,.21-.17,.35-.22,.05-.02,.11-.04,.21-.08-.42-.48-.91-.89-1.12-1.48-.59-1.63-.56-3.24,.33-4.77,.87-1.5,2.91-2.15,4.35-1.09,.14,.1,.36,.08,.47,.26-.04,.1-.13,.13-.23,.14-.2-.09-.41-.18-.61-.27-1.23-.53-2.46-.27-3.34,.7-1.45,1.6-1.3,4.65,.3,6.11,.25,.22,.5,.39,.87,.37,.84-.05,1.68-.07,2.52-.11,.15,0,.28-.04,.39-.15,.62-.65,1.13-1.34,1.36-2.22,.38-1.45-.1-2.69-.89-3.88,.01-.09,.04-.17,.14-.21,1.64,1.7,1.67,4.19,.07,6.08-.03,.03-.05,.06-.08,.09,0,0-.02,.02-.02,.02-.03,.04-.07,.08-.1,.11-.02,.06-.04,.11-.06,.17,.46,.16,.94,.12,1.42,.09,.12,0,.24,.01,.37,.02,.16,.15,.37,.07,.55,.11,.16,.03,.19,.11,.07,.22Z"/>
      <path class="cls-14" d="M75.1,55.32c.12-.11,.1-.19-.07-.22-.18-.04-.39,.04-.55-.11,2.18,.02,4.33,.36,6.48,.65,.18,.03,.51,.26,.53-.2,.17,.17,.19,.31-.09,.36-.17,.03-.35,0-.53,.04,.29,.12,.63,.04,.87,.29-1.82-.27-3.65-.52-5.49-.68-.38-.03-.76-.08-1.15-.12Z"/>
      <path class="cls-13" d="M87.09,44.9c.33-.05,.45,.06,.44,.32-.01,.33-.11,.6-.5,.62-.33,.02-.7-.14-.68-.45,.03-.38,.48-.42,.74-.49Z"/>
      <path class="cls-14" d="M89.72,49.81c-.03-.52,.11-1.01,.2-1.51,.03-.17,.13-.34-.06-.48,.39-.21,.79-.41,1.01-.83,.06-.12,.16-.27,.33-.15,.15,.11,.06,.25,0,.37-.15,.27-.35,.51-.63,.63-.45,.19-.56,.52-.61,.93-.05,.35-.05,.71-.23,1.03Z"/>
      <path class="cls-14" d="M89.74,47.84c-.45,.35-1,.26-1.48,.18-.86-.14-1.71-.07-2.57-.08,.55-.33,1.16-.2,1.73-.14,.78,.08,1.54,.08,2.32,.04Z"/>
      <path class="cls-14" d="M69.32,55.3c.26-.17,.56-.09,.84-.09,1.31-.01,2.62-.01,3.93,0,.22,0,.45-.06,.65,.1-1.8,0-3.61,0-5.41-.01Z"/>
      <path class="cls-15" d="M87.77,55.78c0-.13,.01-.27-.14-.35,.13-.35,.27-.71,.4-1.06,.18,.01,.23-.17,.36-.24-.1,.58-.31,1.13-.61,1.64Z"/>
      <path class="cls-14" d="M72.16,48.07c.1-.01,.19-.05,.23-.14,.23,.1,.44,.21,.49,.48-.1,.04-.13,.12-.14,.21-.19-.18-.39-.37-.58-.55Z"/>
      <path class="cls-13" d="M63.16,47.95v-.82c.17,.34,.1,.73,.34,1.04,.01,.08,.02,.16,.04,.24-.2,.03-.23-.16-.35-.24-.01-.07-.02-.15-.03-.22Z"/>
      <path class="cls-14" d="M74.12,54.97c-.48,.03-.95,.07-1.42-.09,.47,.02,.95-.02,1.42,.09Z"/>
      <path class="cls-12" d="M84.96,56.87c.3-.01,.6,0,.84,.22-.3,0-.57-.1-.84-.22Z"/>
      <path class="cls-12" d="M87.28,57.22c-.36-.06-.22-.19-.06-.33,.02,.11,.04,.22,.06,.33Z"/>
      <path class="cls-14" d="M81.88,56.15c.17,0,.35-.04,.48,.11-.17,.02-.34,0-.48-.11Z"/>
      <path class="cls-14" d="M89.6,50.3c0-.12-.02-.24,.08-.34,.03,.13,0,.24-.08,.34Z"/>
      <path class="cls-12" d="M85.84,57.1c.12,0,.24,0,.33,.11-.13,.02-.24-.02-.33-.11Z"/>
      <path class="cls-12" d="M84.47,56.75c.12,0,.24-.02,.33,.08-.11-.03-.22-.05-.33-.08Z"/>
      <path class="cls-15" d="M88.63,53.5c.02-.06,.04-.12,.07-.19,.02,.08,0,.14-.07,.19Z"/>
      <path class="cls-14" d="M89.49,50.69c-.02-.09-.01-.18,.06-.25-.02,.08-.04,.17-.06,.25Z"/>
      <path class="cls-12" d="M87.29,56.76s.05-.08,.07-.12c-.02,.04-.05,.08-.07,.12Z"/>
      <path class="cls-9" d="M38.69,55.91s.05-.08,.08-.12c.05,.08,.02,.12-.08,.12Z"/>
      <path class="cls-14" d="M85.07,48.31s-.08,.07-.12,.1c.04-.03,.08-.07,.12-.1Z"/>
      <path class="cls-14" d="M85.19,48.22s-.07,.05-.1,.08c.03-.03,.07-.05,.1-.08Z"/>
      <path class="cls-14" d="M85.43,48.07c-.05,.03-.1,.06-.15,.09,.05-.03,.1-.06,.15-.09Z"/>
      <path class="cls-14" d="M72.76,54.71s.07-.08,.1-.11c-.03,.04-.07,.08-.1,.11Z"/>
      <path class="cls-14" d="M72.88,54.58s.05-.06,.08-.09c-.03,.03-.05,.06-.08,.09Z"/>
      <path class="cls-14" d="M85.68,47.95c-.06,.03-.11,.06-.17,.09,.06-.03,.11-.06,.17-.09Z"/>
      <path class="cls-4" d="M88.02,54.37c-.13,.35-.27,.71-.4,1.06-.02,.01-.03,.03-.02,.06-.03,.06-.05,.12-.08,.18-.05,.07-.1,.13-.13,.2-.64,1.18-.63,1.16-1.97,.79-.94-.26-1.89-.5-2.85-.69-.37-.08-.58-.24-.72-.56-.45-1.02-.8-2.08-.96-3.18,.82-.67,1.56-1.42,2.59-1.85,1.27-.53,2.61-.56,3.94-.69,.65,.67,.92,1.54,1.25,2.37,.12,.3-.11,.61-.18,.92-.12,.48-.4,.91-.46,1.41Z"/>
      <path class="cls-7" d="M87.42,49.68c-1.33,.14-2.67,.16-3.94,.69-1.03,.43-1.77,1.18-2.59,1.85-.17-.88-.34-1.77-.52-2.73,1.11,.4,2.13,.5,3.16,.21,.56-.16,1.02-.47,1.44-.87,.9-.84,1-.83,1.84,.04,.24,.25,.46,.5,.6,.81Z"/>
      <path class="cls-15" d="M87.52,55.67c.03-.06,.05-.12,.08-.18-.03,.06-.05,.12-.08,.18Z"/>
      <polygon class="cls-11" points="35.19 44.15 35.2 44.19 35.17 44.18 35.19 44.15"/>
      <path class="cls-1" d="M75.24,44.6c-.72-.01-1.27-.59-1.26-1.33,0-.71,.59-1.29,1.31-1.29,.73,0,1.29,.56,1.28,1.3,0,.79-.54,1.32-1.33,1.31Z"/>
      <path class="cls-1" d="M94.77,40.86c-.04,.44-.14,.91-.62,1.05-.46,.14-.91,0-1.25-.41-.39-.48-.6-.99-.44-1.59,.2-.73,.97-.98,1.57-.51,.47,.37,.68,.87,.73,1.46Z"/>
      <path class="cls-6" d="M72.16,48.07c.19,.18,.39,.37,.58,.55,.79,1.19,1.27,2.43,.89,3.88-.23,.88-.74,1.58-1.36,2.22-.11,.11-.24,.14-.39,.15-.84,.03-1.68,.06-2.52,.11-.36,.02-.62-.14-.87-.37-1.6-1.46-1.75-4.51-.3-6.11,.88-.97,2.12-1.23,3.34-.7,.21,.09,.41,.18,.61,.27Z"/>
    </g>
  </g>
</svg>