<?xml version="1.0" encoding="UTF-8"?>
<svg id="Capa_2" data-name="Capa 2" xmlns="http://www.w3.org/2000/svg" viewBox="0 0 74.76 111.28">
  <defs>
    <style>
      .cls-1 {
        fill: #6b1610;
      }

      .cls-2 {
        fill: #fff;
      }

      .cls-3 {
        fill: #e85561;
      }

      .cls-4 {
        fill: #e53a25;
      }

      .cls-5 {
        fill: #fed626;
      }

      .cls-6 {
        fill: #74633f;
      }

      .cls-7 {
        fill: #654e2f;
      }

      .cls-8 {
        fill: #a6212a;
      }

      .cls-9 {
        fill: #dc9826;
      }

      .cls-10 {
        fill: #e1c03c;
      }

      .cls-11 {
        fill: #e09824;
      }

      .cls-12 {
        fill: #171309;
      }

      .cls-13 {
        fill: #96814c;
      }

      .cls-14 {
        fill: #765e1f;
      }

      .cls-15 {
        fill: #793416;
      }

      .cls-16 {
        fill: #512a16;
      }
    </style>
  </defs>
  <g id="Capa_1-2" data-name="Capa 1">
    <g>
      <path class="cls-5" d="M3.2,41.42c.1,0,.19-.02,.29-.02,.38,.24,.56,.06,.62-.32,.02-.15,.03-.3,.04-.44,0-.04,0-.09,0-.13,.04-.04,.09-.09,.13-.13,.8,.15,1.48,.05,1.91-.78,.19-.37,.53-.15,.77,.03,.31,.23,.56,.24,.81-.09,.1-.13,.25-.23,.38-.34,.09-.03,.19-.07,.28-.1h.05s.04-.01,.04-.01c.05,0,.09,0,.14,0h-.02c.04,.07,.08,.15,.13,.21,.38,.46,.69,1.07,1.48,.61,.25-.15,.46,.12,.63,.32,1.21,1.43,2.42,2.85,3.63,4.28,1.65,2.41,3.1,4.94,4.35,7.58,.03,.05,.06,.1,.09,.15h0c.04,.14,.07,.29,.13,.43,.71,1.68,1.35,3.39,1.89,5.13,.19,.62,.33,1.26,.69,1.98,.17-.72-.02-1.24-.17-1.76-.58-1.98-1.32-3.9-2.13-5.8,1.05-.69,1.98-1.5,2.61-2.61,.99-1.72,.85-3.98-.36-5.57-1.17-1.54-2.63-1.97-4.73-1.4,.01-.42,.44-.67,.45-1.09l.11-.15s.02-.06,.02-.1c.57-.74,.87-1.6,1.14-2.47,.02-.03,.03-.06,.03-.1,.03-.06,.07-.11,.1-.17,.02-.02,.04-.05,.03-.08,.16-.1,.22-.25,.22-.43,.58-1.17,1.15-2.35,1.75-3.51,.58-1.12,1.07-2.3,1.8-3.34,1.02-1.43,2.38-2.45,3.98-3.17,.32-.14,.66-.27,.98-.61-.83,.02-1.43,.32-2.04,.64-.16,.09-.34,.3-.51,.15-.16-.13-.04-.36-.01-.55,.23-1.75,.67-3.45,1.23-5.12,1.37-4.01,3.23-7.74,6.02-10.96,.06-.04,.12-.09,.18-.13,.28-.08,.51-.22,.66-.48,.04-.01,.08-.04,.1-.07,.18,.02,.31-.04,.35-.23l.04-.02c.16,.04,.25-.03,.3-.18h0c.52-.17,1.01-.41,1.43-.76,.04,0,.07-.02,.09-.04,.39-.08,.77-.18,1.06-.47,.04,0,.07-.01,.1-.03,.15,.03,.28-.02,.37-.14h0c.34-.04,.68-.06,.92-.36,.04,0,.08-.01,.11-.03,.04-.01,.09-.02,.13-.03,.08-.02,.15-.05,.23-.07,.3,.01,.6,0,.84-.22,.12-.02,.23-.04,.35-.06,.06-.01,.11-.03,.17-.04,.06-.01,.13-.03,.19-.04,.57,.02,1.14,0,1.7-.16,.43,0,.86,0,1.28,0,.24,.16,.51,.19,.78,.11,.08,.01,.15,.03,.23,.04,.04,.07,.09,.09,.16,.05,.04,.01,.09,.02,.13,.04,.07,.09,.15,.13,.26,.08,.11,.05,.23,.09,.34,.14,.05,.29-.09,.54-.13,.82v.05c-.15,.12-.24,.27-.24,.47-.02,.02-.03,.04-.02,.07-.04,.06-.08,.13-.11,.19-.03,.01-.03,.03-.02,.06-.18,.15-.23,.36-.26,.58v.05c-.04,.07-.08,.14-.12,.21v.05c-.05,.07-.08,.14-.12,.2-.03,.02-.03,.04-.02,.06-.03,.07-.07,.13-.1,.2-.03,.01-.03,.03-.02,.06-.22,.24-.37,.52-.4,.85-.03,.08-.07,.15-.1,.23-.16,.15-.23,.33-.25,.54-.02,.02-.03,.04-.02,.07-.04,.06-.07,.13-.11,.19-.03,.02-.04,.04-.02,.07-.18,.15-.24,.35-.26,.57v.05c-.04,.07-.08,.14-.12,.21v.05c-.05,.07-.09,.14-.13,.2-.02,.01-.03,.03-.02,.05-.23,.25-.34,.55-.44,.86l-.02,.03c-.14,.08-.17,.21-.18,.35v.05c-.06,.03-.1,.05-.15,.08-.02,.04-.05,.08-.07,.12,0,0-.02,.02-.02,.02-.03,.04-.06,.09-.09,.13,0,0-.01,.02-.01,.02-.12-.02-.2,.03-.27,.12-.54,.66-1.09,1.32-1.63,1.98-2.45,3.02-5.13,5.79-8.42,7.93-.18,.08-.39,.1-.53,.35,.44,.03,.82,.1,1.2-.07,.08,0,.16-.01,.23-.02,.3,.13,.59,.05,.87-.05,.14-.01,.27-.02,.41-.03,.65,.05,1.29,.07,1.93-.03,.15,0,.3,.01,.45,.02,.27,.14,.54,.2,.83,.1l.44,.05c.18,.18,.39,.17,.61,.1,.06,0,.12,.01,.18,.02,.09,.08,.2,.12,.32,.09,.11,.01,.21,.03,.32,.04,.25,.2,.54,.2,.84,.22,.14,.05,.28,.11,.42,.14,2.34,.61,4.59,1.44,6.67,2.69,3.1,1.86,5.83,4.1,7.48,7.42,.05,.11,.1,.25,.27,.2,.14-.3-.13-.57-.04-.88,.17-.06,.3,.04,.42,.1,2.89,1.45,5.59,3.19,8.09,5.24,1.78,1.46,3.38,3.11,4.94,4.79,.02,.05-.02,.16,.1,.12,.05,0,.1,0,.15,0,0,0,0,0,0,0,0,.05-.02,.1-.02,.15,.12,.17,.23,.36,.36,.52,1.61,1.98,2.97,4.12,4.14,6.39,.24,.47,.12,.68-.31,.89-.37,.18-.8,.13-1.14,.38-.06,0-.12,.01-.18,.02-.12-.02-.25-.05-.37-.07-1.53-.2-3.09-.11-4.6-.49-.89-.22-1.78-.44-2.68-.66h-.02c-.09-.12-.21-.17-.36-.13-.04,0-.08-.02-.13-.03-.03-.06-.07-.08-.13-.04-.24-.09-.47-.19-.71-.28-.09-.11-.19-.17-.34-.13-.1-.04-.21-.08-.31-.13l-.18-.09s0,0,0,0c-.18-.17-.35-.35-.53-.52,.04-.29-.17-.48-.31-.68-.53-.78-.99-1.59-1.4-2.44-.99-2.06-1.98-4.11-2.98-6.16-.02-.21,.06-.43-.11-.62-.03-.17-.05-.33-.08-.5,.05-.84-.13-1.6-.67-2.4-.05,.48,.17,1.84,.32,2.16,0,.06,0,.12,0,.18-.09,.15-.09,.3,.02,.43l-.02,.86c-.1,.21-.24,.42-.1,.67-.02,.12-.04,.24-.06,.35-.01,.05-.02,.1-.04,.15l-.06,.23c-.22,.18-.19,.43-.21,.67-.02,.04-.03,.08-.03,.12-.03,.09-.07,.18-.1,.27-.01,.06-.02,.13-.03,.19-.21,.2-.3,.45-.34,.73-.01,.06-.03,.12-.04,.18-.04,.07-.08,.14-.11,.2v.05c-.17,.12-.23,.31-.29,.49-.76,2.06-1.25,4.18-1.35,6.38-.01,.23,.1,.55-.28,.62-1.17-2.08-3.48-2.8-5.85-1.84-3.06,1.24-4.3,5.1-2.42,7.64,.6,.81,1.34,1.46,2.44,1.46,.13,.13,.27,.09,.42,.03,.31,0,.63,.01,.94,.02,.11,.3-.13,.37-.31,.46-1.86,.92-3.81,1.57-5.84,1.98-.97,.2-1.94,.38-2.91,.57,.35,.24,.69,.22,1.02,.18,1.88-.21,3.73-.61,5.5-1.3,1.15-.46,2.34-.83,3.34-1.61,.44-.37,.84-.3,1.32-.01,1.12,.67,2.27,1.27,3.41,1.9,.95,.67,1.9,1.34,2.85,2.01,.08,.06,.16,.12,.23,.19l.13,.11h.01c.04,.11,.12,.16,.22,.18h0c.05,.03,.11,.08,.16,.12,.04,.05,.08,.1,.13,.14,2.04,1.68,3.95,3.48,5.39,5.72,.14,.21,.36,.28,.59,.36,.89,.3,.94,.6,.23,1.21-.08,.06-.17,.16-.17,.24,0,.13,.14,.15,.24,.13,.55-.11,.61,.36,.8,.66,.22,.36,.27,.71-.2,.96-.17,.09-.13,.3-.06,.47,.13,.54,.04,.97-.55,1.18-.35,.13-.44,.4-.43,.76,0,.46-.14,.88-.69,.91-.47,.02-.64,.29-.69,.69-.08,.61-.36,.71-.93,.5-.79-.3-1.61-.62-2.47-.24-.05-.02-.1-.03-.15-.05-.02-.28-.23-.25-.42-.28-1.28-.21-2.56-.38-3.8-.84-2.3-.86-4.45-1.96-6.37-3.5-.31-.25-.55-.53-.56-.96,.03-.31,.08-.62-.03-1.07-.06,.43-.33,.64-.27,.97-.17,.36-.23,.74-.18,1.14-.08,1.01-.24,2.01-.14,3.02,0,.09,0,.18,0,.27-.11,.62-.12,1.23,.12,1.82-.06,.08-.05,.16,0,.24-.07,.08-.05,.17,0,.25,0,.06,0,.13,.01,.19-.05,.13-.08,.26,.02,.39,.07,1.27,.26,2.52,.55,3.75,0,.75,.22,1.46,.34,2.19,.09,.82,.11,1.66,.41,2.44,.03,.17,.06,.34,.09,.51-.01,.02-.03,.03-.03,.04,0,.03,.03,.06,.04,.09,0,.19-.03,.39,.02,.58,.48,1.89,1.09,3.75,1.06,5.73-.06,.13-.12,.26-.17,.4-.14,0-.24,.07-.34,.16-.72,.66-1.52,1.16-2.49,1.38-.8,.18-1.61,.19-2.41,.31-1.63,.25-3.25,.08-4.86-.1-2.2-.25-4.38-.75-6.58-.94-2.77-.24-5.55-.35-8.33-.4-3.54-.06-7.08-.01-10.63,0-.32,0-.65-.02-.96,.02-2.53,.35-4.83-.26-6.95-1.65-.22-.15-.35-.46-.68-.43-.14-.22-.19-.46-.27-.71-.38-1.25-.19-2.53-.21-3.8,.03-.04,.05-.09,.08-.13,.02-.04,.04-.09,.06-.13,.28-.78,.57-1.57,.85-2.35,1.26-3.56,2.7-7.05,3.76-10.68,.39-1.35,.83-2.7,.94-4.12,0-.11,.01-.21,.02-.32,.26-.33,.25-.71,.23-1.1,0-.09,.02-.17,.03-.26,.19,.02,.39,0,.57,.07,1.38,.53,1.99,.05,2.79-.88,.67-.77,.57-1.41-.24-2.41-2.3-2.83-4.06-6.01-5.82-9.17-.75-1.36-1.23-2.87-1.9-4.28-.25-.52-.26-1.19-.85-1.51-.11-.47-.22-.95-.33-1.42,.04-.29-.01-.57-.16-.83,0-.01,.02-.03,.02-.04,0-.03-.02-.06-.03-.09,.09-.32,.07-.62-.11-.9,.05-.13,.05-.25-.01-.37,.08-.09,.07-.18,0-.26,0-.27,0-.54-.01-.81,.04-.68,.07-1.36-.11-2.02,0-.01,.03-.03,.03-.04,0-.03-.02-.06-.03-.09,.07-.09,.06-.17,0-.25,0-.24-.01-.48-.02-.71,.1-.6-.01-1.2-.06-1.79,.03-.26,.04-.53-.04-.78,.06-.35,.1-.7-.07-1.03,0-.09-.01-.18-.02-.27-.02-.06-.04-.13-.05-.19,0-.06,0-.13-.01-.19-.03-.38,.21-.67,.32-1.01Zm33.32,14.43h0c.03-.05,.05-.1,.08-.14,.9-1.29,1.49-2.74,2.21-4.13,.18-.35,.38-.59,.8-.62,.36-.03,.68-.2,.95-.6-2.25,.68-4.05,.1-5.36-1.69-.5-.67-.96-.79-1.66-.58-.08,.02-.17,.05-.25,.06-1.45,.17-2.87,.25-4.11-.74-.31-.24-.46-.62-.83-.93,.06,.38,.12,.65,.32,.86,.03,.03,.06,.06,.08,.1,.05,.05,.09,.11,.14,.16-.08,.98-.17,1.96-.25,2.94,0,.09-.02,.18-.03,.27-.15,.29-.17,.59-.1,.9,0,.09-.01,.18-.02,.27-.28,1.45-.27,2.91-.14,4.36,.08,.91,.2,1.84,.59,2.69,.65,1.43,2.05,1.96,3.47,1.29,1.66-.79,2.72-2.18,3.63-3.71,.02-.04,.05-.09,.07-.13,.13-.09,.22-.2,.24-.36,.04-.02,.05-.05,.05-.09,.03-.05,.07-.11,.1-.16Zm-7.86-18.22c-.03-.05-.06-.11-.1-.16-.07-.14-.15-.27-.33-.27h-.01c0-.12-.06-.17-.15-.21-.07-.05-.14-.1-.21-.15l-.02-.02h-.03s-.02,0-.02,0c-.02-.08-.08-.1-.15-.09-.03-.02-.06-.04-.09-.04-.03-.08-.09-.1-.17-.08h0c-.8-.44-2.33-.32-3,.24-.04,0-.06,.02-.09,.05-.16,0-.25,.07-.28,.22h0c-.08,0-.13,.04-.14,.12h0c-.11,0-.19,.05-.2,.17l-.19,.22c-.15,.04-.23,.13-.21,.29-.03,.03-.04,.06-.05,.1-.8,.9-.8,2.62,0,3.52,0,.04,.03,.07,.06,.09-.02,.08,.02,.12,.1,.13h0c.01,.16,.09,.25,.24,.27h0c.03,.15,.11,.24,.27,.24,.08,.06,.15,.11,.23,.17,.02,.08,.07,.12,.15,.11,.02,.03,.05,.04,.09,.04,.06,.14,.16,.21,.32,.16l.21,.08c.2,.18,.43,.2,.67,.09,.09,0,.17,0,.26-.01,.46,.03,.92,.1,1.34-.18,.04,0,.07-.01,.09-.04,.06-.03,.11-.06,.17-.09,.03,0,.06-.02,.09-.04,.19,0,.34-.06,.41-.25,.12-.1,.23-.19,.35-.29,.16-.01,.24-.1,.25-.26h0c.08-.01,.11-.06,.1-.13,.03-.02,.05-.05,.06-.09,.08-.02,.12-.07,.11-.15,.05-.08,.09-.16,.14-.24,.08-.03,.11-.08,.09-.16,.03-.07,.05-.13,.08-.2,.42-.84,.49-1.68-.06-2.5h0c-.03-.05-.07-.1-.1-.15,.01-.04,0-.08,0-.12,.03-.08,0-.14-.08-.17,0-.03-.03-.06-.05-.08,0-.08-.03-.13-.11-.14h0Zm17.16,6.36c-.51,.28-.95,.64-1.31,1.1-.88,1.15-.91,2.83-.05,4.03,.84,1.16,2.27,1.63,3.59,1.18,1.35-.46,2.24-1.82,2.19-3.31-.05-1.42-1.1-2.8-2.27-3.01-.72-.54-1.44-.25-2.16,.02Zm-15.88,24.35c1.99,.23,3.65-.9,5.29-2.04,.1-.07,.23-.16,.17-.31-.06-.15-.22-.11-.34-.1-.3,.03-.59,.11-.89,.11-2.17,0-4.25-.47-6.25-1.24-1.09-.41-2.19-.89-3.02-1.78-.08-.09-.19-.22-.32-.11-.11,.09-.05,.24-.02,.36,.18,.86,.72,1.55,1.07,2.32,.83,1.88,2.12,2.77,4.31,2.76Zm6.02-23.27c.18-.06,.59,.06,.55-.21-.05-.43-.47-.61-.88-.69-.21-.04-.34,.04-.31,.27,.04,.36,.16,.67,.64,.64Z"/>
      <path class="cls-12" d="M44.12,8.26s-.09-.02-.13-.04c-.04-.07-.09-.09-.16-.05-.08-.01-.15-.03-.23-.04-.24-.19-.51-.16-.78-.11-.43,0-.86,0-1.28,0-.58-.05-1.15-.07-1.7,.16-.06,.01-.13,.03-.19,.04-.07-.05-.13-.03-.17,.04-.12,.02-.23,.04-.35,.06-.31-.02-.6,.02-.84,.22-.08,.02-.15,.05-.23,.07-.07-.08-.11-.05-.13,.03-.03,.02-.07,.03-.11,.03-.34,.03-.67,.1-.92,.36,0,0,0,0,0,0-.15-.02-.29-.02-.37,.14-.03,.02-.06,.03-.1,.03-.42,.02-.75,.21-1.06,.47-.03,.02-.06,.04-.09,.04-.56,.1-1.05,.33-1.43,.75,0,0,0,0,0,0-.15-.03-.25,.04-.3,.18,0,0-.04,.02-.04,.02-.16,.01-.3,.04-.35,.23-.03,.03-.06,.06-.1,.07-.29,.06-.55,.16-.66,.48-.06,.04-.12,.09-.18,.13-.14-.09-.4,.35-.46-.1,.1-.13,.19-.25,.29-.38,.08-.01,.11-.06,.1-.14,.08-.09,.16-.18,.24-.27,.08-.01,.13-.05,.12-.14,.06-.07,.12-.15,.18-.22,.18,0,.24-.11,.22-.28,.22-.25,.45-.5,.67-.75,.17,0,.25-.09,.24-.26,.29-.44,.67-.8,1.06-1.16,.08,0,.11-.04,.11-.11,.4-.43,.79-.86,1.28-1.19,.23-.01,.36-.14,.39-.36,.25-.23,.5-.46,.75-.68,.17,.03,.27-.04,.28-.21,.43-.35,.85-.71,1.28-1.06,.16,.02,.25-.04,.28-.2,.2-.15,.41-.3,.61-.45,.17,.03,.26-.03,.29-.2,.2-.15,.4-.3,.61-.45,.16,.03,.27-.01,.3-.19,.02-.04,.05-.06,.09-.07,.17,.03,.27-.03,.29-.2,.03-.03,.06-.05,.11-.05,.24-.02,.46-.07,.54-.34,.02-.03,.05-.05,.09-.05,.16,.03,.27-.02,.29-.2,.2-.11,.4-.22,.59-.34,.09,.03,.13-.01,.17-.09,.25-.14,.5-.28,.75-.42,.62-.17,1.25-.34,1.73-.81,.08-.02,.16-.03,.25-.05,.16,.15,.23,.07,.26-.1,.26-.05,.51-.06,.77,0,.05,.88,0,1.74-.17,2.61-.14,.74-.4,1.47-.39,2.23-.03,.09-.05,.17-.08,.26-.19,.32-.39,.63-.3,1.03-.03,.09-.05,.17-.08,.26-.34,.47-.43,1.04-.64,1.56-.08,.2-.07,.49-.39,.5-.06-.01-.11-.02-.17-.03-.11-.05-.23-.09-.34-.14-.06-.1-.15-.11-.26-.08Z"/>
      <path class="cls-12" d="M60.68,53.32c.1,.04,.21,.08,.31,.13,.06,.17,.18,.2,.34,.13,.24,.09,.47,.19,.71,.28,.04,.01,.09,.02,.13,.04,.04,0,.08,.02,.13,.03,.08,.14,.22,.14,.36,.12,0,0,.02,0,.02,0,.32,.34,.78,.33,1.17,.45,2.11,.64,4.27,.88,6.47,.77,.06,0,.12-.01,.18-.02,.77,.09,1.37-.27,1.91-.71,.44,.6,.53,1.37,1.03,1.94,.04,.11,.07,.22,.11,.33,.25,1.04,.58,2.05,1.02,3.02,.02,.08,.04,.17,.06,.25-.13,.17-.08,.3,.11,.39,0,.08,.01,.16,.02,.24-.47,.13-.89-.24-1.36-.14-.08-.02-.17-.04-.25-.06-.05-.15-.12-.23-.27-.09-.08-.01-.17-.03-.25-.04,0-.08-.04-.11-.1-.1-.02,0-.04,.06-.06,.09-.05,.02-.09,.05-.14,.07-.18-.06-.26-.31-.5-.24-.04,0-.08,0-.11-.03-.04-.07-.09-.1-.16-.06-.08-.02-.15-.04-.23-.06-.09-.14-.22-.15-.37-.13-.1-.03-.19-.07-.29-.1-.03-.08-.08-.1-.16-.05-.07-.03-.15-.05-.22-.08-.31-.31-.71-.38-1.13-.42h-.01c-.06-.11-.15-.14-.26-.11-.04-.01-.08-.03-.12-.04-.05-.02-.1-.05-.15-.07-.04,0-.08-.02-.11-.04-.03-.07-.08-.1-.16-.07-.04,0-.07-.02-.1-.05-.03-.08-.08-.1-.16-.08-.04,0-.07-.02-.11-.04-.2-.17-.38-.39-.69-.32-.12-.06-.24-.12-.35-.18-.03-.08-.08-.11-.16-.08-.07-.03-.13-.07-.2-.1-.11-.25-.31-.32-.57-.31-.04,0-.07-.02-.09-.05-.03-.07-.08-.11-.15-.09-.04,0-.07-.03-.1-.05-.02-.07-.07-.1-.15-.09h0c-.01-.09-.06-.12-.15-.1-.75-.41-1.47-.87-2.15-1.4-.34-.08-.44-.45-.73-.6-.88-.58-1.64-1.3-2.38-2.04,.09-.18,.27-.12,.41-.16,0,0,0,0,0,0,.03,.09,.09,.12,.18,.09Z"/>
      <path class="cls-7" d="M44.89,8.5c.33-.01,.31-.29,.39-.5,.21-.52,.3-1.09,.64-1.56-.26,1.29-.84,2.47-1.33,3.68-1.71,4.21-3.88,8.17-6.63,11.8-1,1.32-2.1,2.55-3.28,3.71-.11,.11-.34,.17-.27,.38,.07,.22,.29,.13,.45,.14,5.11,.31,9.69,2.08,13.81,5.05,1.57,1.13,2.93,2.51,4.06,4.09,.26,.36,.55,.64,.95,.83,3.25,1.59,6.3,3.5,9.07,5.82,1.68,1.41,3.23,2.95,4.65,4.62,.08,.09,.26,.21,.04,.36-.05,0-.1,0-.15,0-.03-.04-.07-.08-.1-.12-1.56-1.68-3.16-3.33-4.94-4.79-2.5-2.05-5.2-3.8-8.09-5.24-.13-.06-.25-.17-.42-.1-.09,.3,.18,.58,.04,.88-.18,.05-.22-.09-.27-.2-1.65-3.33-4.38-5.56-7.48-7.42-2.08-1.25-4.33-2.08-6.67-2.69-.14-.04-.28-.1-.42-.14-.25-.18-.52-.28-.84-.22-.11-.01-.21-.03-.32-.04-.08-.12-.19-.12-.32-.09-.06,0-.12-.01-.18-.02-.2-.02-.39-.17-.61-.1-.15-.02-.29-.03-.44-.05-.26-.22-.55-.11-.83-.1-.15,0-.3-.01-.45-.02-.65-.21-1.29-.25-1.93,.03-.14,.01-.27,.02-.41,.03-.3-.19-.58,0-.87,.05-.08,0-.16,.01-.23,.02-.18-.07-.47,.1-.54-.24,.19-.08,.39-.11,.6-.06,.11,.02,.21,.02,.29-.07,.09,0,.18,0,.27-.01,.05,.06,.09,.05,.12-.01l.5-.03c.06,0,.12,0,.18,0,.54-.01,.95-.24,1.35-.63,1.54-1.51,2.92-3.15,4.17-4.9,.99-1.4,2.01-2.78,2.72-4.35,0,0,.01-.02,.01-.02,.03-.04,.06-.09,.09-.13,0,0,.02-.02,.02-.02,0,0,.05,.01,.05,.01h.05c.08-.05,.12-.12,.11-.21,0,0,.01-.05,.01-.05,.16-.06,.16-.21,.18-.35,0,0,.02-.03,.02-.03,.34-.19,.45-.49,.44-.86-.01-.02,0-.04,.02-.05,.09-.04,.12-.11,.11-.2,0,0,.01-.05,.01-.05,.09-.04,.12-.11,.11-.21,0,0,0-.05,0-.05,.22-.13,.29-.33,.26-.57-.01-.03,0-.05,.02-.07,.04-.06,.07-.13,.11-.19-.01-.03,0-.05,.02-.07,.19-.13,.26-.32,.25-.54,.03-.08,.07-.15,.1-.23,.32-.2,.32-.54,.4-.85-.01-.02,0-.04,.02-.06,.03-.07,.07-.13,.1-.2-.02-.03-.01-.05,.02-.06,.08-.04,.12-.11,.11-.2,0,0,.01-.05,.01-.05,.09-.04,.12-.11,.11-.21,0,0,0-.05,0-.05,.23-.13,.3-.33,.26-.58-.01-.03,0-.05,.02-.06,.04-.06,.08-.13,.11-.19-.01-.03,0-.05,.02-.07,.17-.11,.23-.27,.23-.47,0,0,.01-.05,.01-.05,.25-.21,.41-.44,.3-.78Z"/>
      <path class="cls-6" d="M31.73,11.47c.06,.45,.32,.02,.46,.1-2.79,3.22-4.65,6.96-6.02,10.96-.57,1.67-1,3.37-1.23,5.12-.03,.19-.14,.42,.01,.55,.18,.14,.35-.06,.51-.15,.6-.33,1.21-.63,2.04-.64-.33,.34-.66,.47-.98,.61-1.6,.71-2.97,1.73-3.98,3.17-.73,1.03-1.22,2.22-1.8,3.34-.6,1.16-1.17,2.34-1.75,3.51-.15,.1-.22,.25-.22,.43,0,.03-.01,.06-.03,.08-.03,.06-.07,.11-.1,.17,0,.03,0,.07-.03,.1-.06-.06-.13-.13-.19-.19,.76-2.12,1.9-4.07,2.89-6.08,.68-1.36,1.49-2.6,2.75-3.49,.28-.2,.31-.49,.35-.79,.31-2.41,.94-4.74,1.77-7.01,1.28-3.51,3.16-6.69,5.39-9.68,.03-.05,.1-.06,.16-.1Z"/>
      <path class="cls-7" d="M38.06,107.27c-.88-.35-1.66-.89-2.42-1.45-.25-.19-.57-.43-.64-.7-.17-.75-.7-.76-1.29-.82-3.37-.31-6.74-.73-10.12-.95-1.96-.12-3.95,.07-5.92,.12-.15,0-.31,0-.38,.18-.49,1.15-1.66,1.35-2.63,1.77-.55,.24-1.1,.55-1.74,.51,.04-.11,.09-.23,.13-.34,.03-.01,.06-.02,.1-.02,.22,.01,.41-.06,.55-.24h0c.15,0,.31,.03,.4-.15,.45-.19,.91-.38,1.36-.56,.36-.15,.72-.28,1.02-.53,.13-.11,.28-.23,.21-.43-.06-.18-.24-.15-.39-.16-.45-.05-.9-.07-1.34-.14-.36-.05-.77-.05-.95-.54,1.4,.04,2.73,.26,4.08,.21,2.01-.07,4.04-.29,6.04-.07,3.95,.44,7.93,.59,11.85,1.2,.06,0,.11,0,.17,0,.08,0,.15,.01,.23,.02-.09,.43-.46,.17-.68,.28l-.46,.1c-.18,.17,0,.27,.07,.39,.1,.19,.28,.31,.44,.45,.77,.68,1.71,1.11,2.57,1.64,0,.17-.1,.23-.25,.24Z"/>
      <path class="cls-7" d="M46.34,86c-.29-1.23-.48-2.49-.55-3.75,0-.13-.01-.26-.02-.39,0-.06,0-.13-.01-.19,0-.08,0-.16,0-.25-.05-.08-.07-.16,0-.24,.12-.62-.13-1.21-.12-1.82,0-.09,0-.18,0-.27,.27-1,.11-2.01,.14-3.02-.06-.4,0-.78,.18-1.14,.1,0,.17,.03,.22,.12,0,.17,0,.34-.01,.51-.16,.17-.16,.34-.01,.51,0,.09-.01,.18-.02,.27-.16,.21-.08,.44-.07,.67-.02,.46-.03,.92-.05,1.39-.01,.01-.04,.03-.04,.04,0,.03,.02,.06,.03,.09,0,.09,0,.17,0,.26-.01,.01-.04,.03-.04,.04,0,.03,.02,.06,.03,.09,0,.24,.09,.41,.33,.49,.39,.13,.76,.29,1.15,.41,2.25,.7,4.56,.96,6.9,1.04,1.01,.03,2.01,.05,2.99-.24,.05,.02,.1,.03,.15,.05,.21,.19,.61-.15,.74,.26-.09,.01-.17,.02-.26,.04-.12-.14-.19-.09-.25,.05-1.28,.34-2.59,.25-3.89,.18-.47-.03-.94-.02-1.41-.07-.44-.04-.55,.15-.54,.56,.01,.86-.05,1.71-.03,2.57,.01,.45-.16,.73-.5,.97-1.44,1.01-2.87,2.01-4.31,3.02-.1-.02-.2,.13-.29,0-.01-.22,.05-.39,.28-.47,1.12-.79,2.21-1.63,3.36-2.36,.8-.5,1.19-1.09,1.05-2.04-.07-.46-.05-.95,0-1.41,.08-.64-.21-.88-.79-.96-1.34-.19-2.65-.47-3.92-.94-.68-.25-.8-.14-.7,.58,.2,1.54,.11,3.1,.46,4.62-.01,.01-.04,.03-.04,.04,.01,.03,.03,.06,.05,.08,0,.04,.01,.09,.02,.13,0,.13-.03,.27,.09,.38,0,.09,.02,.18,.03,.26-.11-.04-.22-.08-.33-.13Z"/>
      <path class="cls-7" d="M3.38,91.81c.02,1.27-.17,2.55,.21,3.8,.08,.25,.13,.49,.27,.71,.74,2.77,2.65,4.4,5.38,5.34-.92,.42-1.6-.53-2.36-.06-.67,.41-1.42,.68-2.01,1.23-.17,.02-.35,.02-.48,.16-.11,0-.2,.04-.25,.15-.09,.07-.19,.14-.28,.21-.08,.06-.16,.12-.24,.18-.2,.09-.39,.19-.52,.38-.23,.05-.4,.19-.53,.38h0c-.16,.04-.29,.12-.37,.28h0s-.1,.08-.15,.11h0c-.1,0-.19,.05-.22,.15-.05,.04-.1,.07-.16,.11-.58,.26-.99,.71-1.32,1.24-.08,.13-.12,.29,.01,.41,.15,.14,.27,0,.38-.09,.5-.42,1.01-.84,1.51-1.26,.03,0,.05,0,.06-.03,.11,0,.21-.03,.26-.14h0c.15,0,.27-.06,.34-.2,.23-.11,.46-.21,.69-.32,.13,.05,.39-.1,.33,.22-.07,.05-.14,.09-.21,.14-.05,.04-.1,.07-.15,.11h-.01c-.19,.03-.36,.1-.48,.26-.08,.05-.17,.1-.25,.16l-.16,.1h0c-.11,0-.2,.04-.26,.15-.08,.05-.15,.1-.23,.14-.05,.04-.11,.08-.16,.11-.22,.05-.36,.21-.5,.37-.35,.15-.58,.41-.77,.72-.08,.13-.1,.29,.05,.4,.15,.11,.31,.07,.39-.07,.18-.34,.57-.43,.79-.72,.11-.06,.22-.11,.33-.17,.06-.03,.12-.06,.18-.09,.07-.03,.13-.06,.2-.09,.25-.05,.48-.14,.68-.3,.13-.03,.28,0,.37-.13,.08-.01,.17-.02,.25-.03l.3-.08c.09,.27-.1,.29-.28,.37-.69,.33-1.37,.67-2.04,1.04-.18,.1-.55,.31-.03,.5,.38,.15,.76,.2,1.14,0,.09-.01,.19-.03,.28-.04-.04,.1-.09,.19-.13,.29-.2,.02-.41,.04-.61,.05-.12-.05-.22-.04-.29,.08-.18,.05-.36,.05-.54,0-.04-.07-.1-.09-.17-.04-.12-.03-.25-.06-.37-.09-1.35-.33-1.69-1.54-.71-2.56,1-1.04,2.18-1.85,3.43-2.56,.78-.44,1.55-.9,2.35-1.32,.47-.25,.55-.4,.06-.76-1.21-.89-2.13-2.03-2.66-3.45,.03-.12,.02-.23-.1-.3-.25-.51-.41-1.03-.43-1.6,.03-.13,.03-.25-.1-.33-.18-.9-.16-1.8,0-2.7,.15-.08,.14-.2,.1-.33,.02-.15,.03-.3,.05-.45,.09,0,.17,0,.26,0-.02,.04-.04,.09-.06,.13-.03,.04-.05,.09-.08,.13Z"/>
      <path class="cls-7" d="M3.56,53.11c.11,.47,.22,.95,.33,1.42,0,.19,0,.39,.03,.57,.76,4.48,2.48,8.6,4.69,12.53,.55,.97,1.13,1.92,1.7,2.89,.07,.12,.21,.27,.09,.41-.16,.17-.26-.01-.36-.11-.32-.33-.38-.05-.42,.19-.1,.56-.18,1.13-.27,1.7,0,.09-.02,.17-.03,.26-.19,.34-.25,.72-.23,1.1,0,.11-.01,.21-.02,.32-.14-.07-.14-.21-.18-.34,.02-.19,.04-.38,.05-.57,.12-.08,.12-.19,.09-.31,.01-.11,.03-.22,.04-.33,.02-.01,.05-.02,.05-.03,0-.03-.02-.06-.04-.09-.03-.27,0-.53,.11-.78,.02,0,.05-.02,.05-.03,0-.03-.02-.06-.03-.09,.03-.56-.03-1.13,.11-1.68,.18-.18,.19-.35,0-.52-1.76-2.93-3.31-5.95-4.41-9.2-1.43-4.23-2.02-8.58-2.05-13.03,.02-.2,.09-.4-.08-.58-.02-1.16-.07-2.31-.05-3.47,0-.57-.37-1.12-.11-1.7,.29,.19-.01,.6,.29,.78,0,.06,0,.13,.01,.19,.02,.06,.04,.13,.05,.19,0,.09,.01,.18,.02,.27-.12,.35-.21,.7,.07,1.03,.08,.26,.06,.52,.04,.78-.1,.6-.19,1.2,.06,1.79,0,.24,.01,.48,.02,.71,0,.08,0,.17,0,.25,0,.03,.02,.06,.03,.09,0,.01-.02,.03-.03,.04-.09,.68,0,1.35,.11,2.02,0,.27,0,.54,.01,.81,0,.09,0,.18,0,.26,.06,.12,.07,.25,.01,.37-.1,.32,.04,.61,.11,.9,0,.03,.02,.06,.03,.09,0,.01-.01,.03-.02,.04-.02,.29-.11,.59,.16,.83Z"/>
      <path class="cls-6" d="M8.88,74.06c.04,.12,.04,.27,.18,.34-.11,1.42-.54,2.77-.94,4.12-1.06,3.63-2.5,7.12-3.76,10.68-.28,.79-.56,1.57-.85,2.35-.09,0-.17,0-.26,0,.14-.96,.54-1.84,.87-2.74,1.3-3.57,2.69-7.12,3.75-10.77,.32-1.11,.54-2.25,.81-3.37,.05-.2,.02-.43,.19-.6Z"/>
      <path class="cls-7" d="M55.85,66.53c-.08-.06-.16-.12-.23-.19,.04-.1,.09-.19,.13-.29,.08,.06,.15,.12,.23,.18,.04,.14,.15,.16,.27,.16,2.09,1.52,3.95,3.29,5.43,5.4,.58,.83,1.26,1.1,2.14,1.27,.53,.1,.97,.09,1.22-.47,.04-.05,.07-.1,.11-.14,0-.04,.02-.08,.05-.11,.11,.02,.19,.08,.23,.19-.07,.15-.15,.3-.21,.46-.19,.48-.5,.7-1.04,.53-.3-.09-.42-.11-.57,.37-.19,.64,.12,1,.27,1.47,.03,.06,.07,.13,.1,.19,.03,.02,.03,.05,.02,.08,0,.23-.02,.46-.02,.69-.12,.09-.24,.19-.36,.28-.1,.08-.2,.16-.3,.25-.08-.17-.11-.37,.06-.47,.46-.26,.42-.6,.2-.96-.19-.3-.25-.78-.8-.66-.11,.02-.25,0-.24-.13,0-.08,.1-.18,.17-.24,.71-.61,.66-.91-.23-1.21-.23-.08-.45-.15-.59-.36-1.44-2.24-3.35-4.05-5.39-5.72-.05-.04-.08-.1-.13-.14-.05-.05-.11-.09-.16-.14,0,0,0,.01,0,.01-.02-.12-.11-.16-.22-.17,0,0-.01,0-.01,0-.04-.04-.09-.07-.13-.11Z"/>
      <path class="cls-6" d="M65.42,72.52c-.04-.11-.12-.17-.23-.19,.9-1.55,1.8-3.09,2.68-4.65,1.28-2.27,2.54-4.54,3.81-6.82,.12-.21,.26-.4,.13-.65,.24-.08,.33,.17,.5,.24-1.31,2.33-2.62,4.65-3.94,6.98-.86,1.53-1.73,3.05-2.6,4.57-.1,.18-.24,.35-.36,.52Z"/>
      <path class="cls-6" d="M17.46,41.3s0,.07-.02,.1c-.04,.05-.07,.1-.11,.15-.01,.42-.44,.67-.45,1.09-.15,.15-.5,.08-.47,.43h0c-.33-.06-.52,.1-.64,.39h0s-.09,.09-.13,.13h0s-.09,.09-.13,.13h0c-.09,.03-.13,.1-.13,.19h0c-.15,.06-.28,.13-.26,.33h.01c-.2,.1-.41,.19-.61,.27-1.21-1.43-2.42-2.85-3.63-4.28-.17-.2-.38-.46-.63-.32-.79,.46-1.1-.15-1.48-.61-.05-.06-.09-.14-.13-.22,.11-.02,.22-.04,.33-.06,.14,.13,.31,.23,.43,.38,.19,.25,.38,.29,.65,.13,.36-.21,.73-.18,.96,.18,.83,1.31,2.03,2.3,2.94,3.55,.71,.97,.74,.95,1.58,.06,.67-.71,1.32-1.45,1.81-2.31,.25,.02,.11,.19,.11,.29Z"/>
      <path class="cls-6" d="M38.06,107.27c.15-.01,.25-.07,.25-.24,.16,.06,.33,.09,.47,.17,1.45,.78,3,1.33,4.54,1.9,.29,.27,.66,.32,1.02,.39,1,.47,2.06,.75,3.13,.99,.68,.15,1.33,.46,2.06,.41,0,.12,0,.24,0,.36-1.8-.24-3.53-.74-5.24-1.36-2.12-.77-4.25-1.52-6.23-2.62Z"/>
      <path class="cls-6" d="M73.43,56.49c-.5-.57-.59-1.34-1.03-1.94-.54,.43-1.14,.8-1.91,.71,.34-.25,.77-.2,1.14-.38,.43-.21,.56-.43,.31-.89-1.17-2.27-2.53-4.41-4.14-6.39-.13-.16-.24-.35-.36-.52,.11,0,.23-.01,.34-.02,1.43,1.54,2.54,3.31,3.6,5.11,.81,1.38,1.52,2.81,2.05,4.33Z"/>
      <path class="cls-13" d="M48.1,97.98c.06-.13,.12-.26,.17-.4,.42-.11,.07-.55,.31-.74,.01,1.97-.84,3.57-2.18,4.95-.51,.53-1.06,1.03-1.7,1.42-.34,.2-.37,.37,0,.64,.98,.67,1.93,1.4,2.89,2.1-.1,.06-.13,.14-.13,.25-.41-.22-.77-.53-1.16-.78-.87-.55-1.6-1.36-2.72-1.45,.13-.13,.29-.24,.26-.46,1.07-.9,2.24-1.68,3.09-2.84,.6-.82,1.05-1.68,1.16-2.7Z"/>
      <path class="cls-7" d="M47.48,106.2c0-.11,.03-.19,.13-.25,1.21,.78,2.22,1.77,3.14,2.87,.67,.8,.65,1.02,.26,1.93-.34,.78-.95,.44-1.48,.49,0-.12,0-.24,0-.36,.02-.02,.04-.04,.07-.04,.13,0,.26,0,.39,0,.03,0,.05,.02,.06,.04,.12,.16,.24,.15,.38,.03,.39-.15,.23-.4,.1-.62-.51-.82-1.25-1.39-2.03-1.92-.03-.03-.06-.06-.09-.09,.31-.33,.55-.02,.75,.13,.6,.43,1.17,.9,1.64,1.49-.27-1.17-1.15-1.86-2.02-2.55-.19-.24-.4-.47-.67-.62-.04-.03-.08-.07-.12-.1-.03-.02-.07-.04-.11-.04-.09-.08-.18-.17-.28-.25-.03-.03-.06-.04-.1-.02h0c0-.05,0-.09,0-.14Z"/>
      <path class="cls-6" d="M63.31,76.85c.1-.08,.2-.16,.3-.25,.03,.21,.04,.43,.08,.63,.1,.47-.06,.81-.47,1.01-.3,.14-.43,.32-.47,.67-.06,.6-.28,1.14-1.04,1.15-.25,0-.29,.19-.35,.38-.36,1.15-.39,1.16-1.52,.78-.5-.17-.99-.42-1.55-.31-.13-.41-.53-.07-.74-.26,.87-.39,1.68-.07,2.47,.24,.57,.22,.85,.11,.93-.5,.05-.39,.22-.67,.69-.69,.55-.02,.7-.45,.69-.91,0-.36,.08-.63,.43-.76,.59-.21,.68-.65,.55-1.18Z"/>
      <path class="cls-6" d="M48.59,96.84c-.24,.19,.11,.63-.31,.74,.03-1.98-.57-3.85-1.06-5.73-.05-.18-.01-.38-.02-.58,0-.05,0-.09-.01-.14-.03-.17-.06-.34-.09-.51,.16-.06,.22-.01,.22,.16,0,.16-.07,.34,.1,.47,.5,1.84,1.19,3.64,1.17,5.59Z"/>
      <path class="cls-13" d="M3.26,107.91c.04-.1,.09-.19,.13-.29,.75-.26,1.54-.29,2.31-.46,.99-.21,2.02-.23,3-.54,.08,0,.15,.02,.23,.03,.04,.08,.08,.17,.12,.25-.87,.32-1.79,.38-2.69,.52-1.03,.16-2.07,.33-3.1,.49Z"/>
      <path class="cls-7" d="M4.16,40.5s0,.09,0,.13c-.07-.07-.15-.13-.22-.2,.06-.46,.43-.46,.72-.38,.5,.14,.73-.09,.98-.46,.44-.68,.61-.74,1.36-.35,.53,.28,.76-.24,1.15-.3,0,.09,0,.17,0,.26-.13,.11-.28,.2-.38,.34-.24,.33-.49,.33-.81,.09-.24-.18-.58-.4-.77-.03-.43,.83-1.11,.92-1.91,.78-.09,0-.13,.04-.13,.13Z"/>
      <path class="cls-6" d="M9.05,106.89c-.04-.08-.08-.17-.12-.25,1.37-.35,2.71-.83,4.11-1.06-.04,.11-.09,.23-.13,.34-1.28,.37-2.52,.85-3.86,.96Z"/>
      <path class="cls-13" d="M47.42,91.26c-.16-.13-.09-.31-.1-.47,0-.18-.07-.22-.22-.16-.3-.79-.32-1.62-.41-2.44,.04,0,.08,.01,.11,.02,.09,.14,.19-.01,.29,0-.09,.95,.31,1.84,.37,2.77,0,.1,.1,.2-.04,.28Z"/>
      <path class="cls-7" d="M46.39,4.89c-.01-.77,.24-1.49,.39-2.23,.17-.87,.22-1.73,.17-2.61,.31,.28,.26,.65,.23,1-.1,1.31-.41,2.59-.78,3.85Z"/>
      <path class="cls-13" d="M17.46,41.3c0-.11,.13-.28-.11-.29,.39-.77,.59-1.64,1.07-2.37,.06,.06,.13,.13,.19,.19-.27,.88-.58,1.74-1.14,2.47Z"/>
      <path class="cls-6" d="M74.56,59.84c-.44-.97-.76-1.98-1.02-3.02,.51,.95,.85,1.96,1.02,3.02Z"/>
      <path class="cls-13" d="M3.94,40.43c.07,.07,.15,.13,.22,.2-.01,.15-.01,.3-.04,.45-.06,.38-.24,.56-.62,.32,.15-.32,.3-.64,.44-.96Z"/>
      <path class="cls-6" d="M45.67,.19c-.48,.47-1.1,.65-1.73,.81,.52-.4,1.13-.58,1.73-.81Z"/>
      <path class="cls-6" d="M2.88,42.43c-.3-.19,0-.59-.29-.78,.06-.47,.5,.12,.61-.22-.11,.33-.36,.63-.32,1.01Z"/>
      <path class="cls-6" d="M73.39,60.58c.47-.1,.89,.27,1.36,.14-.13,.4-.39,.16-.6,.11-.26-.06-.51-.16-.77-.24Z"/>
      <path class="cls-7" d="M46.01,6.18c-.08-.4,.11-.71,.3-1.03-.03,.36-.13,.71-.3,1.03Z"/>
      <path class="cls-13" d="M8.97,39.02c-.11,.02-.22,.04-.33,.06,0,0,.02,0,.02,0-.05-.12-.09-.09-.14,0l-.04,.02s-.05,0-.05,0c-.07-.07-.15-.14-.22-.21,.31-.23,.55-.13,.77,.14Z"/>
      <path class="cls-6" d="M63.97,76.32c0-.23,.02-.46,.02-.69,.24,.24,.31,.47-.02,.69Z"/>
      <path class="cls-6" d="M42.05,2.1c-.08,.27-.3,.32-.54,.34,.12-.21,.31-.31,.54-.34Z"/>
      <path class="cls-6" d="M9.29,69.62c.2,.17,.19,.34,0,.52,0-.17,0-.34,0-.52Z"/>
      <path class="cls-6" d="M36.63,6.21c-.03,.23-.16,.35-.39,.36,.07-.18,.19-.32,.39-.36Z"/>
      <path class="cls-6" d="M74.73,60.48c-.19-.09-.24-.21-.11-.39,.1,.11,.18,.23,.11,.39Z"/>
      <path class="cls-6" d="M2.75,46.81c.17,.17,.1,.38,.08,.58-.11-.18-.14-.37-.08-.58Z"/>
      <path class="cls-6" d="M3.64,96.95c.13,.07,.13,.18,.1,.3-.11-.07-.14-.17-.1-.3Z"/>
      <path class="cls-6" d="M3.12,95.02c.13,.08,.13,.2,.1,.33-.09-.09-.14-.2-.1-.33Z"/>
      <path class="cls-6" d="M9.02,73.17c.03,.12,.03,.23-.09,.31-.05-.13-.04-.24,.09-.31Z"/>
      <path class="cls-6" d="M3.21,91.99c.04,.13,.05,.26-.1,.33-.05-.14,0-.24,.1-.33Z"/>
      <path class="cls-6" d="M57.77,81c.06-.14,.14-.19,.25-.05-.08,.02-.17,.03-.25,.05Z"/>
      <path class="cls-6" d="M32.88,10.04c.02,.16-.04,.27-.22,.28,0-.15,.07-.24,.22-.28Z"/>
      <path class="cls-6" d="M33.79,9.03c0,.17-.07,.25-.24,.26,.02-.14,.1-.22,.24-.26Z"/>
      <path class="cls-13" d="M2.35,108.04c.07-.11,.17-.13,.29-.08-.08,.1-.17,.15-.29,.08Z"/>
      <path class="cls-6" d="M72.87,60.44c.15-.14,.22-.06,.27,.09-.11,.03-.19-.01-.27-.09Z"/>
      <path class="cls-6" d="M37.67,5.31c-.02,.18-.11,.24-.28,.21,.04-.14,.14-.21,.28-.21Z"/>
      <path class="cls-6" d="M39.22,4.05c-.03,.16-.12,.22-.28,.2,.04-.14,.14-.2,.28-.2Z"/>
      <path class="cls-6" d="M40.12,3.39c-.02,.17-.12,.24-.29,.2,.05-.14,.15-.19,.29-.2Z"/>
      <path class="cls-6" d="M41.03,2.75c-.03,.18-.14,.22-.3,.19,.05-.14,.17-.17,.3-.19Z"/>
      <path class="cls-6" d="M41.41,2.49c-.03,.17-.13,.23-.29,.2,.05-.14,.14-.22,.29-.2Z"/>
      <path class="cls-6" d="M42.44,1.84c-.02,.18-.13,.23-.29,.2,.05-.14,.16-.18,.29-.2Z"/>
      <path class="cls-6" d="M46.17,.04c-.03,.17-.1,.25-.26,.1,.06-.11,.15-.12,.26-.1Z"/>
      <path class="cls-6" d="M8.2,38.88c.07,.07,.15,.14,.22,.21-.09,.03-.19,.07-.28,.1,0-.09,0-.17,0-.26,0-.04,.02-.06,.06-.06Z"/>
      <path class="cls-6" d="M72.46,60.39s.03-.08,.06-.09c.07-.01,.11,.02,.1,.1-.05,0-.11,0-.16,0Z"/>
      <path class="cls-7" d="M67.78,47.05c-.11,0-.23,.01-.34,.02,0-.05,.02-.1,.02-.15,.2-.18,.24,.02,.31,.13Z"/>
      <path class="cls-6" d="M9.19,71.82s.03,.06,.03,.09c0,0-.03,.02-.05,.03,0-.04,.01-.08,.02-.12Z"/>
      <path class="cls-6" d="M9.07,72.72s.03,.06,.04,.09c0,0-.03,.02-.05,.03,0-.04,0-.08,0-.12Z"/>
      <path class="cls-6" d="M63.97,75.55c-.03-.06-.07-.13-.1-.19,.08,.04,.12,.1,.1,.19Z"/>
      <path class="cls-6" d="M32.12,10.96c0,.08-.02,.13-.1,.14-.02-.09,.02-.13,.1-.14Z"/>
      <path class="cls-6" d="M32.48,10.54c0,.09-.04,.13-.12,.14,0-.08,.03-.13,.12-.14Z"/>
      <path class="cls-13" d="M1.65,107.99c.07-.04,.13-.03,.17,.04-.06-.01-.11-.03-.17-.04Z"/>
      <path class="cls-6" d="M34.96,7.76c0,.07-.03,.11-.11,.11,0-.08,.03-.11,.11-.11Z"/>
      <path class="cls-6" d="M43.2,1.42c-.03,.07-.08,.12-.17,.09,.03-.08,.09-.11,.17-.09Z"/>
      <path class="cls-11" d="M13.04,105.59c-1.4,.23-2.74,.7-4.11,1.06-.08,0-.15-.02-.23-.03-.23-1.47-1.03-2.52-2.34-3.21-.47-.25-1.05-.21-1.47-.57,.58-.55,1.34-.82,2.01-1.23,.76-.47,1.44,.48,2.36,.06-2.73-.94-4.65-2.57-5.38-5.34,.34-.03,.46,.28,.68,.43,2.12,1.39,4.42,2,6.95,1.65,.32-.04,.64-.02,.96-.02,3.54,0,7.09-.05,10.63,0,2.78,.05,5.56,.16,8.33,.4,2.2,.19,4.38,.69,6.58,.94,1.61,.18,3.23,.34,4.86,.1,.8-.12,1.61-.13,2.41-.31,.97-.22,1.77-.72,2.49-1.38,.1-.09,.2-.16,.34-.16-.11,1.02-.56,1.87-1.16,2.7-.85,1.16-2.02,1.94-3.09,2.84-.43-.03-.8,.09-1.12,.45,.33,.12,.6,.11,.87,0,1.11,.09,1.85,.9,2.72,1.45,.39,.25,.75,.56,1.16,.78,0,.04,0,.09,0,.13-.54,.18-1.1,.31-1.61,.55-.92,.45-1.92,.81-2.31,1.91-.18,.02-.23,.15-.24,.3-1.54-.58-3.09-1.12-4.54-1.9-.15-.08-.32-.12-.47-.17-.86-.54-1.8-.96-2.57-1.64-.16-.14-.33-.26-.44-.45-.02-.13-.05-.26-.07-.39,.15-.03,.31-.06,.46-.1,.7,.35,3.09,.29,3.42-.09-.91-.13-1.82-.23-2.74-.19-.08,0-.15-.01-.23-.02-.06-.06-.11-.05-.17,0-3.93-.62-7.91-.77-11.85-1.2-2-.22-4.03,0-6.04,.07-1.35,.04-2.68-.17-4.08-.21,.18,.5,.59,.49,.95,.54,.44,.07,.89,.09,1.34,.14,.14,.02,.32-.02,.39,.16,.07,.2-.08,.32-.21,.43-.3,.25-.66,.38-1.02,.53-.46,.19-.91,.38-1.36,.56-.16-.04-.29,.03-.4,.15,0,0,0,0,0,0-.21,.02-.44-.01-.55,.24-.03,0-.07,0-.1,.02Z"/>
      <path class="cls-9" d="M9.34,72.71c.09-.57,.17-1.13,.27-1.7,.04-.25,.1-.52,.42-.19,.1,.1,.2,.29,.36,.11,.12-.14-.02-.28-.09-.41-.56-.96-1.15-1.91-1.7-2.89-2.22-3.93-3.93-8.06-4.69-12.53-.03-.19-.02-.38-.03-.57,.6,.33,.61,1,.85,1.51,.67,1.41,1.14,2.92,1.9,4.28,1.76,3.17,3.52,6.34,5.82,9.17,.81,.99,.91,1.64,.24,2.41-.81,.93-1.41,1.4-2.79,.88-.17-.07-.38-.05-.57-.07Z"/>
      <path class="cls-12" d="M47.98,43.97c1.17,.21,2.22,1.6,2.27,3.01,.06,1.49-.84,2.85-2.19,3.31-1.32,.45-2.76-.02-3.59-1.18-.86-1.2-.84-2.88,.05-4.03,.36-.46,.8-.82,1.31-1.1,.25,.07,.56-.15,.77,.14-.08,.02-.16,.03-.24,.05-.07-.06-.13-.03-.17,.04-.27,.16-.44,.4-.56,.68-.35,.78-.02,1.72,.71,2.02,.76,.31,1.57-.09,1.85-.9,.24-.71-.1-1.44-.89-1.87-.03-.15-.09-.2-.21-.06-.09,0-.18,0-.27,0-.06-.16-.01-.24,.17-.22,.33,.04,.66,.08,.99,.12Z"/>
      <path class="cls-12" d="M23.47,37.63c.06-.07,.13-.14,.19-.22,.11,0,.18-.06,.2-.17,0,0,0,0,0,0,.08,0,.13-.04,.14-.12,0,0,0,0,0,0,.17,.02,.26-.06,.28-.22,.02-.03,.05-.04,.09-.05,.98-.3,1.98-.45,3-.24h0c.03,.08,.08,.11,.17,.08,.03,0,.06,.02,.09,.04,.02,.08,.07,.12,.15,.09,0,0,.02,.01,.02,.01-.02,.11-.04,.22-.05,.34-.17-.02-.34-.06-.51-.06-.86-.02-1.44,.56-1.4,1.39,.04,.78,.74,1.33,1.56,1.22,.84-.11,1.25-.84,1.06-1.91,.02-.07,.03-.13,.05-.2,.05,0,.1,0,.15,.01,0,0,0,0,0,0,0,.08,.04,.13,.11,.14,.03,.02,.05,.05,.05,.08-.03,.09,0,.14,.08,.17,.02,.04,.02,.08,0,.12-.02,.09,0,.14,.1,.15,0,0,0,0,0,0,.22,.83,.16,1.66,.06,2.5-.03,.07-.05,.13-.08,.2-.08,.03-.11,.08-.09,.16-.05,.08-.09,.16-.14,.24-.08,.02-.12,.07-.11,.15,0,.04-.03,.07-.06,.09-.03,.04-.07,.09-.1,.13,0,0,0,0,0,0-.16,0-.25,.09-.25,.26-.12,.1-.23,.19-.35,.29-.18,.01-.33,.08-.41,.25-.02,.02-.05,.04-.09,.04-.09-.03-.14,0-.17,.09-.03,.02-.06,.04-.09,.04-.46-.05-.91,.03-1.34,.18-.09,0-.17,0-.26,.01-.21-.17-.44-.11-.67-.09-.07-.03-.14-.06-.21-.08-.05-.16-.16-.22-.32-.16-.03,0-.06-.02-.09-.04-.02-.08-.07-.12-.15-.11-.08-.06-.15-.11-.23-.17-.02-.16-.11-.24-.27-.24,0,0,0,0,0,0,0-.17-.08-.25-.24-.27,0,0,0,0,0,0-.03-.04-.07-.09-.1-.13-.03-.02-.05-.06-.06-.09-.51-1.17-.51-2.35,0-3.52,0-.04,.02-.07,.05-.1,.17-.03,.23-.13,.21-.29Z"/>
      <path class="cls-11" d="M29.94,68.34c-2.19,0-3.48-.88-4.31-2.76-.34-.78-.89-1.47-1.07-2.32-.03-.13-.09-.27,.02-.36,.13-.12,.24,.02,.32,.11,.83,.88,1.93,1.37,3.02,1.78,2,.76,4.09,1.24,6.25,1.24,.3,0,.59-.08,.89-.11,.12-.01,.28-.05,.34,.1,.06,.15-.07,.24-.17,.31-1.65,1.14-3.3,2.26-5.29,2.04Z"/>
      <path class="cls-9" d="M46.02,78.78c0-.09,0-.17,0-.26,.02-.04,.02-.08,0-.13,.02-.46,.03-.92,.05-1.39,.16-.21,.1-.44,.07-.67,0-.09,.01-.18,.02-.27,0-.17,0-.34,.01-.51,0-.17,0-.34,.01-.51,.02-.01,.05-.02,.08-.02,0,.43,.25,.71,.56,.96,1.92,1.54,4.06,2.64,6.37,3.5,1.24,.46,2.52,.63,3.8,.84,.19,.03,.4,0,.42,.28-.98,.29-1.98,.27-2.99,.24-2.34-.08-4.66-.33-6.9-1.04-.39-.12-.77-.28-1.15-.41-.24-.08-.33-.25-.33-.49,.02-.04,.02-.08,0-.12Z"/>
      <path class="cls-16" d="M28.9,47.59c-.05-.05-.09-.11-.14-.16-.03-.03-.06-.06-.09-.1-.21-.21-.27-.47-.32-.86,.37,.31,.52,.69,.83,.93,1.24,.99,2.67,.91,4.11,.74,.08-.01,.17-.03,.25-.06,.7-.21,1.16-.09,1.66,.58,1.31,1.78,3.12,2.37,5.36,1.69-.27,.4-.59,.57-.95,.6-.42,.04-.62,.27-.8,.62-.72,1.39-1.31,2.84-2.21,4.13-.03,.04-.05,.09-.08,.13,0,0,0,.01,0,.01-.08,.03-.11,.08-.1,.16,0,.04-.01,.07-.05,.09-.07,0-.15,0-.22,.01l-.04-.04c0-.08,0-.16,0-.25,.2-.35,.37-.73,.62-1.05,.35-.45,.31-.82-.02-1.27-1.47-2.05-3.5-2.87-5.95-2.66-.66,.06-1.37,.16-1.85,.74-.23,.23-.1,.51-.1,.77,0,.13,0,.25,0,.38-.25,.2-.13,.45-.12,.69,0,.16,0,.31,0,.47-.24-.13-.16-.36-.17-.56-.01-.46,0-.92-.01-1.37,0-.09,.01-.18,.02-.27,.22-.28,.1-.59,.1-.9,0-.09,.02-.18,.03-.27,.23-.33,.2-.75,.21-1.1,0-.62,.42-1.23,.04-1.85Zm.25,2.51c0,.38-.03,.77,.51,.42,.07-.04,.16-.08,.24-.09,1.48-.09,2.94-.28,4.37,.45,1.06,.54,1.97,1.21,2.72,2.09,.33,.39,.48,.25,.65-.06,.24-.42,.36-.89,.63-1.31,.25-.39,0-.59-.42-.66-1.19-.19-2.1-.8-2.83-1.76-.27-.36-.67-.9-1.21-.65-1.01,.46-2.03-.03-3.04,.15-.44,.08-.94-.48-1.32-.2-.4,.3-.02,.95-.25,1.4-.04,.07-.03,.17-.03,.22Z"/>
      <path class="cls-15" d="M47.22,62.17c-.31,0-.63-.01-.94-.02-.14,0-.28-.02-.42-.03-1.1,0-1.84-.66-2.44-1.46-1.88-2.54-.64-6.4,2.42-7.64,2.38-.96,4.68-.24,5.85,1.84,.1,.37,.19,.74,.29,1.11,0,.17,.09,.25,.26,.26,.09,.11,.04,.24,.04,.37-.1,1.61-.88,2.93-1.88,4.13-.42,.35-.85,.69-1.27,1.04-.51,0-.92,.31-1.41,.39-.17,0-.33,.01-.5,.02Zm-4.28-3.89c.08,1.24,.69,2.54,2.16,3.2,1.44,.65,2.9,.73,4.21-.41,.78-.68,1.43-1.46,1.94-2.37,1.5-2.62-.33-5.13-2.36-5.53-3.53-.69-5.91,1.91-5.96,5.1Z"/>
      <path class="cls-9" d="M32.75,26.17c-.17,0-.33,.02-.5,.02-.04-.02-.08-.01-.12,.01-.09,0-.18,0-.27,.01-.11-.04-.21-.01-.29,.07-.21-.05-.4-.02-.6,.06-.04-.01-.09-.03-.13-.04,3.28-2.14,5.96-4.91,8.42-7.93,.54-.66,1.09-1.32,1.63-1.98,.08-.09,.16-.14,.27-.12-.71,1.57-1.73,2.96-2.72,4.35-1.25,1.75-2.63,3.39-4.17,4.9-.4,.39-.8,.62-1.35,.63-.06-.07-.12-.07-.18,0Z"/>
      <path class="cls-15" d="M14.51,44.51c.2-.09,.41-.17,.61-.26-.04,.34,.07,.61,.27,.89,.41,.58,.81,1.16,1.16,1.77,.83,1.42,1.68,2.84,2.34,4.36,.14,.33,.28,.56,.71,.28,1.7-1.12,3.01-3.3,2.48-5.51-.45-1.86-2.05-3.44-4.11-3.27-.54,.04-1.05,.21-1.57,.3-.03-.35,.32-.28,.47-.43,2.1-.58,3.57-.15,4.73,1.4,1.21,1.6,1.35,3.85,.36,5.57-.64,1.11-1.56,1.92-2.61,2.61-.13,0-.27,.01-.4,.02,0,0,0,0,0,0-.03-.05-.06-.1-.09-.15-1.26-2.64-2.7-5.17-4.35-7.58Z"/>
      <path class="cls-9" d="M55.29,43.43c.99,2.05,1.99,4.11,2.98,6.16,.41,.85,.87,1.66,1.4,2.44,.14,.2,.35,.39,.31,.68-.09-.06-.19-.1-.26-.18-1.87-1.91-3.47-4.02-4.9-6.28-.09-.15-.2-.31-.12-.48,.26-.58,.2-1.22,.41-1.8,.02-.05,.04-.1,.05-.15,0-.13,.01-.27,.02-.4h.05s.05,0,.05,0Z"/>
      <path class="cls-15" d="M28.5,51.97c0,.46,0,.92,.01,1.37,0,.2-.07,.43,.17,.56,.15,.33,.07,.68,.07,1.01,0,1.29,.08,2.57,.54,3.79,.49,1.29,1.74,1.82,2.97,1.21,1.62-.81,2.64-2.2,3.53-3.7,.11-.13,.13-.33,.32-.39,0,.08,0,.16,0,.25-.08,.17-.41,.32-.05,.52-.91,1.53-1.97,2.92-3.63,3.71-1.42,.67-2.82,.14-3.47-1.29-.39-.86-.51-1.78-.59-2.69-.13-1.45-.14-2.92,.14-4.36Z"/>
      <path class="cls-7" d="M55.18,43.43c0,.13-.01,.27-.02,.4-.02,.05-.04,.1-.05,.15-.21,.58-.15,1.23-.41,1.8-.08,.17,.03,.33,.12,.48,1.43,2.25,3.03,4.37,4.9,6.28,.07,.07,.17,.12,.26,.18,.18,.17,.35,.35,.53,.52-.14,.04-.32-.02-.41,.16-.23-.04-.35-.24-.49-.39-1.76-1.85-3.35-3.83-4.76-5.96-.11-.17-.17-.46-.41-.45-.26,0-.25,.31-.34,.49-.11,.21-.21,.42-.31,.63-.06,.04-.09,.09-.04,.17v.02c-.27-.13-.1-.34-.11-.52,0,0,0-.05,0-.05,.09-.04,.12-.11,.11-.2,.01-.06,.03-.12,.04-.18,.2-.2,.32-.44,.34-.73,.01-.06,.02-.13,.03-.19,.11-.06,.13-.16,.1-.27,0-.04,.01-.08,.03-.12,.2-.18,.17-.44,.21-.67,.02-.08,.04-.15,.06-.23,.06-.04,.08-.09,.04-.15,.02-.12,.04-.24,.06-.35,.22-.2,.14-.44,.1-.67,0-.29,.01-.57,.02-.86,.04-.15,.04-.29-.02-.43,0-.06,0-.12,0-.18,.04-.11,.07-.21,.13-.37,.13,.22,.01,.48,.23,.61,.03,.17,.05,.33,.08,.5-.17,.2-.07,.41,0,.61Z"/>
      <path class="cls-14" d="M47.22,62.17c.17,0,.33-.01,.5-.02,0,.09,0,.17,0,.26,0,.02-.02,.03-.03,.05,0-.02,.02-.04,.02-.05,.1,.01,.21,.03,.31,.04-1,.78-2.19,1.16-3.34,1.61-1.77,.7-3.61,1.09-5.5,1.3-.33,.04-.68,.06-1.02-.18,.97-.19,1.94-.37,2.91-.57,2.03-.42,3.98-1.06,5.84-1.98,.19-.09,.42-.16,.31-.46Z"/>
      <path class="cls-14" d="M18.95,52.23c.13,0,.27-.01,.4-.02,.8,1.9,1.54,3.82,2.13,5.8,.15,.52,.34,1.04,.17,1.76-.36-.72-.5-1.36-.69-1.98-.54-1.74-1.17-3.45-1.89-5.13-.06-.14-.09-.28-.13-.43Z"/>
      <path class="cls-6" d="M53.62,47.37c0,.18-.16,.4,.11,.52-.88,2.49-1.45,5.03-1.39,7.69-.14,.11-.11,.36-.35,.38-.1-.37-.19-.74-.29-1.11,.38-.07,.27-.39,.28-.62,.1-2.2,.59-4.32,1.35-6.38,.07-.18,.12-.37,.29-.49Z"/>
      <path class="cls-16" d="M47.72,62.4c0-.09,0-.17,0-.26,.48-.08,.9-.4,1.41-.39,.13,.25,.38,.32,.61,.43,.98,.46,1.94,.99,2.83,1.6,.19,.13,.48,.21,.46,.54-.09,0-.18,0-.27,0-1.14-.63-2.3-1.23-3.41-1.9-.48-.29-.88-.36-1.32,.01-.1-.01-.21-.03-.31-.04h0Z"/>
      <path class="cls-6" d="M70.31,55.27c-2.2,.11-4.36-.13-6.47-.77-.4-.12-.86-.11-1.17-.45,.89,.22,1.78,.43,2.68,.66,1.51,.38,3.07,.3,4.6,.49,.12,.02,.25,.05,.37,.07Z"/>
      <path class="cls-14" d="M52.76,64.33c.09,0,.18,0,.27,0,0,0-.02,0-.02,0,.09,.15,.18,.13,.27,0,.87,.51,1.72,1.05,2.47,1.73-.04,.1-.09,.19-.13,.29-.95-.67-1.9-1.34-2.85-2.01Z"/>
      <path class="cls-16" d="M35.96,45.07c-.48,.03-.59-.27-.64-.64-.03-.23,.1-.31,.31-.27,.41,.08,.83,.26,.88,.69,.03,.27-.37,.15-.55,.21Z"/>
      <path class="cls-13" d="M55.1,42.32c-.22-.12-.1-.38-.23-.61-.05,.16-.09,.27-.13,.37-.14-.32-.37-1.68-.32-2.16,.54,.79,.72,1.56,.67,2.4Z"/>
      <path class="cls-14" d="M23.21,38.02c-.51,1.17-.51,2.35,0,3.52-.8-.9-.8-2.62,0-3.52Z"/>
      <path class="cls-14" d="M46.8,88.21s-.07-.02-.11-.02c-.13-.73-.35-1.44-.34-2.19,.11,.04,.22,.08,.33,.13,.21,.52,.09,1.12,.4,1.61-.22,.08-.29,.26-.28,.47Z"/>
      <path class="cls-14" d="M27.36,36.61c-1.02-.2-2.02-.06-3,.24,.67-.56,2.2-.68,3-.24Z"/>
      <path class="cls-14" d="M29.08,40.8c.1-.84,.16-1.67-.06-2.5,.55,.82,.47,1.66,.06,2.5Z"/>
      <path class="cls-15" d="M28.9,47.59c.37,.62-.04,1.23-.04,1.85,0,.35,.03,.76-.21,1.1,.08-.98,.17-1.96,.25-2.94Z"/>
      <path class="cls-6" d="M33.03,26.48c.64-.28,1.29-.24,1.93-.03-.64,.1-1.29,.08-1.93,.03Z"/>
      <path class="cls-14" d="M45.78,76.06c-.03,1.01,.13,2.03-.14,3.02-.1-1.01,.06-2.02,.14-3.02Z"/>
      <path class="cls-6" d="M46.59,44.13c-.21-.3-.52-.08-.77-.14,.72-.27,1.43-.56,2.16-.02-.33-.04-.66-.08-.99-.12-.18-.02-.22,.06-.17,.22-.06,.08-.13,.11-.22,.06Z"/>
      <path class="cls-6" d="M33.82,10.47c.39-.42,.88-.65,1.43-.75-.43,.35-.91,.59-1.43,.75Z"/>
      <path class="cls-6" d="M3.13,46.68c-.24-.59-.15-1.19-.06-1.79,.04,.6,.16,1.19,.06,1.79Z"/>
      <path class="cls-6" d="M3.26,49.79c-.1-.67-.2-1.34-.11-2.02,.18,.67,.15,1.34,.11,2.02Z"/>
      <path class="cls-6" d="M30.84,26.31s.09,.03,.13,.04c.07,.34,.36,.16,.54,.24-.38,.17-.76,.11-1.2,.07,.13-.25,.35-.27,.53-.35Z"/>
      <path class="cls-14" d="M45.64,79.35c-.01,.61,.24,1.2,.12,1.82-.24-.59-.23-1.2-.12-1.82Z"/>
      <path class="cls-14" d="M46.25,75.02s-.05,0-.08,.02c-.04-.09-.12-.12-.22-.12-.06-.32,.21-.54,.27-.97,.1,.44,.06,.76,.03,1.07Z"/>
      <path class="cls-6" d="M3.03,44.1c-.29-.32-.19-.67-.07-1.03,.17,.33,.13,.68,.07,1.03Z"/>
      <path class="cls-6" d="M39.83,8.16c.55-.23,1.12-.21,1.7-.16-.56,.16-1.13,.17-1.7,.16Z"/>
      <path class="cls-6" d="M9.08,74.07c-.01-.39,.04-.76,.23-1.1,.02,.39,.03,.77-.23,1.1Z"/>
      <path class="cls-14" d="M25.8,42.91c.44-.15,.88-.23,1.34-.18-.42,.28-.88,.21-1.34,.18Z"/>
      <path class="cls-6" d="M35.35,9.67c.31-.26,.65-.45,1.06-.47-.3,.29-.67,.39-1.06,.47Z"/>
      <path class="cls-6" d="M42.13,14.63c.01,.37-.1,.67-.44,.86,.1-.31,.21-.62,.44-.86Z"/>
      <path class="cls-6" d="M43.56,11.54c-.09,.31-.09,.66-.4,.85,.03-.33,.18-.61,.4-.85Z"/>
      <path class="cls-6" d="M44.89,8.5c.11,.34-.05,.58-.3,.78,.04-.27,.18-.53,.13-.82,.06,.01,.11,.02,.17,.03Z"/>
      <path class="cls-6" d="M36.89,9.02c.26-.25,.58-.32,.92-.36-.24,.3-.58,.32-.92,.36Z"/>
      <path class="cls-6" d="M32.37,11.45c.1-.32,.36-.42,.66-.48-.14,.26-.38,.4-.66,.48Z"/>
      <path class="cls-6" d="M31.74,26.56c.29-.04,.57-.24,.87-.05-.29,.1-.57,.18-.87,.05Z"/>
      <path class="cls-6" d="M35.42,26.46c.28,0,.58-.13,.83,.1-.29,.11-.57,.04-.83-.1Z"/>
      <path class="cls-15" d="M28.62,50.8c0,.3,.11,.62-.1,.9-.06-.31-.04-.61,.1-.9Z"/>
      <path class="cls-6" d="M38.28,8.53c.25-.21,.54-.24,.84-.22-.24,.23-.54,.24-.84,.22Z"/>
      <path class="cls-6" d="M38.11,26.86c.31-.06,.59,.03,.84,.22-.29-.02-.59-.02-.84-.22Z"/>
      <path class="cls-6" d="M3.4,52.15c-.07-.3-.21-.58-.11-.9,.18,.28,.2,.59,.11,.9Z"/>
      <path class="cls-6" d="M3.56,53.11c-.27-.23-.18-.54-.16-.83,.14,.26,.2,.53,.16,.83Z"/>
      <path class="cls-6" d="M42.82,8.02c.27-.04,.54-.08,.78,.11-.28,.07-.54,.04-.78-.11Z"/>
      <path class="cls-13" d="M55.18,43.43c-.07-.2-.17-.41,0-.61,.16,.18,.09,.41,.11,.62,0,0-.05,0-.05,0h-.05Z"/>
      <path class="cls-14" d="M24.87,42.84c.23-.02,.47-.08,.67,.09-.24,.12-.47,.09-.67-.09Z"/>
      <path class="cls-13" d="M54.76,43.55c.04,.24,.11,.48-.1,.67-.14-.25,0-.46,.1-.67Z"/>
      <path class="cls-6" d="M54.12,46.21c-.02,.29-.14,.53-.34,.73,.04-.28,.13-.53,.34-.73Z"/>
      <path class="cls-6" d="M27.74,37.17c.02-.11,.04-.22,.05-.34,0,0,.03-.01,.03-.01,0,0,.02,.02,.02,.02,.07,.05,.14,.1,.21,.15,.09,.04,.16,.09,.15,.21-.06,.05-.12,.1-.18,.15-.11-.04-.24-.05-.29-.18Z"/>
      <path class="cls-16" d="M36.05,56.6c-.36-.21-.04-.36,.05-.52,0,0,.04,.04,.04,.04,0,.12-.01,.24-.02,.35-.02,.04-.05,.09-.07,.13Z"/>
      <path class="cls-6" d="M44.2,10.12c.03,.25-.04,.45-.26,.58,.03-.22,.09-.43,.26-.58Z"/>
      <path class="cls-6" d="M42.66,13.48c.03,.24-.05,.44-.26,.57,.02-.22,.08-.43,.26-.57Z"/>
      <path class="cls-13" d="M54.5,44.96c-.04,.23-.01,.49-.21,.67,.03-.24,0-.49,.21-.67Z"/>
      <path class="cls-6" d="M36.69,26.61c.22-.07,.4,.07,.61,.1-.22,.08-.43,.09-.61-.1Z"/>
      <path class="cls-15" d="M36.13,56.46c0-.12,.01-.24,.02-.35,.07,0,.15,0,.22-.01-.02,.16-.1,.28-.24,.36Z"/>
      <path class="cls-6" d="M33.13,10.9c.05-.18,.19-.22,.35-.23-.04,.19-.17,.24-.35,.23Z"/>
      <path class="cls-6" d="M43.06,12.62c0,.22-.07,.41-.25,.54,.02-.21,.1-.39,.25-.54Z"/>
      <path class="cls-14" d="M24.27,36.9c-.03,.16-.12,.24-.28,.22,.03-.15,.12-.23,.28-.22Z"/>
      <path class="cls-14" d="M28.23,37.21c.18,0,.26,.12,.33,.27-.02,.02-.04,.04-.06,.06-.07,.02-.15,.04-.22,.05l-.02-.02c-.01-.12-.02-.24-.03-.36Z"/>
      <path class="cls-14" d="M45.86,62.12c.14,0,.28,.02,.42,.03-.14,.07-.29,.1-.42-.03Z"/>
      <path class="cls-14" d="M23.47,37.63c.02,.16-.05,.26-.21,.29-.02-.16,.06-.25,.21-.29Z"/>
      <path class="cls-13" d="M18.76,38.48c0-.18,.06-.33,.22-.43,0,.18-.06,.33-.22,.43Z"/>
      <path class="cls-6" d="M33.52,10.65c.05-.14,.15-.21,.3-.18-.04,.15-.14,.22-.3,.18Z"/>
      <path class="cls-6" d="M44.58,9.34c0,.2-.06,.36-.23,.47,0-.19,.08-.34,.23-.47Z"/>
      <path class="cls-7" d="M61.32,53.58c-.16,.07-.27,.04-.34-.13,.15-.04,.25,.02,.34,.13Z"/>
      <path class="cls-14" d="M23.37,41.77c.16,.01,.25,.1,.24,.27-.16-.02-.23-.11-.24-.27Z"/>
      <path class="cls-14" d="M28.25,42.03c0-.16,.09-.25,.25-.26,0,.16-.09,.24-.25,.26Z"/>
      <path class="cls-14" d="M23.61,42.04c.16,0,.25,.07,.27,.24-.16,0-.24-.08-.27-.24Z"/>
      <path class="cls-14" d="M27.49,42.57c.08-.17,.23-.24,.41-.25-.07,.19-.22,.26-.41,.25Z"/>
      <path class="cls-14" d="M24.35,42.59c.16-.05,.26,0,.32,.16-.16,.05-.25-.03-.32-.16Z"/>
      <path class="cls-6" d="M36.51,9.17c.08-.16,.22-.16,.37-.14-.09,.12-.22,.17-.37,.14Z"/>
      <path class="cls-6" d="M41.68,15.52c-.01,.14-.02,.28-.18,.35,0-.14,.04-.27,.18-.35Z"/>
      <path class="cls-6" d="M62.65,54.04c-.14,.02-.27,.02-.36-.12,.15-.04,.26,.01,.36,.12Z"/>
      <path class="cls-14" d="M45.78,81.86c0,.13,.01,.26,.02,.39-.1-.13-.07-.26-.02-.39Z"/>
      <path class="cls-13" d="M54.75,42.26c.06,.14,.07,.29,.02,.43-.11-.14-.11-.28-.02-.43Z"/>
      <path class="cls-6" d="M44.12,8.26c.1-.03,.19-.02,.26,.08-.11,.05-.19,.01-.26-.08Z"/>
      <path class="cls-6" d="M37.48,26.72c.12-.02,.24-.03,.32,.09-.12,.02-.23-.01-.32-.09Z"/>
      <path class="cls-14" d="M23.85,37.24c-.01,.12-.08,.17-.2,.17,0-.12,.08-.17,.2-.17Z"/>
      <path class="cls-6" d="M28.23,37.21c.01,.12,.02,.24,.03,.36-.08-.07-.15-.14-.23-.21,.06-.05,.12-.1,.18-.15,0,0,.01,0,.01,0Z"/>
      <path class="cls-13" d="M54.25,45.75c.03,.11,.02,.21-.1,.27,.03-.09,.07-.18,.1-.27Z"/>
      <path class="cls-14" d="M55.99,66.65c.11,.01,.2,.05,.22,.17-.11-.01-.18-.07-.22-.17Z"/>
      <path class="cls-6" d="M67.21,46.8s.07,.08,.1,.12c-.12,.04-.08-.07-.1-.12Z"/>
      <path class="cls-14" d="M56.2,66.81c.05,.05,.11,.09,.16,.14-.05-.05-.11-.09-.16-.14Z"/>
      <path class="cls-14" d="M55.85,66.53s.09,.07,.13,.11c-.04-.04-.09-.07-.13-.11Z"/>
      <path class="cls-13" d="M54.59,44.58c.05,.06,.03,.11-.04,.15,.01-.05,.02-.1,.04-.15Z"/>
      <path class="cls-6" d="M53.74,47.11c0,.09-.03,.16-.11,.2,.04-.07,.08-.14,.11-.2Z"/>
      <path class="cls-6" d="M2.94,42.8c-.02-.06-.04-.12-.05-.19,.02,.06,.04,.13,.05,.19Z"/>
      <path class="cls-14" d="M27.24,42.7c.03-.09,.08-.12,.17-.09-.06,.03-.11,.06-.17,.09Z"/>
      <path class="cls-14" d="M24.11,42.44c.08,0,.13,.03,.15,.11-.08,0-.13-.03-.15-.11Z"/>
      <path class="cls-15" d="M28.68,47.33s.06,.07,.09,.1c-.03-.03-.06-.06-.09-.1Z"/>
      <path class="cls-14" d="M28.51,41.77s.07-.09,.1-.13c0,.08-.03,.12-.1,.13Z"/>
      <path class="cls-14" d="M23.27,41.64s.07,.09,.1,.13c-.08-.01-.12-.05-.1-.13Z"/>
      <path class="cls-14" d="M28.67,41.55c-.01-.08,.03-.14,.11-.15,0,.08-.03,.13-.11,.15Z"/>
      <path class="cls-14" d="M45.76,81.41c0,.08,0,.16,0,.25-.06-.08-.07-.16,0-.25Z"/>
      <path class="cls-6" d="M3.15,47.64c0-.08,0-.17,0-.25,.06,.08,.08,.17,0,.25Z"/>
      <path class="cls-13" d="M17.32,41.55c.04-.05,.07-.1,.11-.15-.04,.05-.07,.1-.11,.15Z"/>
      <path class="cls-14" d="M28.92,41.16c-.02-.08,.01-.13,.09-.16,.02,.08,0,.13-.09,.16Z"/>
      <path class="cls-13" d="M4.16,40.5c0-.09,.04-.13,.13-.13-.04,.04-.09,.09-.13,.13Z"/>
      <path class="cls-13" d="M47.19,91.14s0,.09,.01,.14c-.01-.03-.03-.06-.04-.09,0-.01,.02-.03,.03-.04Z"/>
      <path class="cls-6" d="M3.38,91.81s.05-.09,.08-.13c-.03,.05-.05,.09-.08,.13Z"/>
      <path class="cls-6" d="M8.52,39.08c.05-.09,.09-.12,.14,0-.05,0-.09,0-.14,0Z"/>
      <path class="cls-13" d="M18.62,38.73c.03-.06,.07-.11,.1-.17-.03,.06-.07,.11-.1,.17Z"/>
      <path class="cls-14" d="M29.02,38.3c-.09-.01-.13-.06-.1-.15,.03,.05,.07,.1,.1,.15Z"/>
      <path class="cls-14" d="M28.91,38.03c-.08-.04-.11-.09-.08-.17,.07,.04,.11,.09,.08,.17Z"/>
      <path class="cls-14" d="M28.78,37.78c-.08-.02-.12-.06-.11-.14,.08,.01,.12,.06,.11,.14Z"/>
      <path class="cls-14" d="M28.66,37.63c-.05,0-.1,0-.15-.01,0-.03,0-.06,0-.09,.02-.02,.04-.04,.06-.06,.03,.05,.06,.11,.1,.16Z"/>
      <path class="cls-6" d="M3.28,50.87c0-.09,0-.17,0-.26,.07,.09,.08,.17,0,.26Z"/>
      <path class="cls-14" d="M18.87,52.08c.03,.05,.06,.1,.09,.15-.03-.05-.06-.1-.09-.15Z"/>
      <path class="cls-7" d="M60.68,53.32c-.09,.03-.15,0-.18-.09,.06,.03,.12,.06,.18,.09Z"/>
      <path class="cls-7" d="M62.16,53.89s-.09-.02-.13-.04c.06-.05,.1-.02,.13,.04Z"/>
      <path class="cls-14" d="M23.99,37.12c0,.08-.05,.13-.14,.12,.01-.08,.05-.12,.14-.12Z"/>
      <path class="cls-14" d="M28.07,37c-.07-.05-.14-.1-.21-.15,.07,.05,.14,.1,.21,.15Z"/>
      <path class="cls-14" d="M27.77,36.82c-.08,.03-.13-.01-.15-.09,.08-.01,.13,.01,.15,.09Z"/>
      <path class="cls-14" d="M27.53,36.7c-.08,.03-.14,0-.17-.08,.08-.02,.14,0,.17,.08Z"/>
      <path class="cls-15" d="M36.53,55.84s.06-.09,.08-.13c-.03,.04-.06,.09-.08,.13Z"/>
      <path class="cls-15" d="M36.42,56.01c-.01-.08,.02-.14,.1-.16-.03,.05-.07,.11-.1,.16Z"/>
      <path class="cls-9" d="M41.26,16.13s-.06,.09-.09,.13c.03-.04,.06-.09,.09-.13Z"/>
      <path class="cls-6" d="M41.49,15.91c.01,.09-.02,.16-.11,.19,0-.04,0-.08-.03-.12,.04-.03,.09-.05,.13-.08Z"/>
      <path class="cls-9" d="M41.35,15.99s.03,.08,.03,.12c0,0-.05,.01-.05,.01,0,0-.05,0-.05-.01,.02-.04,.05-.08,.07-.12Z"/>
      <path class="cls-6" d="M42.27,14.37c0,.09-.03,.16-.11,.2,.04-.07,.08-.14,.11-.2Z"/>
      <path class="cls-6" d="M42.39,14.11c.01,.09-.02,.16-.11,.21,.04-.07,.07-.14,.11-.21Z"/>
      <path class="cls-6" d="M42.79,13.22c-.04,.06-.07,.13-.11,.19,.04-.06,.07-.13,.11-.19Z"/>
      <path class="cls-6" d="M43.69,11.28c-.03,.07-.07,.13-.1,.2,.03-.07,.07-.13,.1-.2Z"/>
      <path class="cls-6" d="M43.81,11.02c0,.09-.03,.16-.11,.2,.04-.07,.07-.14,.11-.2Z"/>
      <path class="cls-6" d="M43.93,10.76c.02,.1-.02,.17-.11,.21,.04-.07,.07-.14,.11-.21Z"/>
      <path class="cls-6" d="M44.34,9.87c-.04,.06-.08,.13-.11,.19,.04-.06,.08-.13,.11-.19Z"/>
      <path class="cls-6" d="M37.93,8.64c.03-.08,.06-.12,.13-.03-.04,.01-.09,.02-.13,.03Z"/>
      <path class="cls-6" d="M43.82,8.17c.07-.04,.13-.02,.16,.05-.07,.03-.12,.02-.16-.05Z"/>
      <path class="cls-6" d="M39.47,8.25c.04-.07,.1-.09,.17-.04-.06,.01-.11,.03-.17,.04Z"/>
      <path class="cls-5" d="M50.4,60.72c1-1.21,1.77-2.52,1.88-4.13,0-.13,.06-.25-.04-.37,.21-.28,.51-.17,.77-.17,3.39-.01,6.78,0,10.18-.01,.68,.52,1.4,.98,2.15,1.4,.05,.03,.1,.06,.15,.09,0,0,0,0,0,0,.02,.08,.07,.11,.15,.09,.03,.03,.06,.04,.1,.05,.02,.08,.08,.1,.15,.09,.03,.02,.06,.04,.09,.05,.13,.21,.32,.3,.57,.31,.07,.03,.13,.07,.2,.1,.05,.03,.1,.05,.16,.08,.12,.06,.24,.12,.35,.18,.18,.21,.41,.31,.69,.32,.03,.02,.07,.04,.11,.04,.03,.07,.08,.1,.16,.08,.03,.03,.06,.04,.1,.05,.03,.07,.08,.1,.16,.07,.03,.02,.07,.04,.11,.04,.03,.08,.08,.1,.15,.07,.04,.01,.08,.03,.12,.04,.06,.11,.14,.14,.26,.11,0,0,.01,0,.01,0,.32,.28,.71,.38,1.13,.42,.07,.03,.15,.05,.22,.08,.05,.02,.11,.04,.16,.05,.1,.03,.19,.07,.29,.1,.09,.15,.22,.16,.37,.13,.08,.02,.15,.04,.23,.06,.03,.07,.09,.09,.16,.06,.04,.02,.07,.03,.11,.03,.13,.25-.02,.44-.13,.65-1.27,2.27-2.53,4.55-3.81,6.82-.88,1.56-1.79,3.1-2.68,4.65-.02,.03-.04,.07-.05,.11-.03-.03-.06-.04-.1-.03-.14-.16-.25-.36-.41-.49-1.67-1.33-3.35-2.65-5.03-3.97-2.72-2.14-5.45-4.27-8.16-6.42-.34-.27-.85-.35-1.03-.82Z"/>
      <path class="cls-7" d="M52.33,55.58c.16,.15,.36,.11,.55,.11,3.02,0,6.04,0,9.07,0,.19,0,.52,.17,.52-.26,.28,.15,.39,.52,.73,.6-3.39,0-6.78,0-10.18,.01-.26,0-.57-.11-.77,.17-.16,0-.26-.08-.26-.26,.24-.02,.21-.27,.35-.38Z"/>
      <path class="cls-6" d="M70.27,59.72c-.42-.03-.8-.14-1.13-.42,.41,.04,.82,.11,1.13,.42Z"/>
      <path class="cls-6" d="M67.96,58.79c-.28,0-.51-.11-.69-.32,.31-.07,.49,.15,.69,.32Z"/>
      <path class="cls-6" d="M66.56,58.11c-.24,0-.43-.1-.57-.31,.25-.02,.46,.05,.57,.31Z"/>
      <path class="cls-6" d="M71.31,60.07c-.15,.04-.28,.02-.37-.13,.15-.03,.28-.01,.37,.13Z"/>
      <path class="cls-6" d="M69.13,59.29c-.12,.04-.21,0-.26-.11,.11-.03,.2,0,.26,.11Z"/>
      <path class="cls-6" d="M65.9,57.76c-.08,.02-.13-.01-.15-.09,.08-.02,.13,.02,.15,.09Z"/>
      <path class="cls-6" d="M71.7,60.19c-.07,.03-.13,0-.16-.06,.07-.03,.13,0,.16,.06Z"/>
      <path class="cls-6" d="M70.65,59.85c-.05-.02-.11-.04-.16-.05,.08-.05,.13-.03,.16,.05Z"/>
      <path class="cls-6" d="M68.74,59.14c-.08,.03-.13,0-.15-.07,.05,.02,.1,.05,.15,.07Z"/>
      <path class="cls-6" d="M68.48,59.03c-.08,.03-.13,0-.16-.07,.08-.03,.13,0,.16,.07Z"/>
      <path class="cls-6" d="M68.22,58.91c-.08,.02-.13,0-.16-.08,.08-.02,.13,0,.16,.08Z"/>
      <path class="cls-6" d="M65.49,57.53s-.1-.06-.15-.09c.08-.02,.13,.01,.15,.09Z"/>
      <path class="cls-6" d="M66.92,58.29c-.05-.03-.1-.05-.16-.08,.08-.03,.13,0,.16,.08Z"/>
      <path class="cls-6" d="M65.64,57.62c-.08,.02-.13-.01-.15-.09,.08-.02,.12,.01,.15,.09Z"/>
      <path class="cls-14" d="M31.56,26.28c.09-.08,.18-.11,.29-.07-.08,.09-.19,.09-.29,.07Z"/>
      <path class="cls-14" d="M32.13,26.2s.08-.03,.12-.01c-.04,.07-.08,.07-.12,.01Z"/>
      <path class="cls-14" d="M32.75,26.17c.06-.08,.12-.07,.18,0-.06,0-.12,0-.18,0Z"/>
      <path class="cls-14" d="M36.38,104.18c.92-.04,1.82,.06,2.74,.19-.33,.38-2.72,.44-3.42,.09,.22-.11,.59,.15,.68-.28Z"/>
      <path class="cls-6" d="M13.13,105.56c.11-.25,.34-.22,.55-.24-.14,.18-.32,.25-.55,.24Z"/>
      <path class="cls-14" d="M35.23,104.55c.02,.13,.05,.26,.07,.39-.08-.12-.25-.22-.07-.39Z"/>
      <path class="cls-6" d="M13.68,105.33c.11-.12,.23-.18,.4-.15-.09,.17-.24,.16-.4,.15Z"/>
      <path class="cls-14" d="M35.98,104.16c.05-.06,.11-.07,.17,0-.06,0-.11,0-.17,0Z"/>
      <path class="cls-9" d="M47.08,87.74c-.32-.49-.19-1.1-.4-1.61,0-.09-.02-.18-.03-.26,.03-.14,.03-.27-.09-.38,0-.04-.01-.09-.02-.13,.01-.04,.01-.08-.01-.12-.35-1.52-.26-3.08-.46-4.62-.09-.72,.02-.83,.7-.58,1.27,.47,2.59,.74,3.92,.94,.59,.09,.87,.32,.79,.96-.06,.46-.07,.95,0,1.41,.14,.95-.25,1.54-1.05,2.04-1.16,.73-2.25,1.57-3.36,2.36Z"/>
      <path class="cls-14" d="M46.14,76.34c.03,.23,.09,.46-.07,.67,0-.23-.09-.46,.07-.67Z"/>
      <path class="cls-14" d="M46.16,75.55c0,.17,0,.34-.01,.51-.15-.17-.15-.34,.01-.51Z"/>
      <path class="cls-14" d="M46.56,85.48c.12,.11,.12,.24,.09,.38-.11-.11-.09-.25-.09-.38Z"/>
      <path class="cls-14" d="M46.02,78.39s.02,.08,0,.13c-.01-.03-.03-.06-.03-.09,0,0,.03-.02,.04-.04Z"/>
      <path class="cls-14" d="M46.02,78.78s.02,.08,0,.12c-.01-.03-.03-.06-.03-.09,0,0,.02-.02,.04-.04Z"/>
      <path class="cls-14" d="M46.53,85.23s.03,.08,.01,.12c-.02-.03-.04-.05-.05-.08,0,0,.02-.03,.04-.04Z"/>
      <path class="cls-5" d="M4.88,102.84c.43,.36,1,.32,1.47,.57,1.31,.69,2.11,1.73,2.34,3.21-.98,.31-2.01,.33-3,.54-.77,.16-1.56,.19-2.31,.46-.09,.01-.19,.03-.28,.04-.38,0-.76,0-1.14,0-.52-.2-.15-.41,.03-.5,.67-.37,1.35-.71,2.04-1.04,.18-.09,.37-.11,.28-.37-.09-.14-.19-.03-.29-.02-.11,0-.21,.01-.26,.13-.09,.14-.24,.11-.37,.13-.28-.02-.57-.06-.68,.3-.07,.03-.13,.06-.2,.09-.06,.03-.12,.06-.18,.09-.11,.06-.22,.11-.33,.17-.21-.03-.43-.03-.46-.32,.14-.16,.28-.32,.5-.37,.05-.04,.11-.08,.16-.11,.08-.05,.15-.1,.23-.14,.12,.01,.23,0,.26-.15,0,0,0,0,0,0,.05-.03,.1-.07,.16-.1,.08-.05,.17-.1,.25-.16,.31,.19,.48,.11,.48-.27,0,0,.01,0,.01,0,.08,0,.13-.03,.15-.11,.07-.05,.14-.09,.21-.14,.3,.05,.57-.13,.51-.37-.09-.36-.41-.06-.63-.06-.07,0-.14,.13-.21,.21-.23,.11-.46,.21-.69,.32-.19-.08-.32-.02-.34,.2h0c-.11,0-.21,.02-.26,.14-.01,.03-.03,.04-.06,.03-.2-.09-.64,.28-.59-.3,.05-.04,.1-.07,.16-.11,.11,0,.19-.04,.22-.16,0,0,0,0,0,0,.05-.04,.1-.07,.15-.11,0,0,0,0,0,0,.2,0,.38,0,.37-.28,0,0,0,0,0,0,.29,.04,.51-.03,.53-.38,.13-.19,.32-.29,.52-.38,.12,0,.22-.03,.24-.18,.09-.07,.19-.14,.28-.21,.11,0,.21-.03,.25-.15,.13-.13,.31-.14,.48-.16Zm-.34,3.14c.19-.04,.36-.09,.39-.35-.26,0-.56-.09-.39,.36-.01,0-.03,.02-.04,.03,.01-.01,.02-.02,.03-.03Z"/>
      <path class="cls-10" d="M1.7,104.94c-.06,.59,.39,.21,.59,.3-.5,.42-1.01,.84-1.51,1.26-.11,.09-.23,.23-.38,.09-.13-.12-.09-.28-.01-.41,.32-.54,.74-.98,1.32-1.24Z"/>
      <path class="cls-10" d="M1.55,106.33c.02,.29,.25,.29,.46,.32-.22,.29-.61,.38-.79,.72-.08,.14-.24,.18-.39,.07-.15-.11-.13-.26-.05-.4,.19-.31,.43-.58,.77-.72Z"/>
      <path class="cls-10" d="M3.63,104.56c.07-.07,.14-.21,.21-.21,.22,0,.54-.3,.63,.06,.06,.25-.21,.42-.51,.37,.06-.32-.2-.18-.33-.22Z"/>
      <path class="cls-10" d="M3.59,105.03c0,.37-.16,.46-.48,.27,.12-.17,.29-.24,.48-.27Z"/>
      <path class="cls-13" d="M1.96,107.67c.38,0,.76,0,1.14,0-.38,.2-.76,.15-1.14,0Z"/>
      <path class="cls-10" d="M2.72,106.29c.11-.36,.4-.33,.68-.3-.2,.16-.43,.25-.68,.3Z"/>
      <path class="cls-10" d="M3.11,103.91c-.02,.35-.23,.42-.53,.38,.13-.19,.3-.33,.53-.38Z"/>
      <path class="cls-10" d="M2.59,104.29c.01,.27-.17,.28-.37,.28,.08-.15,.2-.24,.37-.28Z"/>
      <path class="cls-10" d="M2.6,105.08c.02-.22,.15-.27,.34-.2-.07,.13-.19,.2-.34,.2Z"/>
      <path class="cls-13" d="M4.03,105.73c.1,0,.2-.12,.29,.02-.1,.03-.2,.05-.3,.08,0-.03,0-.07,.01-.1Z"/>
      <path class="cls-10" d="M4.03,105.73s-.01,.07-.01,.1c-.08,.01-.17,.02-.25,.03,.05-.12,.15-.14,.26-.13Z"/>
      <path class="cls-10" d="M2.7,105.55c-.02,.16-.13,.17-.26,.15,.06-.1,.15-.15,.26-.15Z"/>
      <path class="cls-10" d="M2.34,105.21c.05-.11,.14-.14,.26-.14-.05,.11-.15,.14-.26,.14Z"/>
      <path class="cls-10" d="M2.07,104.67c-.03,.12-.11,.15-.22,.16,.04-.11,.12-.15,.22-.16Z"/>
      <path class="cls-10" d="M3.87,103.35c-.01,.15-.11,.18-.24,.18,.08-.06,.16-.12,.24-.18Z"/>
      <path class="cls-10" d="M4.4,102.99c-.04,.12-.13,.15-.25,.15,.04-.11,.13-.15,.25-.15Z"/>
      <path class="cls-10" d="M2.22,104.56s-.1,.07-.15,.11c.05-.04,.1-.07,.15-.11Z"/>
      <path class="cls-10" d="M3.75,104.93c-.02,.08-.07,.12-.15,.11,.05-.04,.1-.07,.15-.11Z"/>
      <path class="cls-10" d="M2.86,105.46c-.05,.03-.1,.07-.16,.1,.05-.03,.1-.07,.16-.1Z"/>
      <path class="cls-10" d="M2.21,105.85c-.05,.04-.11,.08-.16,.11,.05-.04,.11-.08,.16-.11Z"/>
      <path class="cls-10" d="M2.34,106.48c.06-.03,.12-.06,.18-.09-.06,.03-.12,.06-.18,.09Z"/>
      <path class="cls-9" d="M50.4,60.72c.18,.47,.69,.55,1.03,.82,2.71,2.15,5.44,4.28,8.16,6.42,1.68,1.32,3.36,2.64,5.03,3.97,.16,.13,.28,.32,.41,.49,0,.06,0,.12-.01,.17-.25,.56-.69,.57-1.22,.47-.88-.16-1.56-.43-2.14-1.27-1.48-2.11-3.34-3.88-5.43-5.4-.09-.05-.18-.1-.27-.16-.08-.06-.15-.12-.23-.18-.75-.68-1.6-1.22-2.47-1.73-.09-.04-.18-.07-.27,0,0,0,.02,0,.02,0,.02-.33-.27-.41-.46-.54-.89-.62-1.84-1.14-2.83-1.6-.23-.11-.48-.18-.61-.43,.42-.35,.85-.69,1.27-1.04Z"/>
      <path class="cls-14" d="M55.98,66.23c.09,.05,.18,.1,.27,.16-.12,0-.23-.02-.27-.16Z"/>
      <path class="cls-6" d="M65.03,72.59c0-.06,0-.12,.01-.17,.04-.01,.07,0,.1,.03-.04,.05-.07,.1-.11,.14Z"/>
      <path class="cls-4" d="M16.4,43.07c.53-.08,1.03-.25,1.57-.3,2.06-.17,3.66,1.42,4.11,3.27,.53,2.21-.78,4.39-2.48,5.51-.43,.28-.57,.05-.71-.28-.66-1.52-1.5-2.94-2.34-4.36-.36-.61-.75-1.2-1.16-1.77-.2-.28-.31-.56-.27-.89,0,0-.01-.01-.01-.01,.21,0,.25-.14,.26-.31,0,0,0-.01,0-.01,.09-.03,.14-.09,.13-.19,0,0,0,0,0,0,.1,.01,.13-.04,.13-.13,0,0,0,0,0,0,.09,0,.13-.04,.13-.13,0,0,0,0,0,0,.28-.02,.48-.16,.64-.39h0Z"/>
      <path class="cls-15" d="M16.4,43.07c-.15,.23-.36,.37-.64,.39,.12-.29,.31-.45,.64-.39Z"/>
      <path class="cls-15" d="M15.37,43.92c0,.17-.05,.31-.26,.31-.02-.19,.1-.26,.26-.31Z"/>
      <path class="cls-15" d="M15.5,43.72c.01,.1-.04,.16-.13,.19,0-.09,.04-.16,.13-.19Z"/>
      <path class="cls-15" d="M15.63,43.59c0,.09-.03,.14-.13,.13,.04-.04,.09-.09,.13-.13Z"/>
      <path class="cls-15" d="M15.76,43.46c0,.09-.04,.13-.13,.13,.04-.04,.09-.09,.13-.13Z"/>
      <path class="cls-10" d="M49.6,110.85s-.05,.02-.07,.04c-.72,.05-1.38-.25-2.06-.41-1.07-.24-2.13-.52-3.13-.99,0,0,.04-.05,.04-.05,.25,.02,.5,.04,.75,.12,.99,.3,1.98,.57,2.97,.87,.41,.12,.66,.06,.73-.39,.3,.23,.73,.34,.77,.81Z"/>
      <path class="cls-10" d="M43.32,109.1c.01-.15,.07-.28,.24-.3,.1,.43,.57,.4,.82,.65,0,0-.04,.05-.04,.05-.36-.07-.73-.13-1.02-.39Z"/>
      <path class="cls-14" d="M43.6,103.97c-.27,.11-.54,.12-.87,0,.32-.36,.69-.48,1.12-.45,.03,.22-.13,.33-.26,.46Z"/>
      <path class="cls-5" d="M44.38,109.44c-.24-.25-.71-.22-.82-.65,.39-1.1,1.39-1.46,2.31-1.91,.51-.25,1.07-.37,1.61-.55,0,0,0,0,0,0,0,.05-.02,.11-.03,.16,.1,.15,.26,.12,.41,.12,.04,0,.08,.02,.11,.04,.04,.03,.08,.07,.12,.1,.27,.15,.48,.37,.67,.62,0,.23-.04,.42-.34,.41-.13,0-.35-.07-.37,.12-.03,.21,.16,.31,.34,.39,.03,.03,.06,.06,.09,.09-.31,.29-.64,.36-1.03,.16-.15-.08-.52-.12-.33,.15,.29,.43,.51,1.08,1.25,.99h0c0,.28,.1,.44,.41,.34h.03c-.07,.46-.32,.52-.73,.4-.99-.3-1.98-.57-2.97-.87-.25-.08-.5-.1-.75-.12Z"/>
      <path class="cls-10" d="M48.39,109.69c-.74,.08-.96-.56-1.25-.99-.19-.28,.17-.23,.33-.15,.39,.2,.72,.12,1.03-.16,.78,.53,1.52,1.1,2.03,1.92,.14,.22,.3,.47-.1,.62-.13,0-.25-.02-.38-.03-.01-.02-.03-.04-.06-.04-.42-1.01-1.26-1.49-2.34-1.98,.19,.51,.61,.53,.74,.83Z"/>
      <path class="cls-10" d="M48.4,108.3c-.18-.07-.38-.17-.34-.39,.03-.19,.24-.13,.37-.12,.3,0,.34-.18,.34-.41,.87,.69,1.75,1.38,2.02,2.55-.47-.59-1.04-1.06-1.64-1.49-.21-.15-.44-.46-.75-.13Z"/>
      <path class="cls-14" d="M48.39,109.69c-.12-.3-.55-.31-.74-.83,1.08,.49,1.92,.97,2.34,1.98-.13,0-.26,0-.39,0-.04-.47-.47-.58-.77-.81,0,0-.03,0-.03,0-.08-.18-.22-.29-.41-.34h0Z"/>
      <path class="cls-10" d="M47.87,106.62c-.15,0-.3,.03-.41-.12,.04-.05,.09-.09,.13-.14,.09,.08,.18,.17,.28,.25Z"/>
      <path class="cls-14" d="M50.04,110.89c.13,0,.25,.02,.38,.03-.14,.12-.26,.13-.38-.03Z"/>
      <path class="cls-11" d="M47.59,106.36s-.09,.09-.13,.14c0-.05,.02-.1,.03-.16,.04-.02,.07-.01,.1,.02Z"/>
      <path class="cls-10" d="M48.09,106.76s-.08-.07-.12-.1c.04,.03,.08,.07,.12,.1Z"/>
      <path class="cls-2" d="M46.59,44.13c.09,.05,.16,.03,.22-.06,.09,0,.18,0,.27,0,.05,.08,.12,.1,.21,.06,.79,.43,1.13,1.16,.89,1.87-.28,.81-1.1,1.21-1.85,.9-.73-.3-1.06-1.23-.71-2.02,.12-.27,.3-.52,.56-.68,.07,.05,.13,.03,.17-.04,.08-.02,.16-.03,.24-.05Z"/>
      <path class="cls-6" d="M47.29,44.14c-.09,.04-.16,.02-.21-.06,.12-.14,.18-.09,.21,.06Z"/>
      <path class="cls-6" d="M46.35,44.18c-.05,.07-.1,.08-.17,.04,.04-.07,.1-.1,.17-.04Z"/>
      <path class="cls-2" d="M28.04,37.36c.08,.07,.15,.14,.23,.21,0,0,.02,.02,.02,.02,.01,.11,.06,.2,.18,.24,.19,1.06-.22,1.8-1.06,1.91-.82,.11-1.52-.44-1.56-1.22-.04-.83,.53-1.41,1.4-1.39,.17,0,.34,.04,.51,.06,.05,.13,.18,.14,.29,.18Z"/>
      <path class="cls-6" d="M28.46,37.82c-.12-.04-.16-.13-.18-.24,.07-.02,.15-.04,.22-.05,0,.03,0,.06,0,.09-.02,.07-.03,.13-.05,.2Z"/>
      <path class="cls-3" d="M35.79,56.22c-.9,1.5-1.92,2.9-3.53,3.7-1.23,.61-2.48,.08-2.97-1.21-.46-1.22-.55-2.5-.54-3.79,0-.34,.08-.69-.07-1.01,0-.16,0-.31,0-.47,.1-.06,.2-.12,.31-.18,1.16,.02,2.33-.09,3.45,.28,1.44,.48,2.84,1.04,3.36,2.69Z"/>
      <path class="cls-8" d="M35.79,56.22c-.51-1.65-1.92-2.2-3.36-2.69-1.12-.37-2.29-.26-3.45-.28-.41-.04,.04-.4-.19-.51,0-.13,0-.25,0-.38,.18-.24,.07-.51,.1-.77,.48-.59,1.19-.68,1.85-.74,2.46-.21,4.48,.61,5.95,2.66,.32,.45,.37,.82,.02,1.27-.25,.32-.41,.7-.62,1.05-.19,.06-.21,.26-.32,.39Z"/>
      <path class="cls-1" d="M29.16,50.1c0-.05,0-.15,.03-.22,.24-.45-.15-1.1,.25-1.4,.38-.29,.88,.27,1.32,.2,1.01-.17,2.02,.32,3.04-.15,.54-.25,.94,.29,1.21,.65,.73,.96,1.65,1.57,2.83,1.76,.42,.07,.67,.27,.42,.66-.27,.42-.4,.88-.63,1.31-.17,.31-.31,.45-.65,.06-.75-.88-1.66-1.55-2.72-2.09-1.44-.73-2.89-.54-4.37-.45-.08,0-.17,.04-.24,.09-.54,.35-.5-.04-.51-.42Z"/>
      <path class="cls-15" d="M28.8,52.74c.23,.11-.22,.47,.19,.51-.1,.06-.21,.12-.31,.18-.01-.24-.13-.5,.12-.69Z"/>
      <path class="cls-15" d="M28.9,51.59c-.03,.26,.08,.53-.1,.77,0-.26-.13-.54,.1-.77Z"/>
      <path class="cls-4" d="M42.94,58.28c.05-3.19,2.42-5.8,5.96-5.1,2.03,.4,3.86,2.92,2.36,5.53-.52,.9-1.16,1.69-1.94,2.37-1.31,1.14-2.77,1.06-4.21,.41-1.47-.67-2.08-1.96-2.16-3.2Z"/>
      <path class="cls-13" d="M55.11,43.98s.04-.1,.05-.15c-.02,.05-.04,.1-.05,.15Z"/>
      <path class="cls-6" d="M53.77,47.71c-.02,.06-.03,.11-.05,.17-.04-.07-.02-.12,.05-.17Z"/>
      <path class="cls-16" d="M47.72,62.4s-.02,.04-.02,.05c0-.02,.02-.03,.03-.05h0Z"/>
      <path class="cls-16" d="M53.01,64.33c.09-.08,.18-.04,.27,0-.09,.13-.18,.16-.27,0Z"/>
      <path class="cls-13" d="M4.54,105.98c-.17-.44,.13-.36,.39-.36-.03,.26-.21,.31-.39,.35h0Z"/>
      <path class="cls-13" d="M4.53,105.98s-.02,.02-.03,.03c.01,0,.03-.02,.04-.03,0,0,0,0,0,0Z"/>
      <path class="cls-10" d="M48.39,109.7c.19,.04,.33,.16,.41,.34-.31,.1-.41-.07-.41-.34Z"/>
    </g>
  </g>
</svg>